<svg xmlns="http://www.w3.org/2000/svg" width="64" height="64"><path fill="#B2B1B1" stroke="#000" stroke-width="3" stroke-miterlimit="10" d="M6.803 26.5L33.08 3.013 59.39 26.5z"/><path fill="#B3B3B3" d="M14.678 23L33.081 6.565 51.508 23z"/><path fill="#E2E0E0" d="M33.081 8.075L47.572 21H18.609L33.081 8.075m-.001-4.021L10.747 24h44.697L33.08 4.054z"/><path fill="none" stroke="#B3B3B3" stroke-width="2" stroke-miterlimit="10" d="M55.443 24H10.747L33.08 4.054z"/><path fill="#605E5E" d="M12 26h-2"/><path fill="none" stroke="#605E5E" stroke-miterlimit="10" d="M12 25.5h-2"/><path fill="none" stroke="#000" stroke-miterlimit="10" d="M12 25.5h-2"/><path fill="#B3B3B3" d="M56 26H12"/><path fill="none" stroke="#B3B3B3" stroke-miterlimit="10" d="M56 25.5h-4.606 0H12"/><path fill="none" stroke="#000" stroke-miterlimit="10" d="M56 25.5h-4.606 0H12"/><path fill="#B3B3B3" d="M10.319 26s-.717.364-1.291.841c-.586.487-.126 1.221.386 1.312.972.173 41.324.541 46.791.166a2.71 2.71 0 00.576-.087c.642-.22 1.038-.741.489-1.382-.536-.625-.48-.85-.48-.85H10.319z"/><path fill="none" stroke="#B3B3B3" stroke-miterlimit="10" d="M10.319 25.5s-.717.614-1.291 1.091c-.586.487-.126 1.346.386 1.437.972.173 41.324.603 46.791.229.305-.021.501-.03.576-.056.642-.22 1.038-.975.489-1.616-.536-.625-.48-1.084-.48-1.084H10.319z"/><path fill="none" stroke="#000" stroke-miterlimit="10" d="M10.319 25.5s-.717.614-1.291 1.091c-.586.487-.126 1.346.386 1.437.972.173 41.324.603 46.791.229.305-.021.501-.03.576-.056.642-.22 1.038-.975.489-1.616-.536-.625-.48-1.084-.48-1.084H10.319z"/><path fill="#E2E0E0" d="M56.443 26l-1-1H11.966l-1.97 1z"/><path opacity=".08" fill="none" stroke="#605E5E" stroke-miterlimit="10" d="M56.443 26.5l-1-1H11.966l-1.97 1z"/><path fill="#605E5E" stroke="#605E5E" stroke-miterlimit="10" d="M11 50.5h45"/><path fill="#B3B3B3" stroke="#000" stroke-width="2" stroke-miterlimit="10" d="M56 29v-.593V50.755s.688.245 1.584.808c.5.545.416 1.213.416 1.213V62H8s-.125-8.262 0-9.225.547-1.212.547-1.212L11 51h0V28"/><path fill="none" stroke="#E2E0E0" stroke-miterlimit="10" d="M17 53.5h36M14 56.5h40M13 59.5h43"/><path fill="#B2B1B1" stroke="#B3B3B3" stroke-miterlimit="10" d="M18.5 30.593V27.5h-6v23h6v-.643V30.593z"/><path fill="#F9F7F7" stroke="#B3B3B3" stroke-width="2" stroke-miterlimit="10" d="M21.11 27.819c-4.27-.332-4.11 2.09-4.11 2.764V48.2c0 .674-.16 2.775 3.805 2.775 2.021 0 3.195-.952 3.195-2.775V30.593c0-1.822-.877-2.617-2.89-2.774z"/><path fill="#B2B1B1" stroke="#B3B3B3" stroke-miterlimit="10" d="M44.5 30.593V27.5h-5v23h5v-.643V30.593z"/><path fill="#F9F7F7" stroke="#B3B3B3" stroke-width="2" stroke-miterlimit="10" d="M47.61 27.819c-4.27-.332-4.61 2.09-4.61 2.764V48.2c0 .674.34 2.775 4.305 2.775 2.021 0 3.695-.952 3.695-2.775V30.593c0-1.822-1.377-2.617-3.39-2.774z"/><path fill="#B2B1B1" stroke="#B3B3B3" stroke-miterlimit="10" d="M28.5 30.593V27.5h-5v23h5v-.643V30.593z"/><path fill="#F9F7F7" stroke="#B3B3B3" stroke-width="2" stroke-miterlimit="10" d="M35.018 27.819C27.9 27.487 28 29.909 28 30.583V48.2c0 .674-.1 2.775 6.508 2.775 3.366 0 5.492-.952 5.492-2.775V30.593c0-1.822-1.628-2.617-4.982-2.774z"/><path fill="#B3B3B3" d="M55 27h-5v24h5"/><path fill="none" stroke="#E2E0E0" stroke-miterlimit="10" d="M12.5 28v23M14.5 28v23M16.5 28v23M24.5 28v23M26.5 28v23M28.5 28v23M39.5 28v23M41.5 28v23M43.5 28v23M50.5 28v23M52.5 28v23M54.5 28v23"/></svg>