<svg width="62" height="62" xmlns="http://www.w3.org/2000/svg"><path fill="#fff" stroke="#fff" stroke-miterlimit="10" d="M54.5 58.6l-48-.1v-56h36v10h12z"/><path fill="#fff" stroke="#333" stroke-miterlimit="10" stroke-width="2" d="M54 60H6V2h36.3L54 12.5V60zM6 60h48V13.1H42v-11H6V60z"/><path fill="gray" d="M12.8 9.9l.2.1c0 .3-.1.6-.2.8-.1.2-.3.3-.4.3-.2 0-.3-.1-.4-.2-.1-.1-.2-.3-.3-.6-.1-.3-.1-.5-.1-.8 0-.3 0-.6.1-.9L12 8c.1-.1.3-.2.4-.2.2 0 .3.1.4.2.1.2.2.4.2.7l-.2.1c0-.2-.1-.4-.2-.5-.1-.1-.2-.2-.3-.2-.1 0-.2.1-.3.2-.1.1-.1.3-.2.5 0 .2-.1.4-.1.6 0 .3 0 .5.1.7 0 .2.1.3.2.4.1.1.2.1.3.1.1 0 .2-.1.3-.2.1 0 .2-.2.2-.5zM13.2 9.9c0-.4.1-.7.2-.9.1-.2.2-.3.4-.3s.3.1.4.3c.1.2.2.5.2.8 0 .3 0 .5-.1.7 0 .2-.1.3-.2.4-.1.1-.2.1-.3.1-.2 0-.3-.1-.4-.3-.2-.1-.2-.4-.2-.8zm.2 0c0 .3 0 .5.1.7.1.1.2.2.3.2s.2-.1.3-.2c.1-.1.1-.4.1-.7 0-.3 0-.5-.1-.6-.1-.1-.1-.2-.2-.2s-.2.1-.2.2c-.3.1-.3.3-.3.6zM14.6 11V8.8h.2v.3c.1-.2.2-.4.4-.4.1 0 .1 0 .2.1.1 0 .1.1.1.2s.1.2.1.3V11.1h-.3V9.6v-.4c0-.1 0-.1-.1-.2l-.1-.1c-.1 0-.2.1-.2.2-.1.1-.1.3-.1.6v1.2h-.2zM15.8 11.2l.2.1c0 .1 0 .2.1.3.1.1.1.1.2.1s.2 0 .2-.1c.1-.1.1-.2.1-.3v-.5c-.1.2-.2.3-.3.3-.2 0-.3-.1-.4-.3-.1-.2-.1-.5-.1-.8 0-.2 0-.4.1-.6 0-.2.1-.3.2-.4.1-.1.2-.1.3-.1.1 0 .3.1.3.3v-.4h.2v2c0 .4 0 .6-.1.8 0 .1-.1.3-.2.3-.1.1-.2.1-.3.1-.1 0-.3-.1-.3-.2s-.2-.3-.2-.6zm.2-1.4c0 .3 0 .5.1.7.1.1.1.2.2.2s.2-.1.2-.2c.1-.1.1-.3.1-.6s0-.5-.1-.6c-.1-.1-.1-.2-.2-.2s-.2.1-.2.2c-.1.1-.1.3-.1.5zM17.1 11V8.8h.2v.3c0-.2.1-.3.1-.3 0-.1.1-.1.1-.1.1 0 .1 0 .2.1l-.1.4c0-.1 0-.1-.1-.1 0 0-.1 0-.1.1s-.1.1-.1.2V11h-.2zM18.7 10.7c-.1.1-.1.2-.2.3-.1 0-.1.1-.2.1s-.2-.1-.3-.2c-.1-.1-.1-.3-.1-.5v-.3c0-.1.1-.2.1-.2 0-.1.1-.1.1-.1s.1 0 .2-.1c.2 0 .3-.1.4-.1v-.1c0-.2 0-.3-.1-.3-.1-.1-.1-.1-.2-.1s-.2 0-.2.1-.1.2-.1.3h-.2c0-.2 0-.3.1-.4 0-.1.1-.2.2-.2.1-.1.2-.1.3-.1s.2 0 .2.1c.1 0 .1.1.1.2s.1.2.1.3V11c0 .1 0 .2.1.3h-.2c-.1-.4-.1-.4-.1-.6zm-.1-.8c-.1.1-.2.1-.3.1-.1 0-.1 0-.2.1l-.1.1v.2c0 .1 0 .2.1.3 0 .1.1.1.2.1s.1 0 .2-.1.1-.2.1-.3v-.5zM19.6 10.7v.3h-.2c-.1 0-.1 0-.2-.1 0 0-.1-.1-.1-.2V9.1H19v-.3h.1v-.6l.2-.2v.8h.3v.3h-.2v1.6h.2zM19.7 10.3l.2-.1c0 .2 0 .3.1.4.1.1.1.1.2.1s.2 0 .2-.1.1-.2.1-.3c0-.1 0-.2-.1-.2 0 0-.1-.1-.2-.1-.1-.1-.3-.1-.3-.2-.1-.1-.1-.1-.1-.2v-.2-.3c0-.1.1-.2.1-.2l.1-.1h.2c.1 0 .2 0 .2.1l.2.2c0 .1.1.2.1.4l-.2.1c0-.1 0-.2-.1-.3 0-.1-.1-.1-.2-.1s-.2 0-.2.1-.1.1-.1.2v.1s0 .1.1.1c0 0 .1 0 .2.1s.2.1.3.2c.1 0 .1.1.1.2v.3c0 .1 0 .2-.1.4 0 .1-.1.2-.2.3-.1.1-.2.1-.3.1-.2 0-.3-.1-.4-.2.2-.3.1-.5.1-.8zM22 10.7v.3h-.2c-.1 0-.1 0-.2-.1 0 0-.1-.1-.1-.2V9.1h-.1v-.3h.1v-.6l.2-.2v.8h.2v.3h-.2v1.6H22zM22.2 9.9c0-.4.1-.7.2-.9.1-.2.2-.3.4-.3s.3.1.4.3c.1.2.2.5.2.8 0 .3 0 .5-.1.7 0 .2-.1.3-.2.4-.1.1-.2.1-.3.1-.2 0-.3-.1-.4-.3-.2-.1-.2-.4-.2-.8zm.2 0c0 .3 0 .5.1.7.1.1.2.2.3.2.1 0 .2-.1.3-.2.1-.1.1-.4.1-.7 0-.3 0-.5-.1-.6-.1-.1-.1-.2-.2-.2s-.2.1-.3.2c-.2.1-.2.3-.2.6zM25.3 7.9h.2v1.8c0 .3 0 .6-.1.8 0 .2-.1.3-.2.5-.1.1-.2.2-.4.2s-.3-.1-.4-.2c-.1-.1-.2-.2-.2-.4s-.1-.5-.1-.8V7.9h.2v2.4c0 .1.1.2.1.3.1.1.1.1.2.1.2 0 .3-.1.3-.2.1-.1.1-.4.1-.8V7.9zM25.9 11V7.9h.2V11h-.2zM26.4 10h.2c0 .2 0 .3.1.4 0 .1.1.2.2.2.1.1.2.1.3.1.1 0 .2 0 .2-.1.1 0 .1-.1.1-.2v-.3-.3c0-.1-.1-.1-.1-.2-.1.1-.2 0-.4 0-.2-.1-.3-.1-.3-.2-.1-.1-.1-.2-.2-.3 0-.1-.1-.2-.1-.4s0-.3.1-.4c0-.1.1-.2.2-.3.1-.1.2-.1.3-.1.1 0 .2 0 .3.1.1.1.2.2.2.3.1.1.1.3.1.5h-.2c0-.2 0-.3-.1-.4-.1-.1-.2-.1-.3-.1-.1 0-.2 0-.3.1-.1.1-.1.2-.1.3 0 .1 0 .2.1.3 0 .1.2.1.3.2.2.1.3.1.4.2.1.1.2.2.2.3 0 .1.1.3.1.4 0 .2 0 .3-.1.5 0 .1-.1.3-.2.3s-.2.1-.3.1c-.1 0-.3 0-.4-.1-.1-.1-.2-.2-.2-.4-.1-.1-.1-.3-.1-.5zM28.8 11v-.3c-.1.3-.2.4-.4.4-.1 0-.1 0-.2-.1s-.1-.1-.1-.2 0-.2-.1-.3V8.8h.2V10.5c0 .1 0 .2.1.2 0 .1.1.1.2.1s.1 0 .2-.1.1-.1.1-.2V8.8h.2v2.3h-.2zM29.3 11.9V8.8h.2v.3c0-.1.1-.2.1-.3.1-.1.1-.1.2-.1s.2 0 .3.1c.1.1.1.2.2.4 0 .2.1.4.1.6 0 .2 0 .4-.1.6 0 .2-.1.3-.2.4-.1.1-.2.1-.3.1-.1 0-.1 0-.2-.1s-.1-.1-.1-.2v1.1h-.2zm.1-2c0 .3 0 .5.1.6.1.1.1.2.2.2s.2-.1.2-.2c.1-.1.1-.4.1-.7 0-.3 0-.5-.1-.6-.1-.1-.1-.2-.2-.2s-.2.1-.2.2c0 .2-.1.4-.1.7zM30.5 11.9V8.8h.2v.3c0-.1.1-.2.1-.3.1-.1.1-.1.2-.1s.2 0 .3.1c.1.1.1.2.2.4 0 .2.1.4.1.6 0 .2 0 .4-.1.6 0 .2-.1.3-.2.4-.1.1-.2.1-.3.1-.1 0-.1 0-.2-.1s-.1-.1-.1-.2v1.1h-.2zm.2-2c0 .3 0 .5.1.6.1.1.1.2.2.2s.2-.1.2-.2c.1-.1.1-.4.1-.7 0-.3 0-.5-.1-.6-.1-.1-.1-.2-.2-.2s-.2.1-.2.2c0 .2-.1.4-.1.7zM31.7 9.9c0-.4.1-.7.2-.9.1-.2.2-.3.4-.3s.3.1.4.3c.1.2.2.5.2.8 0 .3 0 .5-.1.7 0 .2-.1.3-.2.4-.1.1-.2.1-.3.1-.2 0-.3-.1-.4-.3-.1-.1-.2-.4-.2-.8zm.3 0c0 .3 0 .5.1.7.1.1.1.2.3.2.1 0 .2-.1.2-.2.1-.1.1-.4.1-.7 0-.3 0-.5-.1-.6-.1-.1-.1-.2-.2-.2s-.2.1-.3.2c-.1.1-.1.3-.1.6zM33.1 11V8.8h.2v.3c0-.2.1-.3.1-.3 0-.1.1-.1.1-.1.1 0 .1 0 .2.1l-.1.4c0-.1-.1-.1-.1-.1s-.1 0-.1.1-.1.1-.1.2V11h-.2z"/><path fill="gray" d="M34.3 10.7v.3h-.2c-.1 0-.1 0-.2-.1 0 0-.1-.1-.1-.2V9.1h-.1v-.3h.1v-.6L34 8v.8h.2v.3H34v1.6H34.3zM35.6 11V8.3h-.5v-.4h1.3v.4h-.5v2.8h-.3zM37.1 10.3l.2.1c0 .2-.1.4-.2.5-.1.1-.2.2-.3.2-.2 0-.3-.1-.4-.3-.1-.2-.2-.5-.2-.9s.1-.7.2-.9c.1-.2.2-.3.4-.3s.3.1.4.3c.1.2.2.5.2.9v.1h-.9c0 .2 0 .4.1.6.1.1.1.2.3.2.1 0 .1 0 .2-.1-.1-.1-.1-.2 0-.4zm-.7-.6h.7c0-.2 0-.3-.1-.4-.1-.1-.1-.2-.3-.2-.1 0-.2.1-.2.2 0 0-.1.2-.1.4zM38.3 10.7c-.1.2-.1.3-.2.3s-.1.1-.2.1-.2-.1-.3-.2c-.1-.1-.1-.3-.1-.5v-.3c0-.1.1-.2.1-.2 0-.1.1-.1.1-.1s.1 0 .2-.1c.2 0 .3-.1.4-.1v-.1c0-.2 0-.3-.1-.3-.1-.1-.1-.1-.2-.1s-.2 0-.2.1-.1.2-.1.3h-.2c0-.2 0-.3.1-.4 0-.1.1-.2.2-.2.1-.1.2-.1.3-.1.1 0 .2 0 .2.1.1 0 .1.1.1.2s.1.2.1.3V11c0 .1 0 .2.1.3h-.2c-.1-.4-.1-.4-.1-.6zm0-.8c-.1.1-.2.1-.3.1-.1 0-.1 0-.2.1l-.1.1v.2c0 .1 0 .2.1.3 0 .1.1.1.2.1s.1 0 .2-.1.1-.2.1-.3v-.5zM38.8 11V8.8h.2v.3c0-.1.1-.2.2-.3.1-.1.1-.1.2-.1s.2 0 .2.1c.1.1.1.2.1.3.1-.3.2-.4.4-.4.1 0 .2.1.3.2.1.1.1.3.1.6v1.6h-.2V9.6v-.3c0-.1 0-.1-.1-.2l-.1-.1c-.1 0-.2.1-.2.2-.1.1-.1.3-.1.5V11h-.2V9.6v-.4c0-.1-.1-.1-.2-.1s-.1 0-.2.1c0 .1-.1.1-.1.3v1.7h-.3zM11.6 17.1v-.4h.2s0-.1.1-.1c0 0 0-.1.1-.3v-.1l-.5-2.3h.2l.2 1.3c0 .2.1.3.1.5 0-.2.1-.3.1-.5l.3-1.3h.2l-.5 2.3c0 .2-.1.4-.1.5 0 .1-.1.2-.1.3 0 .1-.1.1-.2.1 0 .1-.1.1-.1 0zM12.7 15.1c0-.4.1-.7.2-.9.1-.2.2-.3.4-.3s.3.1.4.3c.1.2.2.5.2.8 0 .3 0 .5-.1.7 0 .2-.1.3-.2.4s-.2.1-.3.1c-.2 0-.3-.1-.4-.3-.2-.1-.2-.4-.2-.8zm.2 0c0 .3 0 .5.1.7.1.1.2.2.3.2.1 0 .2-.1.3-.2.1-.1.1-.4.1-.7 0-.3 0-.5-.1-.6-.1-.1-.1-.2-.2-.2s-.2.1-.3.2c-.2.1-.2.3-.2.6zM14.8 16.3V16c-.1.3-.2.4-.4.4-.1 0-.1 0-.2-.1s-.1-.1-.1-.2 0-.2-.1-.3V14h.2V15.7c0 .1 0 .2.1.2 0 .1.1.1.2.1s.1 0 .2-.1.1-.1.1-.2v-1.6h.2v2.3h-.2zM16.7 16.3V16c-.1.2-.2.3-.3.3-.1 0-.2 0-.3-.1-.1-.1-.1-.2-.2-.4 0-.2-.1-.4-.1-.6 0-.2 0-.4.1-.6 0-.2.1-.3.2-.4.1-.1.2-.1.3-.1.1 0 .1 0 .2.1s.1.1.1.2v-1.1h.2v3.1h-.2zm-.6-1.2c0 .3 0 .5.1.7.1.1.1.2.2.2s.2-.1.2-.2c.1-.1.1-.3.1-.6s0-.5-.1-.7c-.1-.1-.1-.2-.2-.2s-.2.1-.2.2c-.1.1-.1.3-.1.6zM17.2 13.6v-.4h.2v.4h-.2zm0 2.7V14h.2v2.3h-.2zM18.5 16.3V16c-.1.2-.2.3-.3.3-.1 0-.2 0-.3-.1-.1-.1-.1-.2-.2-.4 0-.2-.1-.4-.1-.6 0-.2 0-.4.1-.6 0-.2.1-.3.2-.4.1-.1.2-.1.3-.1.1 0 .1 0 .2.1s.1.1.1.2v-1.1h.2v3.1h-.2zm-.6-1.2c0 .3 0 .5.1.7.1.1.1.2.2.2s.2-.1.2-.2c.1-.1.1-.3.1-.6s0-.5-.1-.7c-.1-.1-.1-.2-.2-.2s-.2.1-.2.2c-.1.1-.1.3-.1.6zM20.4 16c-.1.1-.1.2-.2.3-.1 0-.1.1-.2.1s-.2-.1-.3-.2c-.1-.1-.1-.3-.1-.5v-.3c0-.1.1-.2.1-.2 0-.1.1-.1.1-.1s.1 0 .2-.1c.2 0 .3-.1.4-.1v-.1c0-.2 0-.3-.1-.3-.1-.1-.1-.1-.2-.1s-.2 0-.2.1-.1.2-.1.3l-.2-.1c0-.2 0-.3.1-.4 0-.1.1-.2.2-.2.1-.1.2-.1.3-.1s.2 0 .2.1c.1 0 .1.1.1.2s.1.2.1.3v1.6c0 .1 0 .2.1.3h-.2c0-.3 0-.4-.1-.5zm0-.9c-.1.1-.2.1-.3.1-.1 0-.1 0-.2.1l-.1.1v.2c0 .1 0 .2.1.3 0 .1.1.1.2.1s.1 0 .2-.1.1-.2.1-.3v-.5zM21.6 16.5l.2.1c0 .1 0 .2.1.3.1.1.1.1.2.1s.2 0 .2-.1c.1-.1.1-.2.1-.3v-.5c-.1.2-.2.3-.3.3-.2 0-.3-.1-.4-.3-.1-.2-.1-.5-.1-.8 0-.2 0-.4.1-.6 0-.2.1-.3.2-.4.1-.1.2-.1.3-.1.1 0 .3.1.3.3v-.3h.2v2c0 .4 0 .6-.1.8 0 .1-.1.3-.2.4-.1.1-.2.1-.3.1-.1 0-.3-.1-.3-.2-.2-.4-.2-.6-.2-.8zm.1-1.4c0 .3 0 .5.1.7.1.1.1.2.2.2s.2-.1.2-.2c.1-.1.1-.3.1-.6s0-.5-.1-.6c-.1-.1-.1-.2-.2-.2s-.2.1-.2.2c0 0-.1.2-.1.5zM22.9 16.3V14h.2v.3c0-.2.1-.3.1-.3 0-.1.1-.1.1-.1.1 0 .1 0 .2.1l-.1.4c0-.1-.1-.1-.1-.1s-.1 0-.1.1-.1.1-.1.2v1.6h-.2zM24.5 15.5l.2.1c0 .2-.1.4-.2.5-.1.1-.2.2-.3.2-.2 0-.3-.1-.4-.3-.1-.2-.2-.5-.2-.9s.1-.7.2-.9c.1-.2.2-.3.4-.3s.3.1.4.3c.1.2.2.5.2.9v.1h-.9c0 .2 0 .4.1.6s.1.2.3.2c.1 0 .1 0 .2-.1-.1-.1-.1-.2 0-.4zm-.7-.6h.7c0-.2 0-.3-.1-.4-.1-.1-.1-.2-.2-.2s-.2.1-.2.2c-.2.1-.2.2-.2.4zM25.7 16c-.1.1-.1.2-.2.3-.1 0-.1.1-.2.1s-.2-.1-.3-.2c-.1-.1-.1-.3-.1-.5v-.3c0-.1.1-.2.1-.2 0-.1.1-.1.1-.1s.1 0 .2-.1c.2 0 .3-.1.4-.1v-.1c0-.2 0-.3-.1-.3-.1-.1-.1-.1-.2-.1s-.2 0-.2.1-.1.2-.1.3l-.2-.1c0-.2 0-.3.1-.4 0-.1.1-.2.2-.2.1-.1.2-.1.3-.1.1 0 .2 0 .2.1.1 0 .1.1.1.2s.1.2.1.3v1.6c0 .1 0 .2.1.3h-.2c-.1-.3-.1-.4-.1-.5zm0-.9c-.1.1-.2.1-.3.1-.1 0-.1 0-.2.1l-.1.1v.2c0 .1 0 .2.1.3 0 .1.1.1.2.1s.1 0 .2-.1.1-.2.1-.3v-.5zM26.6 15.9v.3h-.2c-.1 0-.1 0-.2-.1 0 0-.1-.1-.1-.2v-1.8H26v-.3h.1v-.6l.2-.2v.8h.2v.3h-.2v1.6h.1l.2.2zM27.2 17.2v-.3h.1s.1 0 .1-.1V14h.2v2.4c0 .3 0 .5-.1.6 0 .1-.1.2-.2.2h-.1zm.3-3.6v-.4h.2v.4h-.2zM27.9 15.1c0-.4.1-.7.2-.9.1-.2.2-.3.4-.3s.3.1.4.3c.1.2.2.5.2.8 0 .3 0 .5-.1.7 0 .2-.1.3-.2.4-.1.1-.2.1-.3.1-.2 0-.3-.1-.4-.3-.1-.1-.2-.4-.2-.8zm.2 0c0 .3 0 .5.1.7.1.1.2.2.3.2.1 0 .2-.1.3-.2.1-.1.1-.4.1-.7 0-.3 0-.5-.1-.6-.1-.1-.1-.2-.2-.2s-.2.1-.2.2c-.2.1-.3.3-.3.6zM29.5 16.3h-.2v-3.1h.2v1.1c.1-.2.2-.3.3-.3.1 0 .1 0 .2.1l.2.2c0 .1.1.2.1.4v.5c0 .4 0 .7-.2.9-.1.2-.2.3-.4.3-.1 0-.2-.1-.3-.3v.2zm0-1.2c0 .3 0 .5.1.6.1.2.1.3.3.3.1 0 .2-.1.2-.2.1-.1.1-.4.1-.7 0-.3 0-.5-.1-.7-.1-.1-.1-.2-.2-.2s-.2.1-.2.2c-.2.2-.2.4-.2.7zM31.4 16.3L31 14h.2l.2 1.3.1.5s0-.2.1-.5l.2-1.3h.2l.2 1.3.1.4.1-.4.2-1.3h.2l-.4 2.3h-.2l-.2-1.4v-.4l-.2 1.7h-.4z"/><path fill="gray" d="M32.8 13.6v-.4h.2v.4h-.2zm0 2.7V14h.2v2.3h-.2zM33.8 15.9v.3h-.2c-.1 0-.1 0-.2-.1 0 0-.1-.1-.1-.2v-1.8h-.1v-.3h.1v-.6l.2-.2v.8h.2v.3h-.2v1.6h.1c.1.2.2.2.2.2zM34 16.3v-3.1h.2v1.1c.1-.2.2-.3.4-.3.1 0 .2 0 .2.1.1.1.1.2.1.3v1.9h-.2v-1.4c0-.2 0-.3-.1-.4 0-.1-.1-.1-.2-.1s-.1 0-.2.1-.1.1-.1.2v1.6H34zM36.7 16c-.1.1-.1.2-.2.3-.1 0-.1.1-.2.1s-.2-.1-.3-.2c-.1-.1-.1-.3-.1-.5v-.3c0-.1.1-.2.1-.2 0-.1.1-.1.1-.1s.1 0 .2-.1c.2 0 .3-.1.4-.1v-.1c0-.2 0-.3-.1-.3 0-.1-.1-.1-.2-.1s-.2 0-.2.1-.1.2-.1.3l-.2-.1c0-.2 0-.3.1-.4 0-.1.1-.2.2-.2.1-.1.2-.1.3-.1s.2 0 .3.1c.1 0 .1.1.1.2s.1.2.1.3v1.6c0 .1 0 .2.1.3h-.2c-.2-.3-.2-.4-.2-.5zm0-.9c-.1.1-.2.1-.3.1-.1 0-.1 0-.2.1l-.1.1v.2c0 .1 0 .2.1.3 0 .1.1.1.2.1s.1 0 .2-.1.1-.2.1-.3v-.5zM37.2 16.3v-3.1h.2v3.1h-.2zM37.7 16.3v-3.1h.2v3.1h-.2zM12.4 21.2c-.1.1-.1.2-.2.3-.1 0-.1.1-.2.1s-.2-.1-.3-.2c-.1-.1-.1-.3-.1-.5v-.3c0-.1.1-.2.1-.2 0-.1.1-.1.1-.1s.1 0 .2-.1c.2 0 .3-.1.4-.1V20c0-.2 0-.3-.1-.3-.1-.1-.1-.1-.2-.1s-.2 0-.2.1-.1.2-.1.3l-.2-.1c0-.2 0-.3.1-.4 0-.1.1-.2.2-.2.1-.1.2-.1.3-.1.1 0 .2 0 .2.1.1 0 .1.1.1.2s.1.2.1.3v1.6c0 .1 0 .2.1.3h-.2c-.1-.3-.1-.4-.1-.5zm0-.8c-.1.1-.2.1-.3.1-.1 0-.1 0-.2.1l-.1.1v.2c0 .1 0 .2.1.3 0 .1.1.1.2.1s.1 0 .2-.1.1-.2.1-.3v-.5zM12.9 22.4v-3.1h.2v.3c0-.1.1-.2.1-.3.1-.1.1-.1.2-.1s.2.1.3.2c.1.1.1.2.2.4 0 .2.1.4.1.6 0 .2 0 .4-.1.6 0 .2-.1.3-.2.4-.1.1-.2.1-.3.1-.1 0-.1 0-.2-.1s-.1-.1-.1-.2v1.1h-.2zm.2-2c0 .3 0 .5.1.6.1.1.1.2.2.2s.2-.1.2-.2c.1-.1.1-.4.1-.7 0-.3 0-.5-.1-.6-.1-.1-.1-.2-.2-.2s-.2.1-.2.2c-.1.2-.1.4-.1.7zM14.2 22.4v-3.1h.2v.3c0-.1.1-.2.1-.3.1-.1.1-.1.2-.1s.2.1.3.2c.1.1.1.2.2.4 0 .2.1.4.1.6 0 .2 0 .4-.1.6 0 .2-.1.3-.2.4-.1.1-.2.1-.3.1-.1 0-.1 0-.2-.1s-.1-.1-.1-.2v1.1h-.2zm.2-2c0 .3 0 .5.1.6.1.1.1.2.2.2s.2-.1.2-.2c.1-.1.1-.3.1-.6s0-.5-.1-.6c-.1-.1-.1-.2-.2-.2s-.2.1-.2.2c-.1.1-.1.3-.1.6zM15.4 21.5v-3.1h.2v3.1h-.2zM16 18.8v-.4h.2v.4H16zm0 2.7v-2.2h.2v2.3H16zM17.3 20.7h.2c0 .3-.1.5-.2.6-.1.1-.2.2-.3.2-.2 0-.3-.1-.4-.3-.1-.2-.1-.5-.1-.9 0-.2 0-.5.1-.6 0-.2.1-.3.2-.4.1-.1.2-.1.3-.1.1 0 .2.1.3.2.1.1.1.3.2.5l-.2.1c0-.2-.1-.3-.1-.3 0-.1-.1-.1-.2-.1s-.2.1-.2.2c-.1.1-.1.4-.1.7 0 .3 0 .5.1.7.1.1.1.2.2.2s.1 0 .2-.1c-.1-.3-.1-.4 0-.6z"/><path fill="gray" d="M18.4 21.2c-.1.1-.1.2-.2.3-.1 0-.1.1-.2.1s-.2-.1-.3-.2c-.1-.1-.1-.3-.1-.5v-.3c0-.1.1-.2.1-.2 0-.1.1-.1.1-.1s.1 0 .2-.1c.2 0 .3-.1.4-.1V20c0-.2 0-.3-.1-.3-.1-.1-.1-.1-.2-.1s-.2 0-.2.1-.1.2-.1.3l-.2-.1c0-.2 0-.3.1-.4 0-.1.1-.2.2-.2.1-.1.2-.1.3-.1.1 0 .2 0 .2.1.1 0 .1.1.1.2s.1.2.1.3v1.6c0 .1 0 .2.1.3h-.2c-.1-.3-.1-.4-.1-.5zm0-.8c-.1.1-.2.1-.3.1-.1 0-.1 0-.2.1l-.1.1v.2c0 .1 0 .2.1.3 0 .1.1.1.2.1s.1 0 .2-.1.1-.2.1-.3v-.5zM19.3 21.2v.3h-.2c-.1 0-.1 0-.2-.1 0 0-.1-.1-.1-.2v-1.8h-.1v-.1h.1v-.6l.2-.2v.8h.2v.3H19v1.6H19.3zM19.5 18.8v-.4h.2v.4h-.2zm0 2.7v-2.2h.2v2.3h-.2zM20 20.4c0-.4.1-.7.2-.9.1-.2.2-.3.4-.3s.3.1.4.3c.1.2.2.5.2.8 0 .3 0 .5-.1.7 0 .2-.1.3-.2.4-.1.1-.2.1-.3.1-.2 0-.3-.1-.4-.3-.2-.1-.2-.4-.2-.8zm.2 0c0 .3 0 .5.1.7.1.1.2.2.3.2.1 0 .2-.1.3-.2.1-.1.1-.4.1-.7 0-.3 0-.5-.1-.6-.1-.1-.1-.2-.2-.2s-.2.1-.2.2c-.3.1-.3.3-.3.6zM21.3 21.5v-2.2h.2v.3c.1-.2.2-.4.4-.4.1 0 .1 0 .2.1.1 0 .1.1.1.2s.1.2.1.3V21.6h-.2v-1.4-.4c0-.1 0-.1-.1-.2l-.1-.1c-.1 0-.2.1-.2.2-.1.1-.1.3-.1.6v1.2h-.3zM23.7 21.2v.3h-.2c-.1 0-.1 0-.2-.1 0 0-.1-.1-.1-.2v-1.8h-.1v-.1h.1v-.6l.2-.2v.8h.2v.3h-.2v1.6H23.7zM23.9 21.5v-3.1h.2v1.1c.1-.2.2-.3.4-.3.1 0 .2 0 .2.1.1.1.1.2.1.3v1.9h-.2v-1.4c0-.2 0-.3-.1-.4 0-.1-.1-.1-.2-.1s-.1 0-.2.1-.1.1-.1.2v1.6h-.1zM26 21.2c-.1.1-.1.2-.2.3-.1 0-.1.1-.2.1s-.2-.1-.3-.2c-.1-.1-.1-.3-.1-.5v-.3c0-.1.1-.2.1-.2 0-.1.1-.1.1-.1s.1 0 .2-.1c.2 0 .3-.1.4-.1V20c0-.2 0-.3-.1-.3-.1-.1-.1-.1-.2-.1s-.2 0-.2.1-.1.2-.1.3l-.2-.1c0-.2 0-.3.1-.4 0-.1.1-.2.2-.2.1-.1.2-.1.3-.1.1 0 .2 0 .2.1.1 0 .1.1.1.2s.1.2.1.3v1.6c0 .1 0 .2.1.3h-.2c-.1-.3-.1-.4-.1-.5zm-.1-.8c-.1.1-.2.1-.3.1-.1 0-.1 0-.2.1l-.1.1v.2c0 .1 0 .2.1.3 0 .1.1.1.2.1s.1 0 .2-.1.1-.2.1-.3v-.5zM26.9 21.2v.3h-.2c-.1 0-.1 0-.2-.1 0 0-.1-.1-.1-.2v-1.8h-.1v-.1h.1v-.6l.2-.2v.8h.2v.3h-.1v1.6h.2zM28 21.5l-.4-2.3h.2l.2 1.3.1.5s0-.2.1-.5l.2-1.3h.2l.2 1.3.1.4.1-.4.2-1.3h.2l-.4 2.3h-.2l-.2-1.4v-.4l-.2 1.7H28zM30.2 21.2c-.1.1-.1.2-.2.3-.1 0-.1.1-.2.1s-.2-.1-.3-.2c-.1-.1-.1-.3-.1-.5v-.3c0-.1.1-.2.1-.2 0-.1.1-.1.1-.1s.1 0 .2-.1c.2 0 .3-.1.4-.1V20c0-.2 0-.3-.1-.3-.1-.1-.1-.1-.2-.1s-.2 0-.2.1-.1.2-.1.3l-.2-.1c0-.2 0-.3.1-.4 0-.1.1-.2.2-.2.1-.1.2-.1.3-.1.1 0 .2 0 .2.1.1 0 .1.1.1.2s.1.2.1.3v1.6c0 .1 0 .2.1.3h-.2c-.1-.3-.1-.4-.1-.5zm0-.8c-.1.1-.2.1-.3.1-.1 0-.1 0-.2.1l-.1.1v.2c0 .1 0 .2.1.3 0 .1.1.1.2.1s.1 0 .2-.1.1-.2.1-.3v-.5zM30.6 20.8l.2-.1c0 .2 0 .3.1.4.1.1.1.1.2.1s.2 0 .2-.1.1-.2.1-.3c0-.1 0-.2-.1-.2 0 0-.1-.1-.2-.1-.1-.1-.2-.1-.3-.2-.1-.1-.1-.1-.1-.2v-.3-.3c0-.1.1-.2.1-.2l.1-.1h.2c.1 0 .2 0 .2.1l.2.2c0 .1.1.2.1.4l-.2.1c0-.1 0-.2-.1-.3 0-.1-.1-.1-.2-.1s-.2 0-.2.1-.1.1-.1.2v.1s0 .1.1.1c0 0 .1 0 .2.1s.2.1.3.2c.1 0 .1.1.1.2v.3c0 .1 0 .2-.1.4 0 .1-.1.2-.2.3-.1.1-.2.1-.3.1-.2 0-.3-.1-.4-.2.2-.2.1-.4.1-.7zM32.9 21.2v.3h-.2c-.1 0-.1 0-.2-.1 0 0-.1-.1-.1-.2v-1.8h-.1v-.1h.2v-.6l.2-.2v.8h.2v.3h-.2v1.6h.2zM33.1 21.5v-3.1h.2v1.1c.1-.2.2-.3.4-.3.1 0 .2 0 .2.1.1.1.1.2.1.3v1.9h-.2v-1.4c0-.2 0-.3-.1-.4 0-.1-.1-.1-.2-.1s-.1 0-.2.1-.1.1-.1.2v1.6h-.1zM34.4 21.5v-2.2h.2v.3c0-.2.1-.3.1-.3 0-.1.1-.1.1-.1.1 0 .1 0 .2.1l-.1.4c0-.1-.1-.1-.1-.1s-.1 0-.1.1-.1.1-.1.2v1.6h-.2zM35.1 20.4c0-.4.1-.7.2-.9.1-.2.2-.3.4-.3s.3.1.4.3.2.5.2.8c0 .3 0 .5-.1.7s-.1.3-.2.4c-.1.1-.2.1-.3.1-.2 0-.3-.1-.4-.3-.2-.1-.2-.4-.2-.8zm.2 0c0 .3 0 .5.1.7.1.1.1.2.2.2s.2-.1.3-.2c.1-.1.1-.4.1-.7 0-.3 0-.5-.1-.6-.1-.1-.1-.2-.3-.2-.1 0-.2.1-.2.2-.1.1-.1.3-.1.6zM36.6 21.5l-.4-2.3h.2l.2 1.3.1.5s0-.2.1-.5l.2-1.3h.2l.2 1.3.1.4.1-.4.2-1.3h.2l-.4 2.3h-.2l-.2-1.4-.1-.3-.2 1.7h-.3zM38.1 21.5v-2.2h.2v.3c.1-.2.2-.4.4-.4.1 0 .1 0 .2.1.1 0 .1.1.1.2s.1.2.1.3V21.6h-.2v-1.4-.4c0-.1 0-.1-.1-.2l-.1-.1c-.1 0-.2.1-.2.2-.1.1-.1.3-.1.6v1.2h-.3zM40.8 21.2c-.1.1-.1.2-.2.3-.1 0-.1.1-.2.1s-.2-.1-.3-.2c-.1-.1-.1-.3-.1-.5v-.3c0-.1.1-.2.1-.2 0-.1.1-.1.1-.1s.1 0 .2-.1c.2 0 .3-.1.4-.1V20c0-.2 0-.3-.1-.3-.1-.1-.1-.1-.2-.1s-.2 0-.2.1-.1.2-.1.3l-.2-.1c0-.2 0-.3.1-.4 0-.1.1-.2.2-.2.1-.1.2-.1.3-.1.1 0 .2 0 .2.1.1 0 .1.1.1.2s.1.2.1.3v1.6c0 .1 0 .2.1.3h-.2c-.1-.3-.1-.4-.1-.5zm0-.8c-.1.1-.2.1-.3.1-.1 0-.1 0-.2.1l-.1.1v.2c0 .1 0 .2.1.3 0 .1.1.1.2.1s.1 0 .2-.1.1-.2.1-.3v-.5zM41.7 21.2v.3h-.1c-.1 0-.1 0-.2-.1 0 0-.1-.1-.1-.2v-1.8h-.1v-.1h.2v-.6l.2-.2v.8h.2v.3h-.2v1.6h.1zM11.6 27.6v-.4h.2s0-.1.1-.1c0 0 0-.1.1-.3v-.1l-.5-2.3h.2l.2 1.3c0 .2.1.3.1.5 0-.2.1-.3.1-.5l.3-1.3h.2l-.5 2.3c0 .2-.1.4-.1.5 0 .1-.1.2-.1.3 0 .1-.1.1-.2.1 0 .1-.1.1-.1 0zM12.7 25.6c0-.4.1-.7.2-.9.1-.2.2-.3.4-.3s.3.1.4.3c.1.2.2.5.2.8 0 .3 0 .5-.1.7 0 .2-.1.3-.2.4-.1.1-.2.1-.3.1-.2 0-.3-.1-.4-.3-.2-.1-.2-.4-.2-.8zm.2 0c0 .3 0 .5.1.7.1.1.2.2.3.2.1 0 .2-.1.3-.2s.1-.4.1-.7c0-.3 0-.5-.1-.6-.1-.1-.1-.2-.2-.2s-.2.1-.3.2c-.2.1-.2.3-.2.6zM14.8 26.8v-.3c-.1.3-.2.4-.4.4-.1 0-.1 0-.2-.1-.1 0-.1-.1-.1-.2s0-.2-.1-.3V24.5h.2V26.2c0 .1 0 .2.1.2 0 .1.1.1.2.1s.1 0 .2-.1.1-.1.1-.2v-1.6h.2v2.3h-.2zM15.4 26.8v-.4h.2v.4h-.2zM12.1 32v-2.7h-.5v-.4h1.3v.4h-.5v2.8h-.3zM13 32v-3.1h.2V30c.1-.2.2-.3.4-.3.1 0 .2 0 .2.1.1.1.1.2.1.3V32h-.2v-1.4c0-.2 0-.3-.1-.4 0-.1-.1-.1-.2-.1s-.1 0-.2.1-.1.1-.1.2V32H13zM14.3 29.3v-.4h.2v.4h-.2zm0 2.7v-2.3h.2V32h-.2zM14.7 31.3l.2-.1c0 .2 0 .3.1.3.1.1.1.1.2.1s.2 0 .2-.1.1-.2.1-.3c0-.1 0-.2-.1-.2 0 0-.1-.1-.2-.1-.1-.1-.3-.1-.3-.2-.1-.1-.1-.1-.1-.2v-.3-.3c0-.1.1-.2.1-.2l.1-.1h.2c.1 0 .2 0 .2.1l.2.2c.1.1.1.2.1.4l-.2.1c0-.1 0-.2-.1-.3 0-.1-.1-.1-.2-.1s-.2 0-.2.1-.1.1-.1.2v.1s0 .1.1.1c0 0 .1 0 .2.1s.2.1.3.2c.1 0 .1.1.1.2v.3c0 .1 0 .3-.1.4 0 .1-.1.2-.2.3s-.2.1-.3.1c-.2 0-.3-.1-.4-.2s.1-.3.1-.6zM16.6 29.3v-.4h.2v.4h-.2zm0 2.7v-2.3h.2V32h-.2zM17 31.3l.2-.1c0 .2 0 .3.1.3.1.1.1.1.2.1s.2 0 .2-.1.1-.2.1-.3c0-.1 0-.2-.1-.2 0 0-.1-.1-.2-.1-.1-.1-.3-.1-.3-.2-.1-.1-.1-.1-.1-.2v-.3-.3c0-.1.1-.2.1-.2l.1-.1h.2c.1 0 .2 0 .2.1l.2.2c0 .1.1.2.1.4l-.2.1c0-.1 0-.2-.1-.3 0-.1-.1-.1-.2-.1s-.2 0-.2.1-.1.1-.1.2v.1s0 .1.1.1c0 0 .1 0 .2.1s.2.1.3.2c.1 0 .1.1.1.2v.3c0 .1 0 .3-.1.4 0 .1-.1.2-.2.3-.1.1-.2.1-.3.1-.2 0-.3-.1-.4-.2.2-.1.2-.3.1-.6zM19.3 31.7v.3h-.2c-.1 0-.1 0-.2-.1 0 0-.1-.1-.1-.2v-1.8h-.1v-.3h.1V29l.2-.2v.8h.2v.3H19v1.6h.1l.2.2zM19.5 32v-3.1h.2V30c.1-.2.2-.3.4-.3.1 0 .2 0 .2.1.1.1.1.2.1.3V32h-.2v-1.4c0-.2 0-.3-.1-.4 0-.1-.1-.1-.2-.1s-.1 0-.2.1-.1.1-.1.2V32h-.1zM21.6 31.3l.2.1c0 .2-.1.4-.2.5-.1.1-.2.2-.3.2-.2 0-.3-.1-.4-.3-.1-.2-.2-.5-.2-.9s.1-.7.2-.9c.1-.2.2-.3.4-.3s.3.1.4.3c.1.2.2.5.2.9v.1H21c0 .2 0 .4.1.6.1.1.1.2.3.2.1 0 .1 0 .2-.1v-.4zm-.6-.6h.7c0-.2 0-.3-.1-.4-.1-.1-.1-.2-.2-.2s-.2.1-.2.2c-.2 0-.2.2-.2.4zM22.8 32v-2h-.2v-.3h.2v-.2-.3c0-.1.1-.2.1-.2 0-.1.1-.1.2-.1h.2v.3h-.1c-.1 0-.1 0-.1.1v.5h.2v.3h-.2v2h-.3zM23.4 29.3v-.4h.2v.4h-.2zm0 2.7v-2.3h.2V32h-.2zM23.9 32v-2.3h.2v.3c.1-.2.2-.4.4-.4.1 0 .1 0 .2.1s.1.1.1.2.1.2.1.3V32h-.2v-1.4-.4c0-.1 0-.1-.1-.2l-.1-.1c-.1 0-.2.1-.2.2-.1.1-.1.3-.1.6v1.2h-.3zM25.9 31.7c-.1.1-.1.2-.2.3-.1.1-.1.1-.2.1s-.2-.1-.3-.2c-.1-.1-.1-.3-.1-.5v-.3c0-.1.1-.2.1-.2 0-.1.1-.1.1-.1s.1 0 .2-.1c.2 0 .3-.1.4-.1v-.1c0-.2 0-.3-.1-.3-.1-.1-.1-.1-.2-.1s-.2 0-.2.1-.1.2-.1.3l-.2-.1c0-.2 0-.3.1-.4 0-.1.1-.2.2-.2.1-.1.2-.1.3-.1.1 0 .2 0 .2.1.1 0 .1.1.1.2s.1.2.1.3v1.6c0 .1 0 .2.1.3H26c0-.3 0-.4-.1-.5zm0-.8c-.1.1-.2.1-.3.1-.1 0-.1 0-.2.1l-.1.1v.2c0 .1 0 .2.1.3 0 .1.1.1.2.1s.1 0 .2-.1.1-.2.1-.3v-.5zM26.4 32v-3.1h.2V32h-.2zM27.5 31.3l.2-.1c0 .2 0 .3.1.3.1.1.1.1.2.1s.2 0 .2-.1.1-.2.1-.3c0-.1 0-.2-.1-.2 0 0-.1-.1-.2-.1-.1-.1-.2-.1-.3-.2-.1-.1-.1-.1-.1-.2v-.3-.3c0-.1.1-.2.1-.2l.1-.1h.2c.1 0 .2 0 .2.1l.2.2c0 .1.1.2.1.4l-.2.1c0-.1 0-.2-.1-.3 0-.1-.1-.1-.2-.1s-.2 0-.2.1-.1.1-.1.2v.1s0 .1.1.1c0 0 .1 0 .2.1s.2.1.3.2c.1 0 .1.1.1.2s.1.2.1.3c0 .1 0 .3-.1.4 0 .1-.1.2-.2.3-.1.1-.2.1-.3.1-.2 0-.3-.1-.4-.2.1-.1 0-.3 0-.6zM29.2 31.7v.3H29c-.1 0-.1 0-.2-.1 0 0-.1-.1-.1-.2v-1.8h-.1v-.3h.1V29l.2-.2v.8h.2v.3h-.2v1.6h.1c.1.2.2.2.2.2zM30.2 31.7c-.1.1-.1.2-.2.3-.1.1-.1.1-.2.1s-.2-.1-.3-.2c-.1-.1-.1-.3-.1-.5v-.3c0-.1.1-.2.1-.2 0-.1.1-.1.1-.1s.1 0 .2-.1c.2 0 .3-.1.4-.1v-.1c0-.2 0-.3-.1-.3-.1-.1-.1-.1-.2-.1s-.2 0-.2.1-.1.2-.1.3l-.2-.1c0-.2 0-.3.1-.4 0-.1.1-.2.2-.2.1-.1.2-.1.3-.1.1 0 .2 0 .2.1.1 0 .1.1.1.2s.1.2.1.3v1.6c0 .1 0 .2.1.3h-.2c-.1-.3-.1-.4-.1-.5zm0-.8c-.1.1-.2.1-.3.1-.1 0-.1 0-.2.1l-.1.1v.2c0 .1 0 .2.1.3 0 .1.1.1.2.1s.1 0 .2-.1.1-.2.1-.3v-.5zM31.1 31.7v.3h-.2c-.1 0-.1 0-.2-.1 0 0-.1-.1-.1-.2v-1.8h-.1v-.3h.1V29l.2-.2v.8h.2v.3h-.2v1.6h.1c.1.2.2.2.2.2zM32.1 31.3l.2.1c0 .2-.1.4-.2.5s-.2.2-.3.2c-.2 0-.3-.1-.4-.3-.1-.2-.2-.5-.2-.9s.1-.7.2-.9c.1-.2.2-.3.4-.3s.3.1.4.3c.1.2.2.5.2.9v.1h-.9c0 .2 0 .4.1.6l.2.2c.1 0 .1 0 .2-.1s.1-.3.1-.4zm-.6-.6h.7c0-.2 0-.3-.1-.4-.1-.1-.1-.2-.2-.2s-.2.1-.2.2c-.2 0-.2.2-.2.4zM32.6 32v-2.3h.2v.3c0-.1.1-.2.1-.3.1-.1.1-.1.2-.1s.2 0 .2.1c.1.1.1.2.1.3.1-.3.2-.4.4-.4.1 0 .2.1.3.2.1.1.1.3.1.6V32H34v-1.4-.3c0-.1 0-.1-.1-.2l-.1-.1c-.1 0-.2.1-.2.2-.1.1-.1.3-.1.5V32h-.2v-1.5c0-.2 0-.3-.1-.4 0-.1-.1-.1-.2-.1s-.1 0-.2.1c0 .1-.1.1-.1.3v1.7h-.1zM35.3 31.3l.2.1c0 .2-.1.4-.2.5s-.2.2-.3.2c-.2 0-.3-.1-.4-.3-.1-.2-.2-.5-.2-.9s.1-.7.2-.9c.1-.2.2-.3.4-.3s.3.1.4.3c.1.2.2.5.2.9v.1h-.9c0 .2 0 .4.1.6l.2.2c.1 0 .1 0 .2-.1 0-.1.1-.3.1-.4zm-.6-.6h.7c0-.2 0-.3-.1-.4-.1-.1-.1-.2-.3-.2-.1 0-.2.1-.2.2-.1 0-.1.2-.1.4zM35.8 32v-2.3h.2v.3c.1-.2.2-.4.4-.4.1 0 .1 0 .2.1s.1.1.1.2.1.2.1.3V32h-.2v-1.4-.4c0-.1 0-.1-.1-.2l-.1-.1c-.1 0-.2.1-.2.2-.1.1-.1.3-.1.6v1.2h-.3zM37.5 31.7v.3h-.2c-.1 0-.1 0-.2-.1 0 0-.1-.1-.1-.2v-1.8h-.1v-.3h.2V29l.2-.2v.8h.2v.3h-.2v1.6h.1c0 .2.1.2.1.2zM38.8 31.7v.3h-.2c-.1 0-.1 0-.2-.1 0 0-.1-.1-.1-.2v-1.8h-.1v-.3h.2V29l.2-.2v.8h.2v.3h-.2v1.6h.1c0 .2 0 .2.1.2zM39 32v-3.1h.2V30c.1-.2.2-.3.4-.3.1 0 .2 0 .2.1.1.1.1.2.1.3V32h-.2v-1.4c0-.2 0-.3-.1-.4 0-.1-.1-.1-.2-.1s-.1 0-.2.1-.1.1-.1.2V32H39zM41 31.7c-.1.1-.1.2-.2.3-.1.1-.1.1-.2.1s-.2-.1-.3-.2c-.1-.1-.1-.3-.1-.5v-.3c0-.1.1-.2.1-.2 0-.1.1-.1.1-.1s.1 0 .2-.1c.2 0 .3-.1.4-.1v-.1c0-.2 0-.3-.1-.3-.1-.1-.1-.1-.2-.1s-.2 0-.2.1-.1.2-.1.3l-.2-.1c0-.2 0-.3.1-.4 0-.1.1-.2.2-.2.1-.1.2-.1.3-.1s.2 0 .2.1c.1 0 .1.1.1.2s.1.2.1.3v1.6c0 .1 0 .2.1.3h-.2c0-.3-.1-.4-.1-.5zm0-.8c-.1.1-.2.1-.3.1-.1 0-.1 0-.2.1l-.1.1v.2c0 .1 0 .2.1.3 0 .1.1.1.2.1s.1 0 .2-.1.1-.2.1-.3v-.5zM42 31.7v.3h-.2c-.1 0-.1 0-.2-.1 0 0-.1-.1-.1-.2v-1.8h-.1v-.3h.1V29l.2-.2v.8h.2v.3h-.2v1.6h.1c.1.2.1.2.2.2zM11.8 37.3l-.4-2.3h.2l.2 1.3.1.5s0-.2.1-.5l.2-1.3h.2l.2 1.3.1.4.1-.4.2-1.3h.2l-.4 2.3h-.2l-.3-1.4v-.4l-.2 1.7h-.3zM13.3 34.6v-.4h.2v.4h-.2zm0 2.7V35h.2v2.3h-.2zM13.8 37.3v-3.1h.2v3.1h-.2zM14.3 37.3v-3.1h.2v3.1h-.2zM15.6 37.3h-.2v-3.1h.2v1.1c.1-.2.2-.3.3-.3.1 0 .1 0 .2.1l.2.2c0 .1.1.2.1.4v.5c0 .4-.1.7-.2.9-.1.2-.2.3-.4.3-.1 0-.2-.1-.3-.3v.2zm0-1.2c0 .3 0 .5.1.6.1.2.1.3.3.3.1 0 .2-.1.2-.2.1-.1.1-.4.1-.7 0-.3 0-.5-.1-.7-.1-.1-.1-.2-.2-.2s-.2.1-.2.2c-.1.2-.2.4-.2.7zM17.5 36.5h.2c0 .2-.1.4-.2.5-.1.1-.2.2-.3.2-.2 0-.3-.1-.4-.3-.1-.2-.2-.5-.2-.9s.1-.7.2-.9c.1-.2.2-.3.4-.3s.3.1.4.3c.1.2.2.5.2.9v.1h-.9c0 .3 0 .4.1.6.1.1.1.2.2.2s.1 0 .2-.1c.1 0 .1-.1.1-.3zm-.6-.6h.7c0-.2 0-.3-.1-.4-.1-.1-.1-.2-.2-.2s-.2.1-.2.2c-.2.1-.2.2-.2.4zM18.6 37.4l.2.1c0 .1 0 .2.1.3 0 .1.1.1.2.1s.2 0 .2-.1c.1-.1.1-.2.1-.3V37c-.1.2-.2.3-.3.3-.2 0-.3-.1-.4-.3-.1-.2-.1-.5-.1-.8 0-.2 0-.4.1-.6 0-.2.1-.3.2-.4.1-.1.2-.1.3-.1.1 0 .3.1.3.3v-.3h.2v2c0 .4 0 .6-.1.8 0 .1-.1.3-.2.4-.1.1-.2.1-.3.1-.1 0-.3-.1-.3-.2-.2-.3-.2-.5-.2-.8zm.2-1.3c0 .3 0 .5.1.6.1.1.1.2.2.2s.2-.1.2-.2c.1-.1.1-.3.1-.6s0-.5-.1-.6c-.1-.1-.1-.2-.2-.2s-.2.1-.2.2c-.1.1-.1.3-.1.6zM19.8 36.1c0-.4.1-.7.2-.9.1-.2.2-.3.4-.3s.3.1.4.3c.1.2.2.5.2.8 0 .3 0 .5-.1.7 0 .2-.1.3-.2.4-.1.1-.2.1-.3.1-.2 0-.3-.1-.4-.3-.1-.1-.2-.4-.2-.8zm.3 0c0 .3 0 .5.1.7.1.1.2.2.3.2.1 0 .2-.1.3-.2.1-.1.1-.4.1-.7 0-.3 0-.5-.1-.6l-.2-.2c-.1 0-.2.1-.3.2-.2.1-.2.3-.2.6zM21.2 34.6v-.4h.2v.4h-.2zm0 2.7V35h.2v2.3h-.2zM21.7 37.3V35h.2v.3c.1-.2.2-.4.4-.4.1 0 .1 0 .2.1.1 0 .1.1.1.2s.1.2.1.3V37.3h-.2v-1.4-.4c0-.1 0-.1-.1-.2l-.1-.1c-.1 0-.2.1-.2.2-.1.1-.1.3-.1.6v1.2h-.3zM23 37.4l.2.1c0 .1 0 .2.1.3.1.1.1.1.2.1s.2 0 .2-.1c.1-.1.1-.2.1-.3V37c-.1.2-.2.3-.3.3-.2 0-.3-.1-.4-.3-.1-.2-.1-.5-.1-.8 0-.2 0-.4.1-.6 0-.2.1-.3.2-.4.1-.1.2-.1.3-.1.1 0 .3.1.3.3v-.3h.2v2c0 .4 0 .6-.1.8 0 .1-.1.3-.2.4-.1.1-.2.1-.3.1-.1 0-.3-.1-.3-.2-.2-.3-.2-.5-.2-.8zm.1-1.3c0 .3 0 .5.1.6.1.1.1.2.2.2s.2-.1.2-.2c.1-.1.1-.3.1-.6s0-.5-.1-.6c-.1-.1-.1-.2-.2-.2s-.2.1-.2.2-.1.3-.1.6zM24.8 36.1c0-.4.1-.7.2-.9.1-.2.2-.3.4-.3s.3.1.4.3c.1.2.2.5.2.8 0 .3 0 .5-.1.7 0 .2-.1.3-.2.4-.1.1-.2.1-.3.1-.2 0-.3-.1-.4-.3-.1-.1-.2-.4-.2-.8zm.2 0c0 .3 0 .5.1.7.1.1.2.2.3.2.1 0 .2-.1.3-.2.1-.1.1-.4.1-.7 0-.3 0-.5-.1-.6-.1-.1-.1-.2-.2-.2s-.2.1-.3.2c-.1.1-.2.3-.2.6zM26.2 37.3V35h.2v.3c.1-.2.2-.4.4-.4.1 0 .1 0 .2.1.1 0 .1.1.1.2s.1.2.1.3V37.3H27v-1.4-.4c0-.1 0-.1-.1-.2l-.1-.1c-.1 0-.2.1-.2.2-.1.1-.1.3-.1.6v1.2h-.3zM28.6 36.9v.3h-.2c-.1 0-.1 0-.2-.1 0 0-.1-.1-.1-.2v-1.8H28v-.3h.1v-.6l.2-.2v.8h.2v.3h-.2v1.6h.1c.1.2.1.2.2.2zM28.8 37.3v-3.1h.2v1.1c.1-.2.2-.3.4-.3.1 0 .2 0 .2.1.1.1.1.2.1.3v1.9h-.2v-1.4c0-.2 0-.3-.1-.4 0-.1-.1-.1-.2-.1s-.1 0-.2.1-.1.1-.1.2v1.6h-.1zM30 34.6v-.4h.2v.4H30zm0 2.7V35h.2v2.3H30zM30.5 36.6l.2-.1c0 .2 0 .3.1.4.1.1.1.1.2.1s.2 0 .2-.1.1-.2.1-.3c0-.1 0-.2-.1-.2 0 0-.1-.1-.2-.1-.1-.1-.2-.1-.3-.2-.1-.1-.1-.1-.1-.2v-.3-.3c0-.1.1-.2.1-.2l.1-.1h.2c.1 0 .2 0 .2.1l.2.2c0 .1.1.2.1.4l-.2.1c0-.1 0-.2-.1-.3 0-.1-.1-.1-.2-.1s-.2 0-.2.1-.1.1-.1.2v.1s0 .1.1.1c0 0 .1 0 .2.1s.2.1.3.2c.1 0 .1.1.1.2v.3c0 .1 0 .2-.1.4 0 .1-.1.2-.2.3-.1.1-.2.1-.3.1-.2 0-.3-.1-.4-.2.1-.3.1-.5.1-.7zM32.3 34.6v-.4h.2v.4h-.2zm0 2.7V35h.2v2.3h-.2zM32.8 37.3V35h.2v.3c0-.1.1-.2.1-.3.1-.1.1-.1.2-.1s.2 0 .2.1c.1.1.1.2.1.3.1-.3.2-.4.4-.4.1 0 .2.1.3.2.1.1.1.3.1.6v1.6h-.2v-1.4-.3c0-.1 0-.1-.1-.2l-.1-.1c-.1 0-.2.1-.2.2-.1.1-.1.3-.1.5v1.3h-.2v-1.5-.4c0-.1-.1-.1-.2-.1s-.1 0-.2.1c0 .1-.1.1-.1.2v1.7h-.2zM35.5 37c-.1.1-.1.2-.2.3-.1.1-.1.1-.2.1s-.2-.1-.3-.2c-.1-.1-.1-.3-.1-.5v-.3c0-.1.1-.2.1-.2 0-.1.1-.1.1-.1s.1 0 .2-.1c.2 0 .3-.1.4-.1v-.1c0-.2 0-.3-.1-.3-.1-.1-.1-.1-.2-.1s-.2 0-.2.1-.1.2-.1.3l-.2-.1c0-.2 0-.3.1-.4 0-.1.1-.2.2-.2.1-.1.2-.1.3-.1.1 0 .2 0 .2.1.1 0 .1.1.1.2s.1.2.1.3v1.6c0 .1 0 .2.1.3h-.2c0-.3-.1-.4-.1-.5zm0-.9c-.1.1-.2.1-.3.1-.1 0-.1 0-.2.1l-.1.1v.2c0 .1 0 .2.1.3 0 .1.1.1.2.1s.1 0 .2-.1.1-.2.1-.3v-.5zM36 37.4l.2.1c0 .1 0 .2.1.3.1.1.1.1.2.1s.2 0 .2-.1.1-.2.1-.3V37c-.1.2-.2.3-.3.3-.2 0-.3-.1-.4-.3-.1-.2-.1-.5-.1-.8 0-.2 0-.4.1-.6 0-.2.1-.3.2-.4.1-.1.2-.1.3-.1.1 0 .3.1.3.3v-.3h.2v2c0 .4 0 .6-.1.8 0 .1-.1.3-.2.4-.1.1-.2.1-.3.1-.1 0-.3-.1-.3-.2-.2-.3-.2-.5-.2-.8zm.2-1.3c0 .3 0 .5.1.6.1.1.1.2.2.2s.2-.1.2-.2c.1-.1.1-.3.1-.6s0-.5-.1-.6c-.1-.1-.1-.2-.2-.2s-.2.1-.2.2c-.1.1-.1.3-.1.6zM38.1 36.5h.2c0 .2-.1.4-.2.5-.1.1-.2.2-.3.2-.2 0-.3-.1-.4-.3-.1-.2-.2-.5-.2-.9s.1-.7.2-.9c.1-.2.2-.3.4-.3s.3.1.4.3c.1.2.2.5.2.9v.1h-.9c0 .3 0 .4.1.6.1.1.2.2.3.2.1 0 .1 0 .2-.1v-.3zm-.6-.6h.7c0-.2 0-.3-.1-.4-.1-.1-.1-.2-.3-.2-.1 0-.2.1-.2.2-.1.1-.1.2-.1.4zM39.7 36.9v.3h-.2c-.1 0-.1 0-.2-.1 0 0-.1-.1-.1-.2v-1.8h-.1v-.3h.1v-.6l.2-.2v.8h.2v.3h-.2v1.6h.1c.1.2.1.2.2.2zM39.8 36.1c0-.4.1-.7.2-.9.1-.2.2-.3.4-.3s.3.1.4.3c.1.2.2.5.2.8 0 .3 0 .5-.1.7 0 .2-.1.3-.2.4-.1.1-.2.1-.3.1-.2 0-.3-.1-.4-.3-.1-.1-.2-.4-.2-.8zm.2 0c0 .3 0 .5.1.7.1.1.2.2.3.2.1 0 .2-.1.3-.2.1-.1.1-.4.1-.7 0-.3 0-.5-.1-.6l-.2-.2c-.1 0-.2.1-.3.2-.2.1-.2.3-.2.6zM11.6 42.5v-2.3h.2v.3c0-.1.1-.2.1-.3.1-.1.1-.1.2-.1s.2 0 .2.1c.1.1.1.2.1.3.1-.3.2-.4.4-.4.1 0 .2.1.3.2.1.1.1.3.1.6v1.6H13v-1.4-.3c0-.1 0-.1-.1-.2l-.1-.1c-.1 0-.2.1-.2.2-.1.1-.1.3-.1.5v1.3h-.2V41v-.4c0-.1-.1-.1-.2-.1s-.1 0-.2.1c0 .1-.1.1-.1.3v1.7h-.2zM14.3 42.2c-.1.1-.1.2-.2.3-.1.1-.1.1-.2.1s-.2-.1-.3-.2c-.1-.1-.1-.3-.1-.5v-.3c0-.1.1-.2.1-.2 0-.1.1-.1.1-.1s.1 0 .2-.1c.2 0 .3-.1.4-.1V41c0-.2 0-.3-.1-.3-.1-.1-.1-.1-.2-.1s-.2 0-.2.1-.1.2-.1.3l-.2-.1c0-.2 0-.3.1-.4 0-.1.1-.2.2-.2.1-.1.2-.1.3-.1.1 0 .2 0 .2.1.1 0 .1.1.1.2s.1.2.1.3v1.6c0 .1 0 .2.1.3h-.2c-.1-.3-.1-.4-.1-.5zm0-.8c-.1.1-.2.1-.3.1-.1 0-.1 0-.2.1l-.1.1v.2c0 .1 0 .2.1.3 0 .1.1.1.2.1s.1 0 .2-.1.1-.2.1-.3v-.5zM14.8 42.5v-3.1h.2v1.8l.5-.9h.3l-.5.8.5 1.4h-.2l-.4-1.2-.1.3v.9h-.3zM16.8 41.8h.2c0 .2-.1.4-.2.5-.1.1-.2.2-.3.2-.2 0-.3-.1-.4-.3-.1-.2-.2-.5-.2-.9s.1-.7.2-.9c.1-.2.2-.3.4-.3s.3.1.4.3c.1.2.2.5.2.9v.1h-.9c0 .2 0 .4.1.6.1.1.2.2.3.2.1 0 .1 0 .2-.1-.1 0-.1-.2 0-.3zm-.7-.6h.7c0-.2 0-.3-.1-.4-.1-.1-.1-.2-.3-.2-.1 0-.2.1-.2.2 0 0-.1.2-.1.4zM17.9 39.8v-.4h.2v.4h-.2zm0 2.7v-2.3h.2v2.3h-.2zM18.8 42.2v.3h-.2c-.1 0-.1 0-.2-.1 0 0-.1-.1-.1-.2v-1.8h-.1v-.3h.1v-.6l.2-.2v.8h.2v.3h-.2V42h.1l.2.2zM19.7 42.5v-3.1h.2v3.1h-.2zM20.1 41.4c0-.4.1-.7.2-.9.1-.2.2-.2.4-.2s.3.1.4.3c.1.2.2.5.2.8 0 .3 0 .5-.1.7 0 .2-.1.3-.2.4-.1.1-.2.1-.3.1-.2 0-.3-.1-.4-.3-.1-.3-.2-.5-.2-.9zm.2 0c0 .3 0 .5.1.7.1.1.2.2.3.2.1 0 .2-.1.3-.2.1-.1.1-.4.1-.7 0-.3 0-.5-.1-.6-.1-.1-.1-.2-.2-.2s-.2.1-.3.2c-.2.1-.2.3-.2.6zM21.4 41.4c0-.4.1-.7.2-.9.1-.2.2-.2.4-.2s.3.1.4.3c.1.2.2.5.2.8 0 .3 0 .5-.1.7 0 .2-.1.3-.2.4-.1.1-.2.1-.3.1-.2 0-.3-.1-.4-.3-.2-.3-.2-.5-.2-.9zm.2 0c0 .3 0 .5.1.7.1.1.2.2.3.2.1 0 .2-.1.3-.2.1-.1.1-.4.1-.7 0-.3 0-.5-.1-.6-.1-.1-.1-.2-.2-.2s-.2.1-.3.2c-.2.1-.2.3-.2.6zM22.7 42.5v-3.1h.2v1.8l.5-.9h.3l-.5.8.5 1.4h-.2l-.4-1.2-.1.3v.9h-.3zM24.5 42.5v-3.1h.2v3.1h-.2zM25 39.8v-.4h.2v.4H25zm0 2.7v-2.3h.2v2.3H25zM25.6 42.5v-3.1h.2v1.8l.5-.9h.3l-.5.8.5 1.4h-.2l-.4-1.2-.1.3v.9h-.3zM27.5 41.8h.2c0 .2-.1.4-.2.5-.1.1-.2.2-.3.2-.2 0-.3-.1-.4-.3-.1-.2-.2-.5-.2-.9s.1-.7.2-.9c.1-.2.2-.3.4-.3s.3.1.4.3c.1.2.2.5.2.9v.1h-.9c0 .2 0 .4.1.6.1.1.2.2.3.2.1 0 .1 0 .2-.1-.1 0 0-.2 0-.3zm-.6-.6h.7c0-.2 0-.3-.1-.4-.1-.1-.1-.2-.3-.2-.1 0-.2.1-.2.2-.1 0-.1.2-.1.4zM29.4 42.2c-.1.1-.1.2-.2.3-.1.1-.1.1-.2.1s-.2-.1-.3-.2c-.1-.1-.1-.3-.1-.5v-.3c0-.1.1-.2.1-.2 0-.1.1-.1.1-.1s.1 0 .2-.1c.2 0 .3-.1.4-.1V41c0-.2 0-.3-.1-.3 0-.1-.1-.1-.2-.1s-.2 0-.2.1-.1.2-.1.3l-.2-.1c0-.2 0-.3.1-.4 0-.1.1-.2.2-.2.1-.1.2-.1.3-.1s.2 0 .2.1c.1 0 .1.1.1.2s.1.2.1.3v1.6c0 .1 0 .2.1.3h-.2c-.1-.3-.1-.4-.1-.5zm0-.8c-.1.1-.2.1-.3.1-.1 0-.1 0-.2.1l-.1.1v.2c0 .1 0 .2.1.3 0 .1.1.1.2.1s.1 0 .2-.1.1-.2.1-.3v-.5zM31 42.2v.3h-.2c-.1 0-.1 0-.2-.1 0 0-.1-.1-.1-.2v-1.8h-.1v-.3h.2v-.6l.2-.2v.8h.2v.3h-.2V42h.1c0 .2 0 .2.1.2zM31.2 42.5v-2.3h.2v.3c0-.2.1-.3.1-.3l.1-.1c.1 0 .1 0 .2.1l-.1.4-.1-.1s-.1 0-.1.1-.1.1-.1.2v1.6h-.2zM32.8 41.8h.2c0 .2-.1.4-.2.5-.1.1-.2.2-.3.2-.2 0-.3-.1-.4-.3-.1-.2-.2-.5-.2-.9s.1-.7.2-.9c.1-.2.2-.3.4-.3s.3.1.4.3c.1.2.2.5.2.9v.1h-.9c0 .2 0 .4.1.6.1.1.1.2.3.2.1 0 .1 0 .2-.1-.1 0-.1-.2 0-.3zm-.7-.6h.7c0-.2 0-.3-.1-.4-.1-.1-.1-.2-.3-.2-.1 0-.2.1-.2.2-.1 0-.1.2-.1.4zM34 41.8h.2c0 .2-.1.4-.2.5-.1.1-.2.2-.3.2-.2 0-.3-.1-.4-.3-.1-.2-.2-.5-.2-.9s.1-.7.2-.9c.1-.2.2-.3.4-.3s.3.1.4.3c.1.2.2.5.2.9v.1h-.9c0 .2 0 .4.1.6l.2.2c.1 0 .1 0 .2-.1.1 0 .1-.2.1-.3zm-.6-.6h.7c0-.2 0-.3-.1-.4-.1-.1-.1-.2-.2-.2s-.2.1-.2.2c-.2 0-.2.2-.2.4zM35.9 42.5v-.3c-.1.2-.2.3-.3.3-.1 0-.2 0-.3-.1-.1-.1-.1-.2-.2-.4 0-.2-.1-.4-.1-.6 0-.2 0-.4.1-.6 0-.2.1-.3.2-.4.1-.1.2-.1.3-.1.1 0 .1 0 .2.1s.1.1.1.2v-1.1h.2v3.1h-.2zm-.6-1.1c0 .3 0 .5.1.6.1.1.1.2.2.2s.2-.1.2-.2c.1-.1.1-.3.1-.6s0-.5-.1-.7c-.1-.1-.1-.2-.2-.2s-.2.1-.2.2c-.1.2-.1.4-.1.7zM36.3 41.4c0-.4.1-.7.2-.9.1-.2.2-.2.4-.2s.3.1.4.3c.1.2.2.5.2.8 0 .3 0 .5-.1.7 0 .2-.1.3-.2.4-.1.1-.2.1-.3.1-.2 0-.3-.1-.4-.3-.1-.3-.2-.5-.2-.9zm.3 0c0 .3 0 .5.1.7s.2.2.3.2c.1 0 .2-.1.3-.2.1-.1.1-.4.1-.7 0-.3 0-.5-.1-.6-.1-.1-.1-.2-.2-.2s-.2.1-.3.2c-.2.1-.2.3-.2.6zM38.5 41.7l.2.1c0 .3-.1.5-.2.6-.1.1-.2.2-.3.2-.2 0-.3-.1-.4-.3-.1-.2-.1-.5-.1-.9 0-.2 0-.5.1-.6 0-.2.1-.3.2-.4.1-.1.2-.1.3-.1.1 0 .2.1.3.2.1.1.1.3.2.5l-.2.1c0-.2-.1-.3-.1-.3 0-.1-.1-.1-.2-.1s-.2.1-.2.2c-.1.1-.1.4-.1.7 0 .3 0 .5.1.7.1.1.1.2.2.2s.1 0 .2-.1c-.1-.4 0-.5 0-.7z"/><path fill="gray" d="M39.6 42.5v-.3c-.1.3-.2.4-.4.4-.1 0-.1 0-.2-.1s-.1-.1-.1-.2-.1-.2-.1-.3V40.2h.2V41.9c0 .1 0 .2.1.2 0 .1.1.1.2.1s.1 0 .2-.1.1-.1.1-.2v-1.6h.2v2.3h-.2zM40.1 42.5v-2.3h.2v.3c0-.1.1-.2.1-.3.1-.1.1-.1.2-.1s.2 0 .2.1c.1.1.1.2.1.3.1-.3.2-.4.4-.4.1 0 .2.1.3.2.1.1.1.3.1.6v1.6h-.2v-1.4-.3c0-.1 0-.1-.1-.2l-.1-.1c-.1 0-.2.1-.2.2-.1.1-.1.3-.1.5v1.3h-.2V41c0-.2 0-.3-.1-.4 0-.1-.1-.1-.2-.1s-.1 0-.2.1c0 .1-.1.1-.1.3v1.7h-.1zM42.8 42.5v-.3c-.1.3-.2.4-.4.4-.1 0-.1 0-.2-.1s-.1-.1-.1-.2-.1-.2-.1-.3V40.2h.2V41.9c0 .1 0 .2.1.2 0 .1.1.1.2.1s.1 0 .2-.1.1-.1.1-.2v-1.6h.2v2.3h-.2zM43.3 42.5v-2.3h.2v.3c.1-.2.2-.4.4-.4.1 0 .1 0 .2.1s.1.1.1.2.1.2.1.3V42.5h-.2v-1.4-.4c0-.1 0-.1-.1-.2l-.1-.1c-.1 0-.2.1-.2.2s-.1.3-.1.6v1.2h-.3zM45.4 41.8h.2c0 .2-.1.4-.2.5-.1.1-.2.2-.3.2-.2 0-.3-.1-.4-.3-.1-.2-.2-.5-.2-.9s.1-.7.2-.9c.1-.2.2-.3.4-.3s.3.1.4.3c.1.2.2.5.2.9v.1h-.9c0 .2 0 .4.1.6.1.1.1.2.2.2s.1 0 .2-.1c.1 0 .1-.2.1-.3zm-.6-.6h.7c0-.2 0-.3-.1-.4-.1-.1-.1-.2-.2-.2s-.2.1-.2.2c-.2 0-.2.2-.2.4zM46.3 42.2v.3h-.2c-.1 0-.1 0-.2-.1 0 0-.1-.1-.1-.2v-1.8h-.1v-.3h.1v-.6l.2-.2v.8h.2v.3H46V42h.1l.2.2zM12.1 47.4v.3h-.2c-.1 0-.1 0-.2-.1 0 0-.1-.1-.1-.2v-1.8h-.1v-.3h.1v-.6l.2-.2v.8h.2v.3h-.2v1.6h.1c.1.2.1.2.2.2zM12.3 47.8v-3.1h.2v1.1c.1-.2.2-.3.4-.3.1 0 .2 0 .2.1.1.1.1.2.1.3v1.9H13v-1.4c0-.2 0-.3-.1-.4 0-.1-.1-.1-.2-.1s-.1 0-.2.1-.1.1-.1.2v1.6h-.1zM14.3 47.5c-.1.1-.1.2-.2.3-.1.1-.1.1-.2.1s-.2-.1-.3-.2c-.1-.1-.1-.3-.1-.5v-.3c0-.1.1-.2.1-.2 0-.1.1-.1.1-.1s.1 0 .2-.1c.2 0 .3-.1.4-.1v-.1c0-.2 0-.3-.1-.3-.1-.1-.1-.1-.2-.1s-.2 0-.2.1-.1.2-.1.3l-.2-.1c0-.2 0-.3.1-.4 0-.1.1-.2.2-.2.1-.1.2-.1.3-.1.1 0 .2 0 .2.1.1 0 .1.1.1.2s.1.2.1.3v1.6c0 .1 0 .2.1.3h-.2c-.1-.3-.1-.4-.1-.5zm0-.9c-.1.1-.2.1-.3.1-.1 0-.1 0-.2.1l-.1.1v.2c0 .1 0 .2.1.3 0 .1.1.1.2.1s.1 0 .2-.1.1-.2.1-.3v-.5zM15.3 47.4v.3h-.2c-.1 0-.1 0-.2-.1 0 0-.1-.1-.1-.2v-1.8h-.1v-.3h.1v-.6l.2-.2v.8h.2v.3H15v1.6h.1c.1.2.1.2.2.2zM16.1 47.8v-3.1h.2v1.1c.1-.2.2-.3.4-.3.1 0 .2 0 .2.1.1.1.1.2.1.3v1.9h-.2v-1.4c0-.2 0-.3-.1-.4 0-.1-.1-.1-.2-.1s-.1 0-.2.1-.1.1-.1.2v1.6h-.1zM18.1 47.5c-.1.1-.1.2-.2.3-.1.1-.1.1-.2.1s-.2-.1-.3-.2c-.1-.1-.1-.3-.1-.5v-.3c0-.1.1-.2.1-.2 0-.1.1-.1.1-.1s.1 0 .2-.1c.2 0 .3-.1.4-.1v-.1c0-.2 0-.3-.1-.3-.1-.1-.1-.1-.2-.1s-.2 0-.2.1-.1.2-.1.3l-.2-.1c0-.2 0-.3.1-.4 0-.1.1-.2.2-.2.1-.1.2-.1.3-.1s.2 0 .2.1c.1 0 .1.1.1.2s.1.2.1.3v1.6c0 .1 0 .2.1.3h-.2c0-.3 0-.4-.1-.5zm0-.9c-.1.1-.2.1-.3.1-.1 0-.1 0-.2.1l-.1.1v.2c0 .1 0 .2.1.3 0 .1.1.1.2.1s.1 0 .2-.1.1-.2.1-.3v-.5zM18.6 47.1l.2-.1c0 .2 0 .3.1.4.1.1.1.1.2.1s.2 0 .2-.1.1-.2.1-.3c0-.1 0-.2-.1-.2 0 0-.1-.1-.2-.1-.1-.1-.3-.1-.3-.2-.1-.1-.1-.1-.1-.2v-.3-.3c0-.1.1-.2.1-.2l.1-.1h.2c.1 0 .2 0 .2.1l.2.2c0 .1.1.2.1.4l-.2.1c0-.1 0-.2-.1-.3 0-.1-.1-.1-.2-.1s-.2 0-.2.1-.1.1-.1.2v.1s0 .1.1.1c0 0 .1 0 .2.1s.2.1.3.2c.1 0 .1.1.1.2v.3c0 .1 0 .2-.1.4 0 .1-.1.2-.2.3-.1.1-.2.1-.3.1-.2 0-.3-.1-.4-.2.1-.3.1-.5.1-.7zM20.6 47.8h-.2v-3.1h.2v1.1c.1-.2.2-.3.3-.3.1 0 .1 0 .2.1l.2.2c0 .1.1.2.1.4v.5c0 .4 0 .7-.2.9-.1.2-.2.3-.4.3-.1 0-.3-.1-.3-.3v.2zm0-1.2c0 .3 0 .5.1.6.1.2.1.3.3.3.1 0 .2-.1.2-.2.1-.1.1-.4.1-.6 0-.3 0-.5-.1-.7-.1-.1-.1-.2-.2-.2s-.2.1-.2.2c-.1.1-.2.3-.2.6zM22.5 47h.2c0 .2-.1.4-.2.5-.1.1-.2.2-.3.2-.2 0-.3-.1-.4-.3-.1-.2-.2-.5-.2-.9s.1-.7.2-.9c.1-.2.2-.3.4-.3s.3.1.4.3c.1.2.2.5.2.9v.1h-.9c0 .3 0 .4.1.6.1.1.1.2.3.2.1 0 .1 0 .2-.1V47zm-.6-.6h.7c0-.2 0-.3-.1-.4-.1-.1-.1-.2-.3-.2-.1 0-.2.1-.2.2-.1 0-.1.2-.1.4zM23.8 47h.2c0 .2-.1.4-.2.5-.1.1-.2.2-.3.2-.2 0-.3-.1-.4-.3-.1-.2-.2-.5-.2-.9s.1-.7.2-.9c.1-.2.2-.3.4-.3s.3.1.4.3c.1.2.2.5.2.9v.1h-.9c0 .3 0 .4.1.6.1.1.2.2.3.2.1 0 .1 0 .2-.1-.1 0 0-.1 0-.3zm-.6-.6h.7c0-.2 0-.3-.1-.4-.1-.1-.1-.2-.3-.2-.1 0-.2.1-.2.2-.1 0-.1.2-.1.4zM24.3 47.8v-2.3h.2v.3c.1-.2.2-.4.4-.4.1 0 .1 0 .2.1s.1.1.1.2.1.2.1.3V47.8h-.2v-1.4-.4c0-.1 0-.1-.1-.2l-.1-.1c-.1 0-.2.1-.2.2-.1.1-.1.3-.1.6v1.2h-.3zM26.1 47.1l.2-.1c0 .2 0 .3.1.4.1.1.1.1.2.1s.2 0 .2-.1.1-.2.1-.3c0-.1 0-.2-.1-.2 0 0-.1-.1-.2-.1-.1-.1-.3-.1-.3-.2-.1-.1-.1-.1-.1-.2v-.3-.3c0-.1.1-.2.1-.2l.1-.1h.2c.1 0 .2 0 .2.1l.2.2c0 .1.1.2.1.4l-.2.1c0-.1 0-.2-.1-.3 0-.1-.1-.1-.2-.1s-.2 0-.2.1-.1.1-.1.2v.1s0 .1.1.1c0 0 .1 0 .2.1s.2.1.3.2c.1 0 .1.1.1.2v.3c0 .1 0 .2-.1.4 0 .1-.1.2-.2.3-.1.1-.2.1-.3.1-.2 0-.3-.1-.4-.2.2-.3.1-.5.1-.7zM27.3 47.8v-3.1h.2v1.1c.1-.2.2-.3.4-.3.1 0 .2 0 .2.1.1.1.1.2.1.3v1.9H28v-1.4c0-.2 0-.3-.1-.4 0-.1-.1-.1-.2-.1s-.1 0-.2.1-.1.1-.1.2v1.6h-.1zM28.6 47.8v-2.3h.2v.3c0-.2.1-.3.1-.3l.1-.1c.1 0 .1 0 .2.1l-.1.4c0-.1-.1-.1-.1-.1s-.1 0-.1.1-.1.1-.1.2v1.6h-.2zM30.2 47.8v-.3c-.1.3-.2.4-.4.4-.1 0-.1 0-.2-.1s-.1-.1-.1-.2 0-.2-.1-.3V45.5h.2V47.2c0 .1 0 .2.1.2 0 .1.1.1.2.1s.1 0 .2-.1.1-.1.1-.2v-1.6h.2v2.3h-.2zM30.7 47.8v-2.3h.2v.3c.1-.2.2-.4.4-.4.1 0 .1 0 .2.1s.1.1.1.2.1.2.1.3V47.8h-.2v-1.4-.4c0-.1 0-.1-.1-.2l-.1-.1c-.1 0-.2.1-.2.2-.1.1-.1.3-.1.6v1.2h-.3zM32 47.8v-3.1h.2v1.8l.5-.9h.3l-.5.8.5 1.4h-.2l-.4-1.2-.1.3v.9H32zM33.9 47h.2c0 .2-.1.4-.2.5s-.2.2-.3.2c-.2 0-.3-.1-.4-.3-.1-.2-.2-.5-.2-.9s.1-.7.2-.9c.1-.2.2-.3.4-.3s.3.1.4.3c.1.2.2.5.2.9v.1h-.9c0 .3 0 .4.1.6.1.1.2.2.3.2.1 0 .1 0 .2-.1V47zm-.6-.6h.7c0-.2 0-.3-.1-.4-.1-.1-.1-.2-.3-.2-.1 0-.2.1-.2.2-.1 0-.1.2-.1.4zM35.2 47.8v-.3c-.1.2-.2.3-.3.3-.1 0-.2 0-.3-.1-.1-.1-.1-.2-.2-.4 0-.2-.1-.4-.1-.6 0-.2 0-.4.1-.6 0-.2.1-.3.2-.4.1-.1.2-.1.3-.1.1 0 .1 0 .2.1s.1.1.1.2v-1.1h.2v3.1h-.2zm-.7-1.2c0 .3 0 .5.1.7.1.1.1.2.2.2s.2-.1.2-.2c.1-.1.1-.3.1-.6s0-.5-.1-.7c-.1-.1-.1-.2-.2-.2s-.2.1-.2.2-.1.3-.1.6zM35.7 47.8v-.4h.2v.4h-.2zM12.1 54.9v-2.8h-.5v-.4h1.3v.4h-.5v2.8h-.3zM13 54.9v-3.1h.2v1.1c.1-.2.2-.3.4-.3.1 0 .2 0 .2.1.1.1.1.2.1.3v1.9h-.2v-1.4c0-.2 0-.3-.1-.4 0-.1-.1-.1-.2-.1s-.1 0-.2.1-.1.1-.1.2v1.6H13zM15.1 54.7c-.1.1-.1.2-.2.3-.1.1-.1.1-.2.1s-.2-.1-.3-.2c-.1-.1-.1-.3-.1-.5v-.3c0-.1.1-.2.1-.2 0-.1.1-.1.1-.1s.1 0 .2-.1c.2 0 .3-.1.4-.1v-.1c0-.2 0-.3-.1-.3-.1-.1-.1-.1-.2-.1s-.2 0-.2.1-.1.2-.1.3h-.2c0-.2 0-.3.1-.4 0-.1.1-.2.2-.2.1-.1.2-.1.3-.1.1 0 .2 0 .2.1.1 0 .1.1.1.2s.1.2.1.3V55c0 .1 0 .2.1.3h-.2c-.1-.4-.1-.5-.1-.6zm0-.9c-.1.1-.2.1-.3.1-.1 0-.1 0-.2.1l-.1.1v.2c0 .1 0 .2.1.3 0 .1.1.1.2.1s.1 0 .2-.1.1-.2.1-.3v-.5zM15.6 54.9v-2.3h.2v.3c.1-.2.2-.4.4-.4.1 0 .1 0 .2.1s.1.1.1.2.1.2.1.3V54.9h-.2v-1.4-.4c0-.1 0-.1-.1-.2l-.1-.1c-.1 0-.2.1-.2.2-.1.1-.1.3-.1.6v1.2h-.3zM16.9 54.9v-3.1h.2v1.8l.5-.9h.3l-.5.8.5 1.4h-.2l-.4-1.2-.1.3v.9h-.3zM18.6 55.8v-.4h.2s0-.1.1-.1c0 0 0-.1.1-.3v-.1l-.5-2.3h.2l.2 1.3c0 .2.1.3.1.5 0-.2.1-.3.1-.5l.3-1.3h.2l-.5 2.3c0 .2-.1.4-.1.5 0 .1-.1.2-.1.3 0 .1-.1.1-.2.1 0 .1 0 .1-.1 0zM19.7 53.8c0-.4.1-.7.2-.9.1-.2.2-.3.4-.3s.3.1.4.3c.1.2.2.5.2.8 0 .3 0 .5-.1.7 0 .2-.1.3-.2.4-.1.1-.2.1-.3.1-.2 0-.3-.1-.4-.3-.1-.1-.2-.4-.2-.8zm.2 0c0 .3 0 .5.1.7.1.1.2.2.3.2s.2-.1.3-.2c.1-.1.1-.4.1-.7 0-.3 0-.5-.1-.6l-.2-.2c-.1 0-.2.1-.3.2-.1.1-.2.3-.2.6zM21.9 54.9v-.3c-.1.3-.2.4-.4.4-.1 0-.1 0-.2-.1s-.1-.1-.1-.2-.1-.2-.1-.3V52.6h.2V54.3c0 .1 0 .2.1.2 0 .1.1.1.2.1s.1 0 .2-.1.1-.1.1-.2v-1.6h.2V55h-.2z"/><path fill="#0ddf00" stroke="#216372" stroke-miterlimit="10" d="M36.5 35.4v-6.9h-12v-10h12v-7.2l17.9 12z"/></svg>