<svg xmlns="http://www.w3.org/2000/svg" width="24" height="24"><path fill="#BBBBBC" stroke="#000" stroke-width=".5" stroke-miterlimit="10" d="M5.559 22.578l2.202-1.058-1.954-1.43z"/><path fill="#C69C6D" stroke="#000" stroke-width=".5" stroke-miterlimit="10" d="M8.898 17.613c-.933-.66-2.292-.986-2.738-1.08l-.353 3.557 1.954 1.43 3.283-1.578c-.288-.458-1.042-1.548-2.146-2.329z"/><path fill="#CA5E5C" stroke="#000" stroke-width=".5" stroke-miterlimit="10" d="M19.459 2.733c-1.251-.875-2.719-1.129-3.168-.487 0 0-.833 1.16-1.659 2.299.047.006 1.583.219 2.779 1.078 1.05.753 1.833 1.985 2.04 2.33l1.641-2.344c.45-.643-.382-2.001-1.633-2.876z"/><path fill="#D8D4D4" stroke="#000" stroke-width=".5" stroke-miterlimit="10" d="M17.411 5.623c-1.196-.858-2.732-1.072-2.779-1.078-.256.353-1.125 1.573-2.158 3.027.048.005 1.74.191 2.937 1.05.987.708 1.734 1.833 1.993 2.253l2.047-2.923c-.207-.345-.99-1.576-2.04-2.329z"/><path fill="#FBCC33" stroke="#000" stroke-width=".5" stroke-miterlimit="10" d="M15.411 8.623c-1.197-.859-2.889-1.045-2.937-1.05-2.029 2.857-4.706 6.636-4.706 6.636L6.35 16.145c.446.094 1.615.809 2.548 1.469 1.104.78 1.812 1.701 2.099 2.158l.24.03c.046-.065 1.432-2.163 1.432-2.163l4.736-6.763c-.259-.42-1.007-1.545-1.994-2.253z"/><linearGradient id="a" gradientUnits="userSpaceOnUse" x1="14.632" y1="4.92" x2="21.216" y2="4.92"><stop offset="0" stop-color="#FFF"/><stop offset="1"/></linearGradient><path opacity=".18" fill="url(#a)" stroke="#000" stroke-width=".5" stroke-miterlimit="10" d="M19.459 2.733c-1.251-.875-2.719-1.129-3.168-.487 0 0-.833 1.16-1.659 2.299.047.006 1.583.219 2.779 1.078 1.05.753 1.833 1.985 2.04 2.33l1.641-2.344c.45-.643-.382-2.001-1.633-2.876z"/><linearGradient id="b" gradientUnits="userSpaceOnUse" x1="12.474" y1="7.71" x2="19.451" y2="7.71"><stop offset="0" stop-color="#FFF"/><stop offset="1"/></linearGradient><path opacity=".38" fill="url(#b)" stroke="#000" stroke-width=".5" stroke-miterlimit="10" d="M17.411 5.623c-1.196-.858-2.732-1.072-2.779-1.078-.256.353-1.125 1.573-2.158 3.027.048.005 1.74.191 2.937 1.05.987.708 1.734 1.833 1.993 2.253l2.047-2.923c-.207-.345-.99-1.576-2.04-2.329z"/><path opacity=".7" fill="#FBCC33" stroke="#000" stroke-width=".5" stroke-miterlimit="10" d="M15.411 8.623c-1.197-.859-2.889-1.045-2.937-1.05-2.029 2.857-4.706 6.636-4.706 6.636L6.35 16.145c.446.094 1.615.809 2.548 1.469 1.104.78 1.812 1.701 2.099 2.158l.24.03c.046-.065 1.432-2.163 1.432-2.163l4.736-6.763c-.259-.42-1.007-1.545-1.994-2.253z"/><path fill="none" stroke="#000" stroke-width=".25" stroke-miterlimit="10" d="M17.674 10.428s-.734-1.589-1.893-2.645c-1.042-.95-2.521-1.378-2.521-1.378l.074-.093s1.261.241 2.387 1.09c1.251.944 2.129 2.458 2.129 2.458l.018-.429s-.742-1.281-1.836-2.221a5.037 5.037 0 00-.292-.237c-1.126-.849-2.166-1.051-2.166-1.051l.689-1.049s1.351.25 2.477 1.1c.1.076.197.155.292.237 1.094.94 1.836 2.221 1.836 2.221l-.078.399s-.817-1.483-2.068-2.428c-1.126-.849-2.518-1.109-2.518-1.109l.057.112s1.479.429 2.521 1.378C17.939 7.839 18.61 9.31 18.61 9.31"/></svg>