<svg width="32" height="32" xmlns="http://www.w3.org/2000/svg"><path fill="none" d="M3.672 5.333H1.895a.36.36 0 00-.355.355v20.477l2.133-7.539V5.333zM22.517 6.4h3.616l-3.972-3.972v3.617a.36.36 0 00.356.355z"/><path fill="none" d="M8.65 11.733h18.489V7.822h-4.622a1.78 1.78 0 01-1.778-1.778V1.422H5.45a.356.356 0 00-.355.355v12.151c.685-1.274 2.116-2.195 3.555-2.195zm0-2.133h14.934v1.422H8.65V9.6z"/><path fill="none" d="M29.272 13.156H8.65c-1.058 0-2.194.859-2.482 1.877L2.19 29.088c-.118.417-.07.797.135 1.068.15.199.381.331.665.389.106.02.215.033.327.033H23.94c1.057 0 2.193-.859 2.481-1.878l3.978-14.055c.119-.417.07-.797-.135-1.068-.205-.272-.557-.421-.992-.421z"/><path fill="#707070" d="M8.65 9.6h14.934v1.422H8.65z"/><path fill="none" d="M8.65 11.733h18.489V7.822h-4.622a1.78 1.78 0 01-1.778-1.778V1.422H5.45a.356.356 0 00-.355.355v12.151c.685-1.274 2.116-2.195 3.555-2.195z"/><path fill="none" d="M22.517 6.4h3.616l-3.972-3.972v3.617a.36.36 0 00.356.355zM29.272 13.156H8.65c-1.058 0-2.194.859-2.482 1.877L2.19 29.088c-.118.417-.07.797.135 1.068.15.199.381.331.665.389.106.02.215.033.327.033H23.94c1.057 0 2.193-.859 2.481-1.878l3.978-14.055c.119-.417.07-.797-.135-1.068-.205-.272-.557-.421-.992-.421z"/><path fill="#7fa9ae" d="M3.672 5.333H1.895a.36.36 0 00-.355.355v20.477l2.133-7.539V5.333z"/><g><path fill="none" d="M3.672 5.333H1.895a.36.36 0 00-.355.355v20.477l2.133-7.539V5.333zM8.65 11.733h18.489V7.822h-4.622a1.78 1.78 0 01-1.778-1.778V1.422H5.45a.356.356 0 00-.355.355v12.151c.685-1.274 2.116-2.195 3.555-2.195z"/><path fill="none" d="M22.517 6.4h3.616l-3.972-3.972v3.617a.36.36 0 00.356.355z"/><path fill="#707070" d="M31.398 12.719c-.475-.626-1.248-.985-2.126-.985h-.712V6.816L21.744 0H5.45a1.78 1.78 0 00-1.778 1.778v2.133H1.895A1.78 1.78 0 00.117 5.689V28.8c0 1.765 1.436 3.2 3.2 3.2H23.94c1.696 0 3.388-1.279 3.851-2.912l3.978-14.055c.237-.844.102-1.688-.371-2.314zM22.161 2.428L26.133 6.4h-3.616a.36.36 0 01-.355-.355V2.428zm-17.066-.65c0-.196.159-.355.355-.355h15.288v4.622c0 .98.799 1.778 1.778 1.778h4.622v3.911H8.65c-1.439 0-2.87.92-3.555 2.195V1.778zM1.539 5.689a.36.36 0 01.355-.355h1.778v13.293l-2.133 7.539V5.689zm28.859 8.957L26.421 28.7c-.288 1.019-1.425 1.878-2.481 1.878H3.317a1.85 1.85 0 01-.327-.033c-.283-.058-.514-.189-.665-.389-.205-.271-.253-.651-.135-1.068l3.978-14.055c.288-1.018 1.425-1.877 2.482-1.877h20.623c.435 0 .786.149.991.421.205.272.254.652.134 1.069z"/><path fill="#daebec" d="M29.272 13.156H8.65c-1.058 0-2.194.859-2.482 1.877L2.19 29.088c-.118.417-.07.797.135 1.068.15.199.381.331.665.389.106.02.215.033.327.033H23.94c1.057 0 2.193-.859 2.481-1.878l3.978-14.055c.119-.417.07-.797-.135-1.068-.205-.272-.557-.421-.992-.421z"/></g></svg>