<svg width="32" height="32" xmlns="http://www.w3.org/2000/svg"><path fill="none" d="M28.8 8.889H3.2a1.78 1.78 0 00-1.778 1.778V25.6c0 .98.797 1.778 1.778 1.778h25.6a1.78 1.78 0 001.778-1.778V10.667A1.78 1.78 0 0028.8 8.889zM12.389 7.467l-.92-2.301c-.11-.274-.507-.543-.803-.543H1.778a.36.36 0 00-.355.355v3.03A3.178 3.178 0 013.2 7.467h9.189z"/><path fill="none" d="M28.8 8.889H3.2a1.78 1.78 0 00-1.778 1.778V25.6c0 .98.797 1.778 1.778 1.778h25.6a1.78 1.78 0 001.778-1.778V10.667A1.78 1.78 0 0028.8 8.889zM12.389 7.467l-.92-2.301c-.11-.274-.507-.543-.803-.543H1.778a.36.36 0 00-.355.355v3.03A3.178 3.178 0 013.2 7.467h9.189z"/><path fill="#707070" d="M28.8 7.467H13.921l-1.132-2.83c-.327-.819-1.24-1.437-2.122-1.437H1.778A1.78 1.78 0 000 4.978V25.6c0 1.765 1.436 3.2 3.2 3.2h25.6c1.765 0 3.2-1.436 3.2-3.2V10.667c0-1.765-1.436-3.2-3.2-3.2zM1.422 4.978a.36.36 0 01.355-.355h8.889c.295 0 .693.27.803.543l.92 2.301H3.2c-.658 0-1.269.2-1.778.541v-3.03zM30.578 25.6a1.78 1.78 0 01-1.778 1.778H3.2A1.78 1.78 0 011.422 25.6V10.667c0-.98.797-1.778 1.778-1.778h25.6c.98 0 1.778.798 1.778 1.778V25.6z"/><path fill="#7fa9ae" d="M1.422 4.978a.36.36 0 01.355-.355h8.889c.295 0 .693.27.803.543l.92 2.301H3.2c-.658 0-1.269.2-1.778.541v-3.03z"/><path fill="#daebec" d="M30.578 25.6a1.78 1.78 0 01-1.778 1.778H3.2A1.78 1.78 0 011.422 25.6V10.667c0-.98.797-1.778 1.778-1.778h25.6c.98 0 1.778.798 1.778 1.778V25.6z"/></svg>