<svg width="32" height="32" xmlns="http://www.w3.org/2000/svg"><path fill="#707070" d="M3.224 30.147h20.773c1.709 0 3.413-1.288 3.88-2.934l4.006-14.158c.241-.85.105-1.7-.371-2.331-.479-.631-1.258-.993-2.143-.993h-2.148V8.299a3.227 3.227 0 00-3.224-3.223H12.519l-.71-1.776c-.33-.825-1.25-1.448-2.139-1.448H1.791A1.794 1.794 0 000 3.644v23.28a3.227 3.227 0 003.224 3.223zm27.144-18.558c.207.273.255.656.136 1.077l-4.006 14.158c-.291 1.024-1.436 1.891-2.501 1.891H3.224c-.113 0-.223-.014-.33-.033-.285-.058-.517-.19-.669-.391-.207-.274-.255-.656-.137-1.077l4.007-14.158c.29-1.025 1.435-1.891 2.5-1.891h20.773c.439 0 .793.15 1 .424zM1.791 3.285H9.67c.298 0 .698.271.809.547l1.07 2.676h12.448c.987 0 1.79.803 1.79 1.791v1.433H8.596c-1.709 0-3.414 1.289-3.879 2.934L1.433 24.27V3.644c0-.195.164-.359.358-.359z"/><path fill="#daebec" d="M26.561 26.915c-.291 1.043-1.436 1.925-2.501 1.925H3.286c-.113 0-.223-.014-.33-.033-.285-.059-.517-.194-.669-.398-.207-.28-.255-.669-.137-1.096l4.007-14.411c.29-1.043 1.435-1.924 2.5-1.924H29.43c.438 0 .792.153.999.432.207.278.255.668.136 1.096l-4.004 14.409"/><path fill="#7fa9bb" d="M1.433 3.644c0-.194.164-.358.358-.358H9.67c.298 0 .698.271.809.547l1.07 2.676h12.448c.987 0 1.79.803 1.79 1.791v1.433H8.596c-1.709 0-3.414 1.289-3.879 2.934L1.433 24.27V3.644z"/></svg>