<svg xmlns="http://www.w3.org/2000/svg" width="24" height="24"><path fill="#FFF" stroke="#575959" stroke-miterlimit="10" d="M.5 6.5h23v14H.5z"/><path fill="#FFF" stroke="#383A3A" stroke-width=".5" stroke-miterlimit="10" d="M8.248 14.928l1.162-1.096 1.488 1.461s.98-.943 1.053-1.066c.073-.121.766.408.944.641.178.232 1.197-.641 1.307-.762s.87-.547.979-.273 1.198 1.766 1.198 1.766M8.248 17.498l.87-.518.945.641 1.524-.32.98.32 1.307-.945.654.945M8.248 15.852l.58.365.871-.365.727.182 1.306-.364.763.882 1.343-.882"/><path fill="none" stroke="#333535" stroke-width=".25" stroke-miterlimit="10" d="M3.331 10.228l.875-.903.282.734.537-.734s.339.452.423.452.621-.452.621-.452l.396.734.593-.734.282.452M3.331 11l.451-.5.367.25.537-.522.282.395.508-.123.395.114.283-.386.649.272.254-.272"/><path fill="#639CE0" d="M19.304 9.566l.068.221-.279.292s-.282.051-.334.051c-.05 0-.075.128-.075.128l-.205.153s.013.142-.025.142-.384.298-.384.298l.064-1.285H19.304z"/><ellipse fill="#FFF" cx="18.259" cy="9.613" rx=".045" ry=".038"/><ellipse fill="#FFF" cx="18.899" cy="9.613" rx=".045" ry=".038"/><ellipse fill="#FFF" cx="18.259" cy="10.162" rx=".045" ry=".038"/><ellipse fill="#FFF" cx="18.42" cy="10.162" rx=".045" ry=".038"/><ellipse fill="#FFF" cx="18.611" cy="10.162" rx=".045" ry=".038"/><ellipse fill="#FFF" cx="18.259" cy="9.725" rx=".045" ry=".037"/><ellipse fill="#FFF" cx="18.899" cy="9.725" rx=".045" ry=".037"/><ellipse fill="#FFF" cx="18.899" cy="10.005" rx=".045" ry=".038"/><ellipse fill="#FFF" cx="18.259" cy="10.005" rx=".045" ry=".038"/><ellipse fill="#FFF" cx="18.259" cy="9.845" rx=".045" ry=".037"/><ellipse fill="#FFF" cx="18.899" cy="9.845" rx=".045" ry=".037"/><ellipse fill="#FFF" cx="19.123" cy="9.613" rx=".045" ry=".038"/><ellipse fill="#FFF" cx="19.123" cy="9.725" rx=".045" ry=".037"/><ellipse fill="#FFF" cx="19.123" cy="10.005" rx=".045" ry=".038"/><ellipse fill="#FFF" cx="19.123" cy="9.845" rx=".045" ry=".037"/><ellipse fill="#FFF" cx="18.453" cy="9.613" rx=".045" ry=".038"/><ellipse fill="#FFF" cx="18.453" cy="9.725" rx=".045" ry=".037"/><ellipse fill="#FFF" cx="18.453" cy="10.005" rx=".045" ry=".038"/><ellipse fill="#FFF" cx="18.453" cy="9.845" rx=".045" ry=".037"/><ellipse fill="#FFF" cx="18.644" cy="9.613" rx=".045" ry=".038"/><ellipse fill="#FFF" cx="18.644" cy="9.725" rx=".045" ry=".037"/><ellipse fill="#FFF" cx="18.644" cy="10.005" rx=".045" ry=".038"/><ellipse fill="#FFF" cx="18.644" cy="9.845" rx=".045" ry=".037"/><ellipse fill="#FFF" cx="18.259" cy="10.52" rx=".045" ry=".038"/><ellipse fill="#FFF" cx="18.259" cy="10.363" rx=".045" ry=".038"/><ellipse fill="#FFF" cx="18.425" cy="10.363" rx=".045" ry=".038"/><path fill="#C1272D" d="M19.065 11.268c.339-.278.694-.526 1.05-.773l-.091.132c.008-.18.028-.357.042-.536l.314.23c-.694.417-1.439.729-2.182 1.049l-.58.25.306-.533.462-.806.037-.064.058-.018 2.022-.634-.051.123-.108-.258.09.041c-.361.082-.714.168-1.067.277a.025.025 0 01-.031-.016c-.004-.013.004-.026.016-.031.34-.142.692-.265 1.041-.378l.059-.019.032.06.132.247.045.084-.096.039-1.966.791.095-.083-.401.837-.274-.283c.709-.387 1.414-.783 2.17-1.073l.401-.154-.087.385c-.039.175-.071.351-.116.524l-.026.104-.064.029c-.396.177-.791.353-1.204.499-.014.004-.028-.002-.033-.016-.005-.008-.002-.019.005-.026z"/><path opacity=".29" fill="none" stroke="#000" stroke-linecap="round" stroke-miterlimit="6" stroke-dasharray="0.5,0.5" d="M17.5 9.5h3v2h-3z"/></svg>