<svg xmlns="http://www.w3.org/2000/svg" width="28" height="28"><g fill="#707070"><path d="M.3 20.766c-.4.4-.4 1.047 0 1.447l3.056 3.056c.05.05.105.095.164.134.01.007.023.012.033.019.046.027.093.054.143.074.02.008.04.012.058.018.044.015.087.03.133.04.03.005.06.006.092.009.035.004.07.01.105.01.033 0 .064-.006.096-.009.034-.003.068-.004.102-.01.042-.009.081-.023.12-.036.024-.008.048-.012.072-.022.043-.018.084-.042.124-.066.017-.01.036-.017.052-.028.058-.038.111-.082.16-.13l3.059-3.06a1.023 1.023 0 10-1.448-1.447L5.107 22.08v-7.764a1.024 1.024 0 00-2.047 0v7.763l-1.313-1.313c-.4-.4-1.048-.4-1.447 0zM27.7 7.234c.4-.4.4-1.047 0-1.447L24.644 2.73a1.055 1.055 0 00-.164-.134c-.01-.007-.023-.012-.033-.019a1.07 1.07 0 00-.143-.074c-.02-.008-.04-.012-.058-.018-.044-.015-.087-.03-.133-.04-.03-.005-.06-.006-.092-.009-.035-.004-.07-.01-.105-.01-.033 0-.064.006-.096.009-.034.003-.068.004-.102.01-.042.009-.081.023-.12.036-.024.008-.048.012-.072.022-.043.018-.084.042-.124.066-.017.01-.036.017-.052.028a1.022 1.022 0 00-.16.13l-3.059 3.06a1.023 1.023 0 101.448 1.447l1.314-1.314v7.764a1.024 1.024 0 002.047 0V5.922l1.313 1.313c.4.4 1.048.4 1.447 0zM8.112 18.015c0-.592.48-1.072 1.072-1.072h9.648a1.072 1.072 0 010 2.144H9.184c-.592 0-1.072-.48-1.072-1.072zM8.112 13.828c0-.592.48-1.072 1.072-1.072h9.648a1.072 1.072 0 010 2.144H9.184c-.592 0-1.072-.48-1.072-1.072zM8.112 9.64c0-.592.48-1.072 1.072-1.072h9.648a1.072 1.072 0 010 2.144H9.184c-.592 0-1.072-.48-1.072-1.072z"/></g></svg>