<svg xmlns="http://www.w3.org/2000/svg" viewBox="-949 951 100 100" width="100" height="100"><switch transform="translate(0 -1)"><g><path d="M-880.2 953.5h-37.7c-15.8 0-28.7 12.8-28.7 28.7v37.7c0 15.8 12.8 28.7 28.7 28.7h37.7c15.8 0 28.7-12.8 28.7-28.7v-37.7c0-15.9-12.8-28.7-28.7-28.7zm20.4 66.3c0 11.2-9.1 20.4-20.4 20.4h-37.7c-8.9 0-16.5-5.7-19.2-13.7l17.3-16.4 13.8 13.2 27.9-32.3 18.2 19.7v9.1zm0-21.2l-18.4-19.9-28.3 32.7-13.2-12.7-18.5 17.5v-34c0-11.2 9.1-20.4 20.4-20.4h37.7c11.2 0 20.4 9.1 20.4 20.4v16.4z"/><circle cx="-919.5" cy="980.7" r="8.4"/></g></switch></svg>