<svg width="24" height="24" xmlns="http://www.w3.org/2000/svg"><path fill="#bf0022" stroke="#5e1010" stroke-linejoin="round" stroke-miterlimit="10" d="M12.718 22.832c-1.496 0-2.712-1.09-2.712-2.429 0-1.341 1.217-2.432 2.712-2.432 1.496 0 2.713 1.091 2.713 2.432 0 1.339-1.217 2.429-2.713 2.429zM11.242 15.5l-.164-.957L9.979 3.314c-.056-.534.093-.988.484-1.45.491-.583 1.333-.937 2.255-.937.871 0 1.735.38 2.255.996.37.439.542.99.484 1.551l-1.101 11.125-.161.901h-2.953z"/><path fill="#bf0022" d="M12.718 22.582c-1.358 0-2.462-.978-2.462-2.179s1.104-2.182 2.462-2.182c1.357 0 2.463.98 2.463 2.182s-1.106 2.179-2.463 2.179zM11.932 15l-.605-.369-1.099-11.284c-.051-.488.096-.903.426-1.292.461-.548 1.252-.863 2.064-.863s1.603.354 2.063.9c.33.392.478.868.427 1.36l-1.101 11.175-.604.373h-1.571z"/></svg>