<svg xmlns="http://www.w3.org/2000/svg" width="24" height="24"><path d="M5.958 12.245l-.023-.044-.016-.052c-.004-.016-.01-.031-.013-.047-.003-.017-.004-.034-.006-.052-.001-.017-.004-.033-.004-.05s.003-.033.004-.05c.002-.017.003-.035.006-.052.003-.016.009-.031.013-.047l.016-.051c.007-.016.015-.03.023-.045.009-.016.016-.032.026-.048.01-.014.022-.028.034-.042.01-.012.017-.025.028-.036L17.188.162a.533.533 0 11.765.743L7.173 12l10.78 11.095a.533.533 0 01-.765.743L6.047 12.372c-.012-.012-.02-.025-.03-.037-.01-.014-.023-.027-.032-.042-.01-.015-.018-.032-.027-.048z" fill="#555"/></svg>