<svg xmlns="http://www.w3.org/2000/svg" width="24" height="24"><g fill="#555"><path d="M20.764 3.506h-4.202l-.838-2.012a2.44 2.44 0 00-.908-1.066A2.44 2.44 0 0013.483 0h-3.236c-.505.003-.954.18-1.334.444a2.356 2.356 0 00-.873 1.102L7.33 3.5l.018.007H3.236a1.079 1.079 0 000 2.157h1.079v16.45c0 .519.214.995.553 1.333.339.34.815.554 1.334.554h11.596c.52 0 .995-.214 1.334-.554.34-.338.554-.814.553-1.334V5.662h1.079a1.079 1.079 0 000-2.156zM9.56 2.099a.767.767 0 01.281-.33.768.768 0 01.406-.151h3.236c.092-.004.278.049.435.157.16.103.28.254.312.34l.579 1.39h-5.76L9.56 2.1zm8.507 20.013a.266.266 0 01-.08.19.266.266 0 01-.19.08H6.203a.266.266 0 01-.19-.08.266.266 0 01-.08-.19V5.662h12.135v16.45z"/><path d="M8.36 20.494a.809.809 0 00.809-.809V8.09a.809.809 0 10-1.618 0v11.595c0 .447.362.81.809.81zM15.37 20.494a.809.809 0 00.81-.809V8.09a.809.809 0 10-1.618 0v11.595c0 .447.362.81.809.81zM11.865 20.494a.809.809 0 00.81-.809V8.09a.809.809 0 10-1.619 0v11.595c0 .447.362.81.81.81z"/></g></svg>