<svg xmlns="http://www.w3.org/2000/svg" width="24" height="24"><path fill="#fff" stroke="#634221" stroke-width="2" d="M1.627 1.424H22.78v20.949H1.627z"/><g stroke-miterlimit="8" fill="none"><path d="M11.38 8.264s1.366 3.886 1.663 7.619c.285 3.583-.499 7.019-.499 7.019" stroke="#000" transform="matrix(.7381 0 0 .6826 2.892 3.88)"/><path d="M11.38 8.264s1.366 3.886 1.663 7.619c.285 3.583-.499 7.019-.499 7.019" stroke="#009245" stroke-width=".25" transform="matrix(.7381 0 0 .6826 2.892 3.88)"/></g><g stroke-miterlimit="10" stroke="#000" stroke-width=".25"><path d="M21.768 19.219c0 .426-1.312 1.569-2.956 2.541-1.992 1.178-4.475 2.107-5.702 1.209-1.043-.76-1.403-.277-1.832-.182-2.858.64-5.337-.372-6.404-1.553a2.565 2.565 0 01-.619-2.25c.053-.004 1.32.388 2.909 1.021 1.801.716 4.017 1.74 5.351 2.843 1.311-.594 3.182-1.798 5.219-2.656 1.31-.552 2.69-.963 4.034-.973z" fill="#009245" transform="matrix(.7381 0 0 .6826 2.892 3.88)"/><path fill="none" d="M5.509 20.102l1.204.465-1.106.16 1.076-.118.893.336.233-.257-.147.235.564.24-.809.189.832-.236 1.173.392-.146-.314.299.453-1.18.094 1.126-.076.825.291 1.133.45M19.637 20.102l-1.204.465 1.105.16-1.077-.118-.891.336-.233-.257.147.235-.564.24.809.189-.832-.236-1.603.665.575-.587-.33.509 1.211.038-1.603.08-.979.508-.93.429" transform="matrix(.7381 0 0 .6826 2.892 3.88)"/></g><g stroke-miterlimit="10" transform="matrix(.7381 0 0 .6826 2.892 3.88)"><path d="M19.343 6.94c-.106-.464-2.262-1.166-5.06.091 2.139-2.036 2.093-4.417 1.676-4.661-.413-.24-2.354.617-3.418 3.516-.015-2.989-1.613-4.441-2.087-4.333-.454.104-1.226 2.153-.031 4.491-1.765-2.008-3.875-2.239-4.167-1.88-.313.387.274 2.45 3.389 3.909-3.564.129-4.938 1.694-4.83 2.172.105.464 2.285 1.225 5.056-.091-2.411 2.455-2.093 4.417-1.675 4.66.414.24 2.441-.526 3.419-3.515-.109 3.079 1.611 4.443 2.084 4.333.454-.105 1.104-1.944.031-4.492 1.522 2.097 3.875 2.24 4.166 1.882.314-.388-.575-2.723-3.389-3.911 3.294.081 4.942-1.693 4.836-2.171z" fill="#fff" stroke="#000" stroke-width=".75"/><path d="M18.206 4.355c-.271-.391-2.533-.24-4.662 1.967 1.228-2.686.299-4.878-.179-4.95-.473-.069-1.956 1.448-1.865 4.535-1.126-2.767-3.15-3.521-3.549-3.244-.382.265-.337 2.454 1.643 4.18-2.385-1.207-4.43-.636-4.567-.195-.147.476 1.165 2.172 4.599 2.368-3.26 1.446-3.953 3.41-3.675 3.813.271.391 2.577.287 4.659-1.966-1.325 3.175-.3 4.878.179 4.949.473.069 2.07-1.397 1.866-4.535 1.044 2.898 3.148 3.524 3.547 3.247.383-.267.302-2.216-1.642-4.181 2.193 1.38 4.43.637 4.566.197.147-.478-1.547-2.313-4.601-2.37 3.088-1.15 3.958-3.41 3.681-3.815z" fill="#fff" stroke="#666" stroke-width=".75"/><ellipse transform="rotate(9.284 11.77 8.501)" cx="11.771" cy="8.502" rx="2.068" ry="1.955" fill="#f7f489" stroke="#ff0"/><path d="M11.363 11.509c-1.673-.274-2.825-1.788-2.565-3.376.259-1.587 1.833-2.656 3.506-2.383 1.676.274 2.827 1.789 2.567 3.375-.259 1.588-1.833 2.658-3.508 2.384zm.883-5.406c-1.427-.233-2.774.71-3.002 2.103-.227 1.394.749 2.717 2.176 2.951 1.429.233 2.777-.71 3.004-2.104.227-1.394-.748-2.717-2.178-2.95z" fill="#ff0" stroke="#000" stroke-width=".25"/></g><path fill="none" stroke="#634200" stroke-width="2" d="M1.497 1.294h21.209v21.412H1.497z"/></svg>