<svg width="92" height="92" xmlns="http://www.w3.org/2000/svg"><path d="M16 2v10.873L83.706 13l-.022 23H90V2H16zm73 33h-4V13h4v22z" fill="#00385f" opacity=".9"/><path d="M17.772 3.5h70.775-70.775z" fill="none" stroke-miterlimit="10" stroke="#fff"/><path d="M11 5v11.334l67.177.431.1 22.235H84V5H11zm72 33h-3V17h3v21z" fill="#00385f" opacity=".95"/><path d="M12.366 6.5h70.775-70.775z" fill="none" stroke-miterlimit="10" stroke="#fff"/><path d="M6 10v33h73V10H6zm72 32H7V22h71v20z" fill="#00385f"/><path d="M6.883 11.5h71.852H6.883z" fill="none" stroke-miterlimit="10" stroke="#fff"/><path fill="#e6e6e6" stroke-miterlimit="10" stroke="#03444f" d="M49.63 69.235l.538 19.265H32.943l.539-19.265-12.919-.127 20.93-25.445 21.055 25.47z"/></svg>