<svg width="24" height="24" xmlns="http://www.w3.org/2000/svg"><path fill="#020202" d="M3.724 22c-.354-1-.58-4.525.017-7.803.067-.367.146-.604.211-.824.296-.993.343-1.531-.348-3.384-.616-1.652.045-3.131.709-4.085 1.611-2.32 4.891-4 7.798-4 2.872 0 6.004 1.535 7.615 3.73.723.983 1.46 2.548.874 4.417-.671 2.136-.691 2.49-.225 3.781.057.158.122.339.194.555 1.006 3 1.083 6.591.719 7.47-.321.046-.61.068-.82.075-.038-.085-.081-.2-.116-.293-.122-.325-.273-.729-.568-1.12-.361-.481-1.135-.696-1.739-.696-.625 0-1.168.228-1.528.641-.305.351-.445.744-.558 1.06-.051.141-.126.354-.174.402-.007.002-.077.022-.219.022a2.627 2.627 0 01-.356-.025 1.215 1.215 0 00-.003-.022c-.064-.411-.215-1.374-1.481-1.74-.277-.079-.766-.22-1.274-.22-.524 0-.952.149-1.273.445-.369.34-.499.766-.604 1.108-.145.474-.145.474-.544.474-.085 0-.177-.005-.276-.015-.098-.047-.205-.249-.275-.384-.221-.42-.556-1.056-1.327-1.373-.458-.189-1.218-.204-1.44-.204-.776 0-1.212.132-1.507.456-.317.35-.371.798-.423 1.232-.011.087-.025.205-.042.31-.051.007-.104-.034-.16-.025-.246.036-.551.035-.792.035h-.065z"/><path d="M12.11 2.907c2.574 0 5.374 1.365 6.81 3.32.852 1.16 1.096 2.345.726 3.524-.703 2.24-.79 2.818-.211 4.419.055.151.117.325.187.532.575 1.714.828 3.688.862 5.092-.627-.716-1.689-.974-2.439-.974-.919 0-1.729.35-2.282.984-.095.108-.178.22-.251.33-.371-.441-.879-.756-1.524-.942-.287-.083-.887-.255-1.536-.255-.976 0-1.6.386-1.951.71a2.761 2.761 0 00-.566.741 3.231 3.231 0 00-1.4-1.119c-.59-.244-1.396-.28-1.823-.28-.714 0-1.615.089-2.248.784a1.494 1.494 0 00-.054.062c-.078-1.495-.021-3.562.315-5.41.056-.306.119-.518.186-.742.372-1.247.372-2.043-.369-4.031-.374-1.001-.175-2.068.592-3.172 1.415-2.037 4.414-3.573 6.976-3.573m0-2C6.894.907.924 5.674 2.666 10.351c.86 2.309.382 2.112.09 3.717-.602 3.307-.459 7.739.208 8.738.151.226.47.294.825.294.521 0 1.117-.146 1.367-.153.755-.021.506-1.518.787-1.827.083-.091.407-.129.767-.129.412 0 .869.05 1.06.129.956.394.759 1.715 1.883 1.827.136.014.261.02.376.02 1.679 0 1.3-1.361 1.826-1.847.146-.135.364-.182.595-.181.375 0 .787.147.997.208 1.461.421-.044 1.853 2.08 1.853h.038c1.402 0 1.149-1.217 1.704-1.854.191-.221.484-.312.774-.312.422 0 .84.158.94.291.518.688.466 1.573 1.124 1.795.026.009.108.014.234.014.281 0 .777-.031 1.34-.128 1.215-.21.963-5.374-.165-8.739-.538-1.604-.706-1.352.036-3.717C23.115 5.374 17.325.907 12.11.907z"/><g stroke-miterlimit="10"><circle fill="#fff" stroke="#000" stroke-width=".75" cx="17.349" cy="8.685" r="3.593"/><path fill="none" stroke="#000" d="M19.95 11.349c0 .734-1.191 1.332-2.662 1.332s-2.662-.597-2.662-1.332c0-.735 1.191-3.305 2.662-3.305s2.662 2.569 2.662 3.305z"/><path fill="none" stroke="#000" stroke-width=".75" d="M18.439 10.59a.937.937 0 01-.941.938.937.937 0 01-.938-.938.938.938 0 111.879 0z"/><path fill="none" stroke="#fcfcfc" stroke-width=".25" d="M18.23 10.575a.72.72 0 01-.705.734c-.389 0-.707-.326-.707-.734s.318-.734.707-.734a.72.72 0 01.705.734z"/></g><g stroke-miterlimit="10"><circle fill="#fff" stroke="#000" stroke-width=".75" cx="9.549" cy="8.685" r="3.594"/><path fill="none" stroke="#000" d="M12.15 11.349c0 .734-1.191 1.331-2.662 1.331s-2.662-.597-2.662-1.331c0-.735 1.191-3.305 2.662-3.305s2.662 2.569 2.662 3.305z"/><path fill="none" stroke="#000" stroke-width=".75" d="M10.639 10.59a.937.937 0 01-.941.938.937.937 0 01-.938-.938.938.938 0 111.879 0z"/><path fill="none" stroke="#fcfcfc" stroke-width=".25" d="M10.43 10.575a.72.72 0 01-.705.734c-.389 0-.707-.326-.707-.734s.318-.734.707-.734a.72.72 0 01.705.734z"/></g></svg>