<svg xmlns="http://www.w3.org/2000/svg" width="24" height="24"><path fill="#CCC" stroke="#605E5E" stroke-miterlimit="10" d="M20.5 21.447c0 .582-.447 1.053-1 1.053h-15c-.552 0-1-.471-1-1.053V3.553c0-.582.448-1.053 1-1.053h15c.553 0 1 .471 1 1.053v17.894z"/><linearGradient id="a" gradientUnits="userSpaceOnUse" x1="12.001" y1="9" x2="12.001" y2="4"><stop offset="0" stop-color="#FFF"/><stop offset=".11" stop-color="#FAFAFA"/><stop offset=".233" stop-color="#EDEDED"/><stop offset=".364" stop-color="#D6D6D6"/><stop offset=".5" stop-color="#B6B6B6"/><stop offset=".64" stop-color="#8D8D8D"/><stop offset=".782" stop-color="#5B5B5B"/><stop offset=".925" stop-color="#222"/><stop offset="1"/></linearGradient><path fill="url(#a)" d="M19 7.75C19 8.44 18.44 9 17.75 9H6.25C5.56 9 5 8.44 5 7.75v-2.5C5 4.56 5.56 4 6.25 4h11.5c.69 0 1.25.56 1.25 1.25v2.5z"/><path fill="#FFF" d="M18 6.738c0 .55-.144.993-.205 1.131S16.861 8 16.312 8H7.266c-.55 0-.995.069-1.133.008C5.995 7.945 6 7.288 6 6.738v-.002c0-.55-.067-1.23-.006-1.368S6.716 5 7.266 5h9.046c.55 0 1.206.168 1.344.229.138.063.344.958.344 1.507v.002z"/><path fill="#E6E6E6" d="M17.312 5c.139 0 .688.598.688.736v2.002c0 .138-.549.262-.688.262H6.266A.273.273 0 016 7.738V5.736C6 5.598 6.126 5 6.266 5H17m.312 0H6.266C5.988 5 6 5.46 6 5.736v2.002c0 .277-.012.262.266.262h11.046c.278 0 .688.015.688-.262V5.736C18 5.46 17.59 5 17.312 5z"/><path fill="red" d="M6.5 13.375A.375.375 0 016.125 13v-1c0-.207.168-.375.375-.375h1c.207 0 .375.168.375.375v1a.375.375 0 01-.375.375h-1z"/><path fill="red" d="M7.5 11.75a.25.25 0 01.25.25v1a.25.25 0 01-.25.25h-1a.25.25 0 01-.25-.25v-1a.25.25 0 01.25-.25h1m0-.25h-1c-.275 0-.5.225-.5.5v1c0 .275.225.5.5.5h1c.275 0 .5-.225.5-.5v-1c0-.275-.225-.5-.5-.5z"/><path d="M7.5 11.75a.25.25 0 01.25.25v1a.25.25 0 01-.25.25h-1a.25.25 0 01-.25-.25v-1a.25.25 0 01.25-.25h1m0-.25h-1c-.275 0-.5.225-.5.5v1c0 .275.225.5.5.5h1c.275 0 .5-.225.5-.5v-1c0-.275-.225-.5-.5-.5z" opacity=".96"/><linearGradient id="b" gradientUnits="userSpaceOnUse" x1="6" y1="13.199" x2="8" y2="13.199"><stop offset="0" stop-color="#231f20" stop-opacity="0"/><stop offset=".5" stop-color="#231F20"/><stop offset="1" stop-color="#231f20" stop-opacity="0"/></linearGradient><path fill="url(#b)" d="M7.5 13.398h-1a.501.501 0 01-.5-.5V13c0 .275.225.5.5.5h1c.275 0 .5-.225.5-.5v-.102a.5.5 0 01-.5.5z"/><linearGradient id="c" gradientUnits="userSpaceOnUse" x1="6.424" y1="11.371" x2="7.577" y2="12.524"><stop offset=".012" stop-color="#fff" stop-opacity="0"/><stop offset=".5" stop-color="#FFF"/><stop offset="1" stop-color="#fff" stop-opacity="0"/></linearGradient><path fill="url(#c)" d="M7.5 11.5h-1c-.275 0-.5.225-.5.5v.1c0-.274.225-.5.5-.5h1c.275 0 .5.226.5.5V12c0-.275-.225-.5-.5-.5z"/><path fill="#4D4D4D" d="M9.5 13.375A.375.375 0 019.125 13v-1c0-.207.168-.375.375-.375h1c.207 0 .375.168.375.375v1a.375.375 0 01-.375.375h-1z"/><path fill="#4D4D4D" d="M10.5 11.75a.25.25 0 01.25.25v1a.25.25 0 01-.25.25h-1a.25.25 0 01-.25-.25v-1a.25.25 0 01.25-.25h1m0-.25h-1c-.275 0-.5.225-.5.5v1c0 .275.225.5.5.5h1c.275 0 .5-.225.5-.5v-1c0-.275-.225-.5-.5-.5z"/><path d="M10.5 11.75a.25.25 0 01.25.25v1a.25.25 0 01-.25.25h-1a.25.25 0 01-.25-.25v-1a.25.25 0 01.25-.25h1m0-.25h-1c-.275 0-.5.225-.5.5v1c0 .275.225.5.5.5h1c.275 0 .5-.225.5-.5v-1c0-.275-.225-.5-.5-.5z" opacity=".96"/><linearGradient id="d" gradientUnits="userSpaceOnUse" x1="9" y1="13.199" x2="11" y2="13.199"><stop offset="0" stop-color="#231f20" stop-opacity="0"/><stop offset=".5" stop-color="#231F20"/><stop offset="1" stop-color="#231f20" stop-opacity="0"/></linearGradient><path fill="url(#d)" d="M10.5 13.398h-1a.501.501 0 01-.5-.5V13c0 .275.225.5.5.5h1c.275 0 .5-.225.5-.5v-.102a.5.5 0 01-.5.5z"/><linearGradient id="e" gradientUnits="userSpaceOnUse" x1="9.424" y1="11.371" x2="10.577" y2="12.524"><stop offset=".012" stop-color="#fff" stop-opacity="0"/><stop offset=".5" stop-color="#FFF"/><stop offset="1" stop-color="#fff" stop-opacity="0"/></linearGradient><path fill="url(#e)" d="M10.5 11.5h-1c-.275 0-.5.225-.5.5v.1c0-.274.225-.5.5-.5h1c.275 0 .5.226.5.5V12c0-.275-.225-.5-.5-.5z"/><g><path fill="#4D4D4D" d="M12.5 13.375a.375.375 0 01-.375-.375v-1c0-.207.168-.375.375-.375h1c.207 0 .375.168.375.375v1a.375.375 0 01-.375.375h-1z"/><path fill="#4D4D4D" d="M13.5 11.75a.25.25 0 01.25.25v1a.25.25 0 01-.25.25h-1a.25.25 0 01-.25-.25v-1a.25.25 0 01.25-.25h1m0-.25h-1c-.275 0-.5.225-.5.5v1c0 .275.225.5.5.5h1c.275 0 .5-.225.5-.5v-1c0-.275-.225-.5-.5-.5z"/><path d="M13.5 11.75a.25.25 0 01.25.25v1a.25.25 0 01-.25.25h-1a.25.25 0 01-.25-.25v-1a.25.25 0 01.25-.25h1m0-.25h-1c-.275 0-.5.225-.5.5v1c0 .275.225.5.5.5h1c.275 0 .5-.225.5-.5v-1c0-.275-.225-.5-.5-.5z" opacity=".96"/><linearGradient id="f" gradientUnits="userSpaceOnUse" x1="12" y1="13.199" x2="14" y2="13.199"><stop offset="0" stop-color="#231f20" stop-opacity="0"/><stop offset=".5" stop-color="#231F20"/><stop offset="1" stop-color="#231f20" stop-opacity="0"/></linearGradient><path fill="url(#f)" d="M13.5 13.398h-1a.501.501 0 01-.5-.5V13c0 .275.225.5.5.5h1c.275 0 .5-.225.5-.5v-.102a.5.5 0 01-.5.5z"/><linearGradient id="g" gradientUnits="userSpaceOnUse" x1="12.424" y1="11.37" x2="13.577" y2="12.523"><stop offset=".012" stop-color="#fff" stop-opacity="0"/><stop offset=".5" stop-color="#FFF"/><stop offset="1" stop-color="#fff" stop-opacity="0"/></linearGradient><path fill="url(#g)" d="M13.5 11.5h-1c-.275 0-.5.225-.5.5v.1c0-.274.225-.5.5-.5h1c.275 0 .5.226.5.5V12c0-.275-.225-.5-.5-.5z"/></g><g><path fill="#4D4D4D" d="M15.5 13.375a.375.375 0 01-.375-.375v-1c0-.207.168-.375.375-.375h1c.207 0 .375.168.375.375v1a.375.375 0 01-.375.375h-1z"/><path fill="#4D4D4D" d="M16.5 11.75a.25.25 0 01.25.25v1a.25.25 0 01-.25.25h-1a.25.25 0 01-.25-.25v-1a.25.25 0 01.25-.25h1m0-.25h-1c-.275 0-.5.225-.5.5v1c0 .275.225.5.5.5h1c.275 0 .5-.225.5-.5v-1c0-.275-.225-.5-.5-.5z"/><path d="M16.5 11.75a.25.25 0 01.25.25v1a.25.25 0 01-.25.25h-1a.25.25 0 01-.25-.25v-1a.25.25 0 01.25-.25h1m0-.25h-1c-.275 0-.5.225-.5.5v1c0 .275.225.5.5.5h1c.275 0 .5-.225.5-.5v-1c0-.275-.225-.5-.5-.5z" opacity=".96"/><linearGradient id="h" gradientUnits="userSpaceOnUse" x1="15" y1="13.199" x2="17" y2="13.199"><stop offset="0" stop-color="#231f20" stop-opacity="0"/><stop offset=".5" stop-color="#231F20"/><stop offset="1" stop-color="#231f20" stop-opacity="0"/></linearGradient><path fill="url(#h)" d="M16.5 13.398h-1a.501.501 0 01-.5-.5V13c0 .275.225.5.5.5h1c.275 0 .5-.225.5-.5v-.102a.5.5 0 01-.5.5z"/><linearGradient id="i" gradientUnits="userSpaceOnUse" x1="15.424" y1="11.371" x2="16.576" y2="12.523"><stop offset=".012" stop-color="#fff" stop-opacity="0"/><stop offset=".5" stop-color="#FFF"/><stop offset="1" stop-color="#fff" stop-opacity="0"/></linearGradient><path fill="url(#i)" d="M16.5 11.5h-1c-.275 0-.5.225-.5.5v.1c0-.274.225-.5.5-.5h1c.275 0 .5.226.5.5V12c0-.275-.225-.5-.5-.5z"/></g><g><path fill="#4D4D4D" d="M9.5 16.634a.375.375 0 01-.375-.375v-1c0-.207.168-.375.375-.375h1c.207 0 .375.168.375.375v1a.375.375 0 01-.375.375h-1z"/><path fill="#4D4D4D" d="M10.5 15.009a.25.25 0 01.25.25v1a.25.25 0 01-.25.25h-1a.25.25 0 01-.25-.25v-1a.25.25 0 01.25-.25h1m0-.25h-1c-.275 0-.5.225-.5.5v1c0 .275.225.5.5.5h1c.275 0 .5-.225.5-.5v-1a.5.5 0 00-.5-.5z"/><path d="M10.5 15.009a.25.25 0 01.25.25v1a.25.25 0 01-.25.25h-1a.25.25 0 01-.25-.25v-1a.25.25 0 01.25-.25h1m0-.25h-1c-.275 0-.5.225-.5.5v1c0 .275.225.5.5.5h1c.275 0 .5-.225.5-.5v-1a.5.5 0 00-.5-.5z" opacity=".96"/><linearGradient id="j" gradientUnits="userSpaceOnUse" x1="9" y1="16.458" x2="11" y2="16.458"><stop offset="0" stop-color="#231f20" stop-opacity="0"/><stop offset=".5" stop-color="#231F20"/><stop offset="1" stop-color="#231f20" stop-opacity="0"/></linearGradient><path fill="url(#j)" d="M10.5 16.657h-1a.501.501 0 01-.5-.5v.102c0 .275.225.5.5.5h1c.275 0 .5-.225.5-.5v-.102a.5.5 0 01-.5.5z"/><linearGradient id="k" gradientUnits="userSpaceOnUse" x1="9.424" y1="14.63" x2="10.577" y2="15.783"><stop offset=".012" stop-color="#fff" stop-opacity="0"/><stop offset=".5" stop-color="#FFF"/><stop offset="1" stop-color="#fff" stop-opacity="0"/></linearGradient><path fill="url(#k)" d="M10.5 14.759h-1c-.275 0-.5.225-.5.5v.1c0-.274.225-.5.5-.5h1c.275 0 .5.226.5.5v-.1a.5.5 0 00-.5-.5z"/></g><g><path fill="#4D4D4D" d="M12.5 16.634a.375.375 0 01-.375-.375v-1c0-.207.168-.375.375-.375h1c.207 0 .375.168.375.375v1a.375.375 0 01-.375.375h-1z"/><path fill="#4D4D4D" d="M13.5 15.009a.25.25 0 01.25.25v1a.25.25 0 01-.25.25h-1a.25.25 0 01-.25-.25v-1a.25.25 0 01.25-.25h1m0-.25h-1c-.275 0-.5.225-.5.5v1c0 .275.225.5.5.5h1c.275 0 .5-.225.5-.5v-1a.5.5 0 00-.5-.5z"/><path d="M13.5 15.009a.25.25 0 01.25.25v1a.25.25 0 01-.25.25h-1a.25.25 0 01-.25-.25v-1a.25.25 0 01.25-.25h1m0-.25h-1c-.275 0-.5.225-.5.5v1c0 .275.225.5.5.5h1c.275 0 .5-.225.5-.5v-1a.5.5 0 00-.5-.5z" opacity=".96"/><linearGradient id="l" gradientUnits="userSpaceOnUse" x1="12" y1="16.458" x2="14" y2="16.458"><stop offset="0" stop-color="#231f20" stop-opacity="0"/><stop offset=".5" stop-color="#231F20"/><stop offset="1" stop-color="#231f20" stop-opacity="0"/></linearGradient><path fill="url(#l)" d="M13.5 16.657h-1a.501.501 0 01-.5-.5v.102c0 .275.225.5.5.5h1c.275 0 .5-.225.5-.5v-.102a.5.5 0 01-.5.5z"/><linearGradient id="m" gradientUnits="userSpaceOnUse" x1="12.424" y1="14.629" x2="13.577" y2="15.782"><stop offset=".012" stop-color="#fff" stop-opacity="0"/><stop offset=".5" stop-color="#FFF"/><stop offset="1" stop-color="#fff" stop-opacity="0"/></linearGradient><path fill="url(#m)" d="M13.5 14.759h-1c-.275 0-.5.225-.5.5v.1c0-.274.225-.5.5-.5h1c.275 0 .5.226.5.5v-.1a.5.5 0 00-.5-.5z"/></g><g><path fill="red" d="M6.5 19.664a.375.375 0 01-.375-.375v-1c0-.207.168-.375.375-.375h1c.207 0 .375.168.375.375v1a.375.375 0 01-.375.375h-1z"/><path fill="red" d="M7.5 18.039a.25.25 0 01.25.25v1a.25.25 0 01-.25.25h-1a.25.25 0 01-.25-.25v-1a.25.25 0 01.25-.25h1m0-.25h-1c-.275 0-.5.225-.5.5v1c0 .275.225.5.5.5h1c.275 0 .5-.225.5-.5v-1c0-.275-.225-.5-.5-.5z"/><path d="M7.5 18.039a.25.25 0 01.25.25v1a.25.25 0 01-.25.25h-1a.25.25 0 01-.25-.25v-1a.25.25 0 01.25-.25h1m0-.25h-1c-.275 0-.5.225-.5.5v1c0 .275.225.5.5.5h1c.275 0 .5-.225.5-.5v-1c0-.275-.225-.5-.5-.5z" opacity=".96"/><linearGradient id="n" gradientUnits="userSpaceOnUse" x1="6" y1="19.488" x2="8" y2="19.488"><stop offset="0" stop-color="#231f20" stop-opacity="0"/><stop offset=".5" stop-color="#231F20"/><stop offset="1" stop-color="#231f20" stop-opacity="0"/></linearGradient><path fill="url(#n)" d="M7.5 19.688h-1a.501.501 0 01-.5-.5v.102c0 .275.225.5.5.5h1c.275 0 .5-.225.5-.5v-.102c0 .275-.225.5-.5.5z"/><linearGradient id="o" gradientUnits="userSpaceOnUse" x1="6.424" y1="17.66" x2="7.577" y2="18.813"><stop offset=".012" stop-color="#fff" stop-opacity="0"/><stop offset=".5" stop-color="#FFF"/><stop offset="1" stop-color="#fff" stop-opacity="0"/></linearGradient><path fill="url(#o)" d="M7.5 17.789h-1c-.275 0-.5.225-.5.5v.1c0-.274.225-.5.5-.5h1c.275 0 .5.226.5.5v-.1c0-.275-.225-.5-.5-.5z"/></g><g><path fill="#4D4D4D" d="M9.5 19.664a.375.375 0 01-.375-.375v-1c0-.207.168-.375.375-.375h1c.207 0 .375.168.375.375v1a.375.375 0 01-.375.375h-1z"/><path fill="#4D4D4D" d="M10.5 18.039a.25.25 0 01.25.25v1a.25.25 0 01-.25.25h-1a.25.25 0 01-.25-.25v-1a.25.25 0 01.25-.25h1m0-.25h-1c-.275 0-.5.225-.5.5v1c0 .275.225.5.5.5h1c.275 0 .5-.225.5-.5v-1c0-.275-.225-.5-.5-.5z"/><path d="M10.5 18.039a.25.25 0 01.25.25v1a.25.25 0 01-.25.25h-1a.25.25 0 01-.25-.25v-1a.25.25 0 01.25-.25h1m0-.25h-1c-.275 0-.5.225-.5.5v1c0 .275.225.5.5.5h1c.275 0 .5-.225.5-.5v-1c0-.275-.225-.5-.5-.5z" opacity=".96"/><linearGradient id="p" gradientUnits="userSpaceOnUse" x1="9" y1="19.488" x2="11" y2="19.488"><stop offset="0" stop-color="#231f20" stop-opacity="0"/><stop offset=".5" stop-color="#231F20"/><stop offset="1" stop-color="#231f20" stop-opacity="0"/></linearGradient><path fill="url(#p)" d="M10.5 19.688h-1a.501.501 0 01-.5-.5v.102c0 .275.225.5.5.5h1c.275 0 .5-.225.5-.5v-.102c0 .275-.225.5-.5.5z"/><linearGradient id="q" gradientUnits="userSpaceOnUse" x1="9.424" y1="17.659" x2="10.577" y2="18.812"><stop offset=".012" stop-color="#fff" stop-opacity="0"/><stop offset=".5" stop-color="#FFF"/><stop offset="1" stop-color="#fff" stop-opacity="0"/></linearGradient><path fill="url(#q)" d="M10.5 17.789h-1c-.275 0-.5.225-.5.5v.1c0-.274.225-.5.5-.5h1c.275 0 .5.226.5.5v-.1c0-.275-.225-.5-.5-.5z"/></g><g><path fill="#4D4D4D" d="M12.5 19.664a.375.375 0 01-.375-.375v-1c0-.207.168-.375.375-.375h1c.207 0 .375.168.375.375v1a.375.375 0 01-.375.375h-1z"/><path fill="#4D4D4D" d="M13.5 18.039a.25.25 0 01.25.25v1a.25.25 0 01-.25.25h-1a.25.25 0 01-.25-.25v-1a.25.25 0 01.25-.25h1m0-.25h-1c-.275 0-.5.225-.5.5v1c0 .275.225.5.5.5h1c.275 0 .5-.225.5-.5v-1c0-.275-.225-.5-.5-.5z"/><path d="M13.5 18.039a.25.25 0 01.25.25v1a.25.25 0 01-.25.25h-1a.25.25 0 01-.25-.25v-1a.25.25 0 01.25-.25h1m0-.25h-1c-.275 0-.5.225-.5.5v1c0 .275.225.5.5.5h1c.275 0 .5-.225.5-.5v-1c0-.275-.225-.5-.5-.5z" opacity=".96"/><linearGradient id="r" gradientUnits="userSpaceOnUse" x1="12" y1="19.488" x2="14" y2="19.488"><stop offset="0" stop-color="#231f20" stop-opacity="0"/><stop offset=".5" stop-color="#231F20"/><stop offset="1" stop-color="#231f20" stop-opacity="0"/></linearGradient><path fill="url(#r)" d="M13.5 19.688h-1a.501.501 0 01-.5-.5v.102c0 .275.225.5.5.5h1c.275 0 .5-.225.5-.5v-.102c0 .275-.225.5-.5.5z"/><linearGradient id="s" gradientUnits="userSpaceOnUse" x1="12.424" y1="17.659" x2="13.577" y2="18.812"><stop offset=".012" stop-color="#fff" stop-opacity="0"/><stop offset=".5" stop-color="#FFF"/><stop offset="1" stop-color="#fff" stop-opacity="0"/></linearGradient><path fill="url(#s)" d="M13.5 17.789h-1c-.275 0-.5.225-.5.5v.1c0-.274.225-.5.5-.5h1c.275 0 .5.226.5.5v-.1c0-.275-.225-.5-.5-.5z"/></g><g><path fill="#4D4D4D" d="M6.5 16.634a.375.375 0 01-.375-.375v-1c0-.207.168-.375.375-.375h1c.207 0 .375.168.375.375v1a.375.375 0 01-.375.375h-1z"/><path fill="#4D4D4D" d="M7.5 15.009a.25.25 0 01.25.25v1a.25.25 0 01-.25.25h-1a.25.25 0 01-.25-.25v-1a.25.25 0 01.25-.25h1m0-.25h-1c-.275 0-.5.225-.5.5v1c0 .275.225.5.5.5h1c.275 0 .5-.225.5-.5v-1a.5.5 0 00-.5-.5z"/><path d="M7.5 15.009a.25.25 0 01.25.25v1a.25.25 0 01-.25.25h-1a.25.25 0 01-.25-.25v-1a.25.25 0 01.25-.25h1m0-.25h-1c-.275 0-.5.225-.5.5v1c0 .275.225.5.5.5h1c.275 0 .5-.225.5-.5v-1a.5.5 0 00-.5-.5z" opacity=".96"/><linearGradient id="t" gradientUnits="userSpaceOnUse" x1="6" y1="16.458" x2="8" y2="16.458"><stop offset="0" stop-color="#231f20" stop-opacity="0"/><stop offset=".5" stop-color="#231F20"/><stop offset="1" stop-color="#231f20" stop-opacity="0"/></linearGradient><path fill="url(#t)" d="M7.5 16.657h-1a.501.501 0 01-.5-.5v.102c0 .275.225.5.5.5h1c.275 0 .5-.225.5-.5v-.102a.5.5 0 01-.5.5z"/><linearGradient id="u" gradientUnits="userSpaceOnUse" x1="6.424" y1="14.63" x2="7.577" y2="15.782"><stop offset=".012" stop-color="#fff" stop-opacity="0"/><stop offset=".5" stop-color="#FFF"/><stop offset="1" stop-color="#fff" stop-opacity="0"/></linearGradient><path fill="url(#u)" d="M7.5 14.759h-1c-.275 0-.5.225-.5.5v.1c0-.274.225-.5.5-.5h1c.275 0 .5.226.5.5v-.1a.5.5 0 00-.5-.5z"/></g><g><path fill="#4D4D4D" d="M15.5 20c-.153 0-.5-.604-.5-1.291v-2.5c0-.687.347-1.209.5-1.209h1c.153 0 .5.522.5 1.209v2.5c0 .687-.347 1.291-.5 1.291h-1z"/><path fill="#4D4D4D" d="M16.49 15c.078 0 .51.601.51 1.209v2.5c0 .62-.313.969-.375 1l-1.174.002c-.075-.033-.451-.382-.451-1.002v-2.5c0-.62.438-1.209.5-1.209h.5m.5 0h-1c-.275 0-.5.521-.5 1.209v2.5c0 .688.225 1.291.5 1.291h1c.275 0 .5-.603.5-1.291v-2.5c0-.688-.225-1.209-.5-1.209z"/><path d="M16.49 15c.078 0 .51.601.51 1.209v2.5c0 .62-.313.969-.375 1l-1.174.002c-.075-.033-.451-.382-.451-1.002v-2.5c0-.62.438-1.209.5-1.209h.5m.5 0h-1c-.275 0-.5.521-.5 1.209v2.5c0 .688.225 1.291.5 1.291h1c.275 0 .5-.603.5-1.291v-2.5c0-.688-.225-1.209-.5-1.209z" opacity=".96"/><linearGradient id="v" gradientUnits="userSpaceOnUse" x1="15" y1="19.207" x2="17" y2="19.207"><stop offset="0" stop-color="#231f20" stop-opacity="0"/><stop offset=".5" stop-color="#231F20"/><stop offset="1" stop-color="#231f20" stop-opacity="0"/></linearGradient><path fill="url(#v)" d="M16.5 19.705h-1c-.275 0-.5-.562-.5-1.25v.254c0 .688.225 1.25.5 1.25h1c.275 0 .5-.562.5-1.25v-.254c0 .689-.225 1.25-.5 1.25z"/><linearGradient id="w" gradientUnits="userSpaceOnUse" x1="15.227" y1="15.137" x2="16.774" y2="16.684"><stop offset=".012" stop-color="#fff" stop-opacity="0"/><stop offset=".5" stop-color="#FFF"/><stop offset="1" stop-color="#fff" stop-opacity="0"/></linearGradient><path fill="url(#w)" d="M16.5 14.959h-1c-.275 0-.5.562-.5 1.25v.249c0-.687.225-1.25.5-1.25h1c.275 0 .5.563.5 1.25v-.249c0-.688-.225-1.25-.5-1.25z"/></g></svg>