<svg width="36" height="36" xmlns="http://www.w3.org/2000/svg"><radialGradient id="a" gradientUnits="userSpaceOnUse" gradientTransform="matrix(.9378 0 0 1 .06 0)" cx="19.138" cy="18.406" r="15.095"><stop offset="0" stop-color="#FFF"/><stop offset="1" stop-color="#E6E6E6"/></radialGradient><path fill="url(#a)" stroke="#000" stroke-miterlimit="10" d="M33.096 4.906H3.545c-.542 0-1.045.339-1.045.96v24.818c0 .62.503 1.222 1.045 1.222h28.902c.543 0 1.053-.602 1.053-1.222V5.866c0-.62.139-.96-.404-.96zM9.779 8.313c-.686 0-1.24-.636-1.24-1.42 0-.785.554-1.42 1.24-1.42.685 0 1.24.636 1.24 1.42 0 .784-.555 1.42-1.24 1.42zm16.252 0c-.686 0-1.24-.636-1.24-1.42 0-.785.555-1.42 1.24-1.42s1.239.636 1.239 1.42c.001.784-.553 1.42-1.239 1.42z"/><ellipse fill="#fff" cx="9.779" cy="6.893" rx="1.24" ry="1.42"/><ellipse fill="#fff" cx="26.031" cy="6.893" rx="1.24" ry="1.42"/><linearGradient id="b" gradientUnits="userSpaceOnUse" x1="18.01" y1="12.406" x2="18.01" y2="5.38"><stop offset="0" stop-color="#A60000"/><stop offset="1" stop-color="red"/></linearGradient><path fill="url(#b)" d="M32.686 5.406H3.362c-.538 0-.362-.178-.362.4v6.601h30V5.806c0-.578.225-.4-.314-.4zM9.547 8.084c-.68 0-1.231-.591-1.231-1.322s.551-1.323 1.231-1.323 1.23.592 1.23 1.323-.55 1.322-1.23 1.322zm16.129 0c-.68 0-1.232-.591-1.232-1.322s.553-1.323 1.232-1.323c.679 0 1.229.592 1.229 1.323s-.551 1.322-1.229 1.322z"/><ellipse fill="#fff" stroke="#c1272d" stroke-miterlimit="10" cx="9.106" cy="6.86" rx="1.28" ry="1.234"/><linearGradient id="c" gradientUnits="userSpaceOnUse" x1="8.438" y1="4.273" x2="10.157" y2="4.273"><stop offset=".034" stop-color="#A7A9AC"/><stop offset=".233" stop-color="#B6B8BA"/><stop offset=".382" stop-color="#C4C6C8"/><stop offset=".574" stop-color="#B5B7BA"/><stop offset=".719" stop-color="#A7A9AC"/><stop offset="1" stop-color="#D1D3D4"/><stop offset="1" stop-color="#A7A9AC"/></linearGradient><path fill="url(#c)" stroke="#1a1a1a" stroke-miterlimit="10" stroke-opacity=".82" d="M10.157 5.518c0 .572-.386 1.038-.859 1.038-.474 0-.86-.466-.86-1.038V3.029c0-.571.386-1.038.86-1.038.473 0 .859.466.859 1.038v2.489z"/><ellipse fill="#fff" stroke="#c1272d" stroke-miterlimit="10" cx="25.833" cy="6.86" rx="1.28" ry="1.234"/><linearGradient id="d" gradientUnits="userSpaceOnUse" x1="25.314" y1="4.273" x2="27.03" y2="4.273"><stop offset=".034" stop-color="#A7A9AC"/><stop offset=".233" stop-color="#B6B8BA"/><stop offset=".382" stop-color="#C4C6C8"/><stop offset=".574" stop-color="#B5B7BA"/><stop offset=".719" stop-color="#A7A9AC"/><stop offset="1" stop-color="#D1D3D4"/><stop offset="1" stop-color="#A7A9AC"/></linearGradient><path fill="url(#d)" stroke="#1a1a1a" stroke-miterlimit="10" stroke-opacity=".82" d="M27.03 5.518c0 .572-.386 1.038-.858 1.038s-.857-.466-.857-1.038v-2.49c0-.571.386-1.038.857-1.038.473 0 .858.467.858 1.038v2.49z"/><path fill="#fff" stroke="#333" stroke-miterlimit="10" d="M13.5 14.906h8v5h-8zM21.5 14.906h8v5h-8zM5.5 19.906h8v5h-8z"/><path fill="red" stroke="#333" stroke-miterlimit="10" d="M13.5 19.906h8v5h-8z"/><path fill="#fff" stroke="#333" stroke-miterlimit="10" d="M21.5 19.906h8v5h-8zM5.5 24.906h8v4h-8zM13.5 24.906h8v4h-8z"/></svg>