<svg width="24" height="24" xmlns="http://www.w3.org/2000/svg"><path fill="#fff" d="M5.342 7.505C5.342 3.643 8.526.5 12.438.5s7.095 3.143 7.095 7.005c0 3.861-3.183 7.005-7.095 7.005s-7.096-3.144-7.096-7.005z"/><path d="M12.438 1c3.643 0 6.595 2.912 6.595 6.505s-2.952 6.505-6.595 6.505-6.596-2.912-6.596-6.505S8.795 1 12.438 1m1.173 10.973a6.34 6.34 0 01-3.577-1.124C7.432 9.067 6.559 5.767 7.945 3.285a5.51 5.51 0 00-.286.37c-1.722 2.519-.896 6.084 1.849 7.963a6.362 6.362 0 003.584 1.127c1.785 0 3.482-.791 4.509-2.291.088-.129.167-.264.241-.399-1.041 1.256-2.6 1.918-4.231 1.918M12.438 0C8.25 0 4.842 3.367 4.842 7.505s3.408 7.505 7.596 7.505 7.595-3.367 7.595-7.505C20.032 3.367 16.625 0 12.438 0z"/><path fill="#b3b3b3" d="M9.508 11.59c2.745 1.874 6.367 1.354 8.092-1.162.088-.129.167-.264.241-.399-1.813 2.188-5.205 2.57-7.808.792-2.6-1.782-3.473-5.082-2.088-7.564-.1.119-.193.241-.285.37-1.722 2.519-.896 6.084 1.848 7.963z"/><path fill="#fff" d="M1.375 19.719c.545.485 1.473.546 1.473.546l.402-.451s-.928-.06-1.473-.545c-.503-.449-.626-1.328-.626-1.328l-.403.45s.123.879.627 1.328z"/><path d="M0 19.229s.142.73.666 1.199c.526.47 1.434.676 1.434.676l.748-.839s-.928-.061-1.473-.546c-.504-.449-.627-1.328-.627-1.328L0 19.229zM1.776 19.269c.545.485 1.474.545 1.474.545l5.484-6.383s-.759-.195-1.245-.631c-.558-.499-.854-1.243-.854-1.243L1.151 17.94s.123.879.625 1.329z"/><path fill="#ed1c24" d="M18 13h3v4h3l-4.49 6.886L15.014 17H18z"/></svg>