<svg width="42" height="42" xmlns="http://www.w3.org/2000/svg"><path fill="none" d="M4.5 8h7.6l-.4-2H3.5l-.8 2.3C3.5 8 4.5 8 4.5 8z"/><path fill="#fff" d="M4.6 9s-1.4.3-2 .9c-.3.2-.6.8-.6 1.1v24h37V11.7s-.2-1.3-.8-1.9c-.5-.5-1.7-.8-1.7-.8H4.6z"/><path fill="#0a557f" d="M1 8.7v-.3.3zM39 9.2c-.6-.7-2.5-1.2-2.5-1.2H13.4l-1.1-4H3.1L1.3 9.2c-.1-.2-.3.8-.3.6v-.3V36h39V11.8s0-1.5-1-2.6zM36.5 9s1.2.3 1.7.8c.6.6.8 1.9.8 1.9V35H2V11.7c0-.3.5-1.7.7-1.9.6-.6 1.9-.8 1.9-.8h31.9zm-33-4h8.2l.4 3H4.5s-1 0-1.8.3L3.5 5z"/></svg>