<svg xmlns="http://www.w3.org/2000/svg" width="42" height="42"><path fill="#FFF" d="M4.7 10h6.6l-.4-2H3.8l-.7 2.6c.7-.3 1.6-.6 1.6-.6z"/><path fill="none" d="M10.5 10l-.3-2H3.8l-.6 2.6c.6-.3 1.4-.6 1.4-.6h5.9zM3 34v-.5z"/><path fill="#FFF" d="M30.2 11.8c-.4-.5-1.5-.8-1.5-.8H4.6s-.8.3-1.3.8c-.2.2-.3 1.4-.3 1.7V34h28V13.5s-.3-1.2-.8-1.7z"/><path fill="none" stroke="#0A557F" stroke-width="0" stroke-linecap="round" stroke-linejoin="round" d="M2 11.9v-.3h0"/><path fill="#0A557F" d="M30.9 11.2c-.5-.6-2.2-1.2-2.2-1.2H11.5l-.9-3H3.4l-1.3 4.4c-.1-.1-.1.6-.1.5V35h30V13.6s-.3-1.4-1.1-2.4zM3.8 8h6.4l.3 2H4.6s-.8.3-1.4.6L3.8 8zM3 34V13.5c0-.3.1-1.5.3-1.7.5-.5 1.3-.8 1.3-.8h24.1s1.1.3 1.5.8c.5.5.8 1.7.8 1.7V34H3z"/><path fill="#FFF" stroke="#0A557F" stroke-miterlimit="10" d="M15.2 11.5s-1.3 0-2 .5c-.3.2-.9.5-1 .8l-.2.7-8.9 21h28.5l8.8-21.1s.5-1 .2-1.5c-.2-.4-.9-.5-.9-.5H15.2z"/></svg>