<svg xmlns="http://www.w3.org/2000/svg" width="24" height="24"><linearGradient id="a" gradientUnits="userSpaceOnUse" x1="4" y1="9.5" x2="19.938" y2="9.5"><stop offset="0" stop-color="#BE1349"/><stop offset=".24" stop-color="#BE124E"/><stop offset=".253" stop-color="#BE124E"/><stop offset=".433" stop-color="#F8AEAE"/><stop offset=".472" stop-color="#E7979C"/><stop offset=".563" stop-color="#C66A78"/><stop offset=".654" stop-color="#AA445A"/><stop offset=".743" stop-color="#952643"/><stop offset=".832" stop-color="#851132"/><stop offset=".918" stop-color="#7C0428"/><stop offset="1" stop-color="#790025"/></linearGradient><path fill="url(#a)" stroke="#000" stroke-miterlimit="10" d="M4 16V3s6.643 1.417 6.414 2.464c-.227 1.046 3.066 2.07 3.498 1.628.206-.21 3.518.281 3.543.955.029.74 2.482 1.471 2.482 1.471s-1.838 1.227-2.433.88c-.594-.347-3.601 1.153-3.342 1.523.498.715-3.873 2.429-4.182 1.839C9.673 13.171 4 16 4 16z"/><path d="M3.993 21.5H2.014s-.064-19.558 0-20 1.948-.345 1.979 0c.031.345 0 20 0 20zM14.287 22.734v-9.306h1.879v3.663h3.682v-3.663h1.879v9.306h-1.879v-4.068h-3.682v4.068h-1.879z"/></svg>