<svg xmlns="http://www.w3.org/2000/svg" width="24" height="24"><linearGradient id="a" gradientUnits="userSpaceOnUse" x1="5.5" y1="10" x2="21.438" y2="10"><stop offset="0" stop-color="#D5ECF7"/><stop offset=".313" stop-color="#85FF07"/><stop offset=".551" stop-color="#577A2A"/><stop offset=".794" stop-color="#85FF07"/><stop offset="1" stop-color="#47751A"/></linearGradient><path fill="url(#a)" stroke="#000" stroke-miterlimit="10" d="M5.5 16.5v-13s6.643 1.417 6.414 2.464c-.227 1.046 3.066 2.07 3.498 1.628.206-.21 3.517.281 3.543.955.029.74 2.482 1.471 2.482 1.471s-1.838 1.227-2.432.88-3.6 1.153-3.342 1.523c.498.715-3.873 2.429-4.182 1.839-.308-.589-5.981 2.24-5.981 2.24z"/><path d="M5.493 22H3.514s-.064-19.558 0-20 1.948-.345 1.979 0c.031.345 0 20 0 20zM14.075 14.849h1.655v6.907h3.453v1.176h-5.108v-8.083z"/></svg>