<svg xmlns="http://www.w3.org/2000/svg" width="24" height="24"><linearGradient id="a" gradientUnits="userSpaceOnUse" x1="4" y1="9.5" x2="19.938" y2="9.5"><stop offset="0" stop-color="#FFEC5F"/><stop offset=".273" stop-color="#FCF09A"/><stop offset=".564" stop-color="#DFBA16"/><stop offset=".836" stop-color="#FFF197"/><stop offset="1" stop-color="#C4A513"/></linearGradient><path fill="url(#a)" stroke="#000" stroke-miterlimit="10" d="M4 16V3s6.643 1.417 6.414 2.464c-.227 1.046 3.066 2.07 3.498 1.628.206-.21 3.518.281 3.543.955.029.74 2.482 1.471 2.482 1.471s-1.838 1.227-2.433.88c-.594-.347-3.601 1.153-3.342 1.523.498.715-3.873 2.429-4.182 1.839C9.673 13.171 4 16 4 16z"/><path d="M3.993 21.5H2.014s-.064-19.558 0-20 1.948-.345 1.979 0c.031.345 0 20 0 20zM13.131 23v-9.306h2.813l1.688 6.348 1.669-6.348h2.818V23h-1.745v-7.325L18.527 23h-1.81l-1.841-7.325V23h-1.745z"/></svg>