<svg xmlns="http://www.w3.org/2000/svg" width="24" height="24"><path fill="#9EE28D" stroke="#43A52F" stroke-linecap="round" stroke-linejoin="round" d="M10.5 18.983c-1-.088-.98-.188-1.382-.339-.962-.36-1.722-.831-2.179-1.417-.457-.583-.775-1.331-.899-2.241l-2.654.199a5.544 5.544 0 001.155 3.273c.736.964 1.851 1.688 3.145 2.167.786.293 1.814.485 2.814.6V22.5h2v-1.176c1-.056 2.682-.278 3.729-.691 1.207-.478 2.255-1.144 2.897-2.001.646-.856 1.028-1.77 1.028-2.738 0-.978-.263-1.843-.852-2.591-.585-.751-1.722-1.369-2.953-1.858-.703-.275-2.85-.592-3.85-.945V4.708c1 .117 2.084.384 2.689.812.832.588 1.44 1.458 1.585 2.609l2.745-.174c-.048-1.068-.363-2.025-1.009-2.87-.646-.845-1.794-1.485-2.99-1.919-.837-.305-2.019-.497-3.019-.588V1.5h-2v1.085c-1 .091-1.864.269-2.652.549-1.164.414-2.101 1.021-2.707 1.82-.606.799-.934 1.658-.934 2.578 0 .836.235 1.593.73 2.267.496.675 1.345 1.241 2.354 1.696.639.292 1.208.6 3.208.922v-.021 6.587z"/><path fill="#F4F2F2" stroke="#43A52F" stroke-linecap="round" stroke-linejoin="round" d="M12.5 19.137c1-.05 1.727-.153 2.352-.361.814-.273 1.545-.648 1.944-1.125.398-.476.66-.995.66-1.559 0-.571-.163-1.071-.546-1.499-.386-.425-1.248-.783-2.133-1.073-.375-.126-1.277-.302-2.277-.52V19.137z"/><path fill="#F9F9F9" stroke="#43A52F" stroke-linecap="round" stroke-linejoin="round" d="M10.5 10.207c-1-.302-2.44-.792-2.833-1.124-.024-.021.077-.041.055-.06-.53-.435-.728-1.057-.728-1.711 0-.754.434-1.369 1.208-1.903.529-.366 1.298-.568 2.298-.682v5.48z"/></svg>