<svg width="24" height="24" xmlns="http://www.w3.org/2000/svg"><path fill="#fff" stroke="#000" stroke-miterlimit="10" d="M14.624 21.297V17.54h-3.97v-2.593h3.97v-3.758h2.646v3.758h3.981v2.593H17.27v3.757h-2.646z"/><path fill="#fff" d="M10.389 17.004v-3.759h-3.97v-2.592h3.97V6.896h2.647v3.757h3.98v2.592h-3.98v3.759h-2.647z"/><path fill="none" stroke="#000" stroke-miterlimit="10" d="M10.389 17.004v-3.759h-3.97v-2.592h3.97V6.896h2.647v3.757h3.98v2.592h-3.98v3.759h-2.647z" opacity=".96"/><path fill="#fff" d="M6.448 12.607V8.85h-3.97V6.256h3.97V2.499h2.648v3.757h3.979V8.85H9.097v3.757H6.448z"/><path fill="none" stroke="#000" stroke-miterlimit="10" d="M6.448 12.607V8.85h-3.97V6.256h3.97V2.499h2.648v3.757h3.979V8.85H9.097v3.757H6.448z" opacity=".86"/></svg>