<svg width="42" height="42" xmlns="http://www.w3.org/2000/svg"><path fill="#fff" stroke="#fff" stroke-miterlimit="10" d="M35.5 38l-29-.1V3.5h21v6h8z"/><path fill="#fff" stroke="#333" stroke-miterlimit="10" stroke-width="2" d="M35 39H6V3h22.6L35 9.3V39zM6 39h29V9.9h-7V3H6v36z"/><path fill="#bf0022" d="M7 13h27v22H7z"/><path fill="#fff" stroke="#fff" stroke-miterlimit="10" d="M8 31.3V16.7h3.1c1.2 0 1.9.1 2.3.2.5.2 1 .7 1.4 1.4.4.7.6 1.7.6 2.8 0 .9-.1 1.6-.3 2.3-.2.6-.5 1.1-.8 1.4s-.7.6-1 .7c-.5.1-1.1.2-2 .2H10v5.5H8zm2-12.1v4.1h1.1c.8 0 1.3-.1 1.5-.2.3-.2.5-.4.6-.7s.2-.7.2-1.1c0-.5-.1-1-.3-1.3-.2-.3-.5-.6-.8-.6-.2-.1-.7-.1-1.4-.1H10zM16.9 16.7h3.5c.8 0 1.4.1 1.8.3.6.3 1 .7 1.4 1.3.4.6.7 1.4.9 2.4.2.9.3 2.1.3 3.4 0 1.2-.1 2.2-.3 3.1-.2 1.1-.6 1.9-1 2.6-.3.5-.8.9-1.4 1.2-.4.2-1 .3-1.7.3h-3.6V16.7zm2 2.5v9.7h1.4c.5 0 .9 0 1.2-.1.3-.1.6-.3.8-.6.2-.3.4-.8.5-1.4.1-.7.2-1.5.2-2.7 0-1.1-.1-2-.2-2.6-.1-.6-.3-1.1-.5-1.4-.2-.3-.5-.6-.9-.7-.3-.1-.8-.1-1.6-.1h-.9zM26.6 31.3V16.7h6.6v2.5h-4.6v3.4h4v2.5h-4v6.2h-2z"/></svg>