<svg width="42" height="42" xmlns="http://www.w3.org/2000/svg"><path fill="#fff" stroke="#fff" stroke-miterlimit="10" d="M32.5 39l-29-.1V4.5h21v6h8z"/><path fill="#fff" stroke="#333" stroke-miterlimit="10" stroke-width="2" d="M32 40H3V4h22.6l6.4 6.3V40zM3 40h29V10.9h-7V4H3v36z"/><path fill="gray" d="M6.7 8.8l.1.1c0 .2-.1.4-.2.5-.1.1-.2.2-.3.2-.1 0-.2 0-.3-.1 0-.2 0-.3-.1-.4v-.6c0-.2 0-.4.1-.5 0-.1.1-.3.1-.3.1-.1.2-.1.3-.1.1 0 .2 0 .3.1.1.1.1.2.2.4l-.2.1c0-.2-.1-.3-.1-.3-.1-.1-.1-.1-.2-.1s-.2 0-.2.1c-.1.1-.1.2-.1.3V9c0 .1.1.2.1.2.1.1.1.1.2.1s.2 0 .2-.1c.1-.1.1-.2.1-.4zM7 8.8c0-.3 0-.5.1-.6.1-.1.2-.2.3-.2.1 0 .2.1.3.2.1.1.1.3.1.5v.4c-.2.2-.2.3-.3.4 0 0-.1.1-.2.1s-.2-.1-.3-.2v-.6zm.1 0c0 .2 0 .3.1.4s.1.1.2.1.1 0 .2-.1c0-.1.1-.2.1-.4s0-.3-.1-.4c0-.1-.1-.1-.2-.1s-.1 0-.2.1-.1.2-.1.4zM7.9 9.5V8.1H8v.2c.1-.1.1-.2.3-.2h.1c0 .1.1.1.1.2v1.3h-.1v-.9-.2c0-.1-.1-.1-.1-.2h-.1c-.1 0-.1 0-.1.1-.1.1-.1.2-.1.4v.8h-.1zM8.7 9.6l.1.1v.2l.1.1c.1 0 .1 0 .1-.1.2-.1.2-.2.2-.3v-.3c0 .2-.1.2-.2.2s-.2-.1-.3-.2c-.1-.1-.1-.3-.1-.5v-.4c0-.1.1-.2.1-.3.1-.1.1-.1.2-.1s.2.1.2.2v-.1h.1v1.7c0 .1-.1.2-.1.2-.1.1-.1.1-.2.1s-.2 0-.2-.1v-.4zm.1-.8c0 .2 0 .3.1.4 0 .1.1.1.1.1.1 0 .1 0 .2-.1 0-.1.1-.2.1-.4s0-.3-.1-.4c0-.1-.1-.1-.2-.1s-.1 0-.2.1v.4zM9.6 9.5V8.1h.1v.2c0-.1.1-.2.1-.2h.1s.1 0 .1.1v.2l-.1-.1h-.1s0 .1-.1.1v1.1h-.1zM10.6 9.3c0 .1-.1.1-.1.2h-.1c-.1 0-.2 0-.2-.1s-.1-.2-.1-.3v-.2c0-.1 0-.1.1-.1l.1-.1h.1c.1 0 .2 0 .2-.1v-.1-.2c0-.1-.1-.1-.2-.1s-.1 0-.1.1c0 0-.1.1-.1.2h-.1c0-.1 0-.2.1-.2 0-.1.1-.1.1-.1h.4l.1.1v1.3h-.1c-.1-.1-.1-.2-.1-.3zm0-.5c-.1 0-.1.1-.2.1h-.1l-.1.1V9.3l.1.1c.1 0 .1 0 .1-.1 0 0 .1-.1.1-.2V8.8zM11.3 9.3v.2h-.1-.1s0-.1-.1-.1V8.3h-.1v-.2h.1v-.3l.1-.1v.5h.1v.2h-.1v.9h.2zM11.3 9.1h.1c0 .1 0 .2.1.2 0 .1.1.1.1.1.1 0 .1 0 .1-.1v-.2V9s-.1 0-.1-.1c-.1 0-.2-.1-.2-.1l-.1-.1v-.2-.2c0-.1 0-.1.1-.1l.1-.1H11.8l.1.1v.2h-.1c0-.1 0-.1-.1-.2l-.1-.1c-.1 0-.1 0-.1.1v.2l.1.1s.1 0 .1.1c.1 0 .2.1.2.1l.1.1v.4c0 .1-.1.1-.1.2 0 0-.1.1-.2.1s-.2 0-.2-.1c-.1 0-.2-.1-.2-.3zM12.9 9.3v.2h-.2s0-.1-.1-.1V8.3h-.1v-.2h.1v-.3l.1-.1v.5h.1v.2h-.1v.9h.2zM13 8.8c0-.3 0-.5.1-.6.1-.1.2-.2.3-.2.1 0 .2.1.3.2.1.1.1.3.1.5v.4c0 .1-.1.2-.1.2-.1.1-.1.1-.2.1s-.2-.1-.3-.2c-.2 0-.2-.1-.2-.4zm.1 0c0 .2 0 .3.1.4 0 .1.1.1.2.1s.1 0 .2-.1c0-.1.1-.2.1-.4s0-.3-.1-.4c0-.1-.1-.1-.2-.1s-.1 0-.2.1-.1.2-.1.4zM15 7.6h.1v1.6c0 .1-.1.2-.1.3-.1.1-.1.1-.3.1-.1 0-.2 0-.3-.1-.1-.1-.1-.2-.1-.3V7.6h.1v1.5c0 .1 0 .1.1.2s.1.1.2.1.2 0 .2-.1.1-.2.1-.5V7.6zM15.4 9.5V7.6h.1v1.9h-.1zM15.8 8.9h.1v.2c0 .1.1.1.1.2.1 0 .1.1.2.1h.1l.1-.1v-.2-.2l-.1-.1s-.1-.1-.2-.1-.2-.1-.2-.1c-.1 0-.1-.1-.1-.2v-.2-.3c0-.1.1-.1.1-.2.1 0 .1-.1.2-.1s.2 0 .2.1c.1 0 .1.1.1.2s.1.2.1.3h-.1c0-.1 0-.2-.1-.3 0-.1-.1-.1-.2-.1s-.2 0-.2.1-.1.1-.1.2v.2s.1.1.2.1.2.1.2.1c.1.1.1.1.1.2v.6c0 .1-.1.2-.1.2-.1.1-.1.1-.2.1s-.2 0-.3-.1l-.2-.2c.3-.2.3-.3.3-.4zM17.4 9.5v-.2c-.1.2-.1.2-.3.2H17l-.1-.1v-.2-1.1h.1v1.1c0 .1 0 .1.1.1l.1.1s.1 0 .1-.1l.1-.1V8.1h.1v1.4h-.1zM17.7 10.1v-2h.1v.2c0-.1.1-.1.1-.2L18 8c.1 0 .1 0 .2.1s.1.1.1.3v.8c0 .1 0 .2-.1.3-.1.1-.1.1-.2.1 0 0-.1 0-.1-.1l-.1-.1v.7h-.1zm.1-1.3c0 .2 0 .3.1.4 0 .1.1.1.2.1s.1 0 .2-.1c0-.1.1-.2.1-.4s0-.3-.1-.4c0-.1-.1-.1-.1-.1-.1 0-.1 0-.2.1-.2.1-.2.2-.2.4zM18.6 10.1v-2h.1v.2c0-.1.1-.1.1-.2l.1-.1c.1 0 .1 0 .2.1s.1.1.1.3v.8c0 .1-.1.2-.1.3-.1.1-.1.1-.2.1 0 0-.1 0-.1-.1l-.1-.1v.7h-.1zm.1-1.3c0 .2 0 .3.1.4s.1.1.2.1.1 0 .2-.1c0-.1.1-.2.1-.4s0-.3-.1-.4c0-.1-.1-.1-.1-.1-.1 0-.1 0-.2.1-.2.1-.2.2-.2.4zM19.4 8.8c0-.3 0-.5.1-.6.1-.1.2-.2.3-.2.1 0 .2.1.3.2.1.1.1.3.1.5v.4c0 .1-.1.2-.1.2-.1.1-.1.1-.2.1s-.2-.1-.3-.2c-.2 0-.2-.1-.2-.4zm.1 0c0 .2 0 .3.1.4s.1.1.2.1.1 0 .2-.1c0-.1.1-.2.1-.4s0-.3-.1-.4c0-.1-.1-.1-.2-.1s-.1 0-.2.1-.1.2-.1.4zM20.3 9.5V8.1h.1v.2c0-.1.1-.2.1-.2h.1s.1 0 .1.1v.2l-.1-.1h-.1v1.1h-.2z"/><path fill="gray" d="M21.1 9.3v.2H21h-.1s0-.1-.1-.1V8.3h-.1v-.2h.1v-.3l.1-.1v.5h.1v.2h-.1v.9h.2zM6.3 12.8v-1.7h-.4v-.2h.9v.2h-.4v1.7h-.1zM7.3 12.4h.1c0 .1-.1.3-.1.3-.1.1-.1.1-.2.1s-.2-.1-.3-.2c-.1-.1-.1-.3-.1-.5s0-.4.1-.5c.1-.1.2-.2.3-.2.1 0 .2.1.3.2.1.1.1.3.1.5v.1h-.7c0 .2 0 .3.1.4 0 .1.1.1.2.1 0 0 .1 0 .1-.1s0-.1.1-.2zm-.5-.4h.5v-.3c0-.1-.1-.1-.2-.1s-.1 0-.2.1c0 0-.1.1-.1.3zM8.1 12.6c0 .1-.1.2-.1.2h-.1c-.1 0-.2 0-.2-.1s-.1-.2-.1-.3v-.2c0-.1 0-.1.1-.1l.1-.1h.1c.1 0 .2 0 .2-.1v-.1-.2c0-.1-.1-.1-.2-.1s-.1 0-.1.1c0 0-.1.1-.1.2h-.1c0-.1 0-.2.1-.2 0-.1.1-.1.1-.1h.4l.1.1v1.3h-.2v-.3zm0-.5s-.1.1-.2.1h-.1l-.1.1V12.6l.1.1c.1 0 .1 0 .1-.1 0 0 .1-.1.1-.2V12.1zM8.4 12.8v-1.4h.1v.2c0-.1.1-.1.1-.2l.1-.1c.1 0 .1 0 .1.1 0 0 .1.1.1.2.1-.2.1-.2.2-.2s.1 0 .2.1c0 .1.1.2.1.4v1-.9-.2-.1h-.1c-.1 0-.1 0-.1.1s-.1.2-.1.3v.8h-.2V12v-.2c0-.1-.1-.1-.1-.1s-.1 0-.1.1c0 0-.1.1-.1.2v1h-.2zM10.3 13.3v-.2h.2V13v-.2-.1l-.3-1.4h.1l.2.8c0 .1 0 .2.1.3 0-.1 0-.2.1-.3l.2-.8h.1l-.3 1.4c0 .2-.1.3-.1.3 0 .1-.1.1-.1.2l-.1.1h-.1zM11 12.1c0-.3 0-.5.1-.6.1-.1.2-.2.3-.2.1 0 .2.1.3.2.1.1.1.3.1.5v.4c0 .1-.1.2-.1.2s-.1.1-.2.1-.2-.1-.3-.2c-.2 0-.2-.2-.2-.4zm.1 0c0 .2 0 .3.1.4 0 .1.1.1.2.1s.1 0 .2-.1c0-.1.1-.2.1-.4s0-.3-.1-.4c0-.1-.1-.1-.2-.1s-.1 0-.2.1c0 .1-.1.2-.1.4zM12.4 12.8v-.2c-.1.2-.1.2-.3.2H12l-.1-.1v-.2-1.1h.1v1.1c0 .1 0 .1.1.1l.1.1s.1 0 .1-.1l.1-.1v-1.1h.1v1.4h-.1zM13.7 12.8v-.2c0 .1-.1.2-.2.2s-.1 0-.2-.1-.1-.1-.1-.3V12v-.4c0-.1.1-.2.1-.3.1-.1.1-.1.2-.1 0 0 .1 0 .1.1l.1.1v-.6h.1v1.9h-.1zm-.4-.7c0 .2 0 .3.1.4 0 .1.1.1.2.1s.1 0 .2-.1c0-.1.1-.2.1-.4s0-.3-.1-.4c0-.1-.1-.1-.2-.1s-.1 0-.1.1c-.2 0-.2.2-.2.4zM14 11.1v-.3h.1v.3H14zm0 1.7v-1.4h.1v1.4H14zM14.9 12.8v-.2c-.1.1-.1.2-.2.2s-.1 0-.2-.1-.1-.1-.1-.3V12v-.4c0-.1.1-.2.1-.3.1-.1.1-.1.2-.1 0 0 .1 0 .1.1l.1.1v-.6h.1v1.9h-.1zm-.4-.7c0 .2 0 .3.1.4 0 .1.1.1.2.1s.1 0 .2-.1c0-.1.1-.2.1-.4s0-.3-.1-.4c0-.1-.1-.1-.2-.1s-.1 0-.2.1c-.1 0-.1.2-.1.4zM16.2 12.6c0 .1-.1.1-.1.2H16c-.1 0-.2 0-.2-.1s-.1-.2-.1-.3v-.2c0-.1 0-.1.1-.1l.1-.1h.1c.1 0 .2 0 .2-.1v-.1-.2c0-.1-.1-.1-.2-.1s-.1 0-.1.1c0 0-.1.1-.1.2h-.1c0-.1 0-.2.1-.2 0-.1.1-.1.1-.1h.4c.1 0 .1.1.1.1v1.3h-.1c-.1-.2-.1-.2-.1-.3zm0-.5s-.1.1-.2.1h-.1l-.1.1V12.6l.1.1c.1 0 .1 0 .1-.1 0 0 .1-.1.1-.2V12.1zM16.9 13.2h.2c0 .1 0 .1.1.2 0 .1.1.1.2.1s.1 0 .2-.1c0-.1.1-.1.1-.2v-.4c-.1.1-.2.2-.3.2-.1 0-.2-.1-.3-.2-.1-.2-.1-.4-.1-.6v-.4c0-.1.1-.2.1-.3.1-.1.1-.1.2-.1s.2.1.3.2v-.2h.1v1.9c0 .1-.1.2-.1.3-.1.1-.1.1-.2.1s-.2 0-.3-.1c-.2-.1-.2-.2-.2-.4zm.1-1c0 .2 0 .4.1.5 0 .1.1.1.2.1s.1 0 .2-.1c0-.1.1-.3.1-.5s0-.4-.1-.5c-.1-.1-.1-.2-.2-.2s-.1 0-.2.2c0 .2-.1.3-.1.5zM17.9 13.1v-1.6h.1v.2c0-.1.1-.2.1-.2l.1-.1c.1 0 .1 0 .2.1l-.1.3-.1-.1s-.1 0-.1.1c0 0 0 .1-.1.2v1.2h-.1zM19.2 12.6h.2c0 .2-.1.3-.1.4-.1.1-.2.1-.3.1-.1 0-.2-.1-.3-.2-.1-.1-.1-.4-.1-.6 0-.3 0-.5.1-.6.1-.2.2-.2.3-.2.1 0 .2.1.3.2.1.2.1.4.1.6v.1h-.7c0 .2 0 .3.1.4.1.1.1.1.2.1s.1 0 .1-.1c0 0 .1-.1.1-.2zm-.5-.5h.5c0-.1 0-.2-.1-.3 0-.1-.1-.2-.2-.2s-.1 0-.2.1v.4zM20.2 12.9c-.1.1-.1.2-.2.2s-.1.1-.2.1-.2 0-.2-.1c-.1-.1-.1-.2-.1-.3v-.2c0-.1 0-.1.1-.2l.1-.1h.1c.1 0 .2-.1.3-.1v-.1-.2c0-.1-.1-.1-.2-.1s-.1 0-.2.1c0 0-.1.1-.1.2h-.2c0-.1 0-.2.1-.3 0-.1.1-.1.1-.2.1 0 .1-.1.2-.1h.2c.1 0 .1.1.1.1V13.2h-.2c.3-.2.3-.2.3-.3zm-.1-.6c-.1 0-.1.1-.3.1-.1 0-.1 0-.1.1l-.1.1V12.9l.1.1c.1 0 .1 0 .2-.1 0 0 .1-.1.1-.2v-.4zM20.9 12.8v.2h-.2l-.1-.1v-1.2h-.1v-.2h.1v-.4l.2-.2v.6h.2v.2h-.2V13h.1c-.1-.1 0-.1 0-.2zM21.3 13.7v-.2h.1s.1 0 .1-.1v-2h.2v2.1c0 .1-.1.2-.2.2-.1.1-.1.1-.2 0zm.2-2.5v-.4h.2v.3h-.2zM21.9 12.3c0-.3 0-.5.1-.7.1-.1.2-.2.3-.2.1 0 .2.1.3.2.1.1.1.4.1.6 0 .2 0 .4-.1.5 0 .1-.1.2-.2.3s-.1.1-.2.1-.2-.1-.3-.2v-.6zm.1 0c0 .2 0 .4.1.5.1.1.1.2.2.2s.1-.1.2-.2.1-.3.1-.5 0-.4-.1-.5c-.1-.1-.1-.2-.2-.2s-.1.1-.2.2c0 .1-.1.3-.1.5zM23.1 13.1H23v-2.3h.2v.8c.1-.1.2-.2.3-.2.1 0 .1 0 .2.1.1 0 .1.1.1.2s.1.2.1.3v.3c0 .3 0 .5-.1.7-.1.2-.2.2-.3.2-.1 0-.2-.1-.3-.2v.1zm0-.8v.4c.1.1.1.2.2.2s.1-.1.2-.2.1-.3.1-.5 0-.4-.1-.5c0-.1-.1-.2-.2-.2s-.1.1-.2.2v.6zM6.1 15.9l-.2-1.4H6l.1.8.1.3v-.3l.1-.8h.1l.1.8v.3-.3l.1-.8H7l-.2 1.4h-.2l-.1-.8v-.2L6.3 16h-.2zM7.1 14.2v-.3h.1v.3h-.1zm0 1.7v-1.4h.1v1.4h-.1zM7.7 15.7v.2h-.1-.1s0-.1-.1-.1v-1.1h-.1v-.2h.1v-.3l.1-.1v.5h.1v1.1h.1zM7.9 15.9v-2H8v.7c.1-.1.1-.2.2-.2s.1 0 .2.1c0 0 .1.1.1.2v1.2h-.1V15v-.3c0-.1-.1-.1-.1-.1s-.1 0-.1.1l-.1.1v1.1h-.2zM9.7 15.7c-.1.1-.1.1-.1.2h-.1c-.1 0-.2 0-.2-.1s-.1-.2-.1-.3v-.2c0-.1 0-.1.1-.1l.1-.1h.1c.1 0 .2 0 .2-.1v-.1-.2c0-.1-.1-.1-.2-.1s-.1 0-.1.1c0 0-.1.1-.1.2h-.1c0-.1 0-.2.1-.2 0-.1.1-.1.1-.1h.4l.1.1V16h-.2v-.3zm0-.5s-.1.1-.2.1h-.1l-.1.1V15.7c0 .1.1.1.1.1.1 0 .1 0 .1-.1 0 0 .1-.1.1-.2V15.2zM10 15.9v-2h.1v1.9H10zM10.3 15.9v-2h.1v1.9h-.1zM12 15.8c-.1.1-.1.1-.1.2h-.1c-.1 0-.2 0-.2-.1s-.1-.2-.1-.3v-.2c0-.1 0-.1.1-.1l.1-.1h.1c.1 0 .2 0 .2-.1V15v-.2c0-.1-.1-.1-.2-.1s-.1 0-.1.1c0 0-.1.1-.1.2h-.1c0-.1 0-.2.1-.2 0-.1.1-.1.1-.1h.4l.1.1v1.3h-.1c-.1-.1-.1-.2-.1-.3zm0-.5s-.1.1-.2.1h-.1l-.1.1V15.8l.1.1c.1 0 .1 0 .1-.1 0 0 .1-.1.1-.2V15.3zM12.4 16.6v-2h.1v.2c0-.1.1-.1.1-.2l.1-.1c.1 0 .1 0 .2.1s.1.1.1.3v.8c0 .1-.1.2-.1.3-.1.1-.1.1-.2.1 0 0-.1 0-.1-.1l-.1-.1v.7h-.1zm.1-1.3c0 .2 0 .3.1.4 0 .1.1.1.2.1s.1 0 .2-.1c0-.1.1-.2.1-.4s0-.3-.1-.4c0-.1-.1-.1-.1-.1-.1 0-.1 0-.2.1-.2.1-.2.2-.2.4zM13.2 16.8v-2.2h.1v.2c0-.1.1-.1.1-.2l.1-.1c.1 0 .1 0 .2.1s.1.2.1.3v.8c0 .1-.1.2-.1.3-.1.1-.1.1-.2.1 0 0-.1 0-.1-.1l-.1-.1v.8h-.1zm.2-1.3c0 .2 0 .3.1.4 0 .1.1.1.2.1s.1 0 .2-.1c0-.1.1-.3.1-.5s0-.3-.1-.4c0-.1-.1-.1-.2-.1s-.1.1-.2.2c-.1 0-.1.2-.1.4zM14.2 16.2V14h.2v2.2h-.2zM14.6 14.4v-.3h.2v.3h-.2zm0 1.8v-1.6h.2v1.6h-.2zM15.5 15.7h.1c0 .2-.1.3-.1.4-.1.1-.1.2-.2.2s-.2-.1-.3-.2c-.1-.1-.1-.3-.1-.6v-.4c0-.1.1-.2.1-.3.1-.1.1-.1.2-.1s.2 0 .2.1c.1.1.1.2.1.4h-.1c0-.1 0-.2-.1-.2 0-.1-.1-.1-.1-.1-.1 0-.1 0-.2.1 0 .1-.1.2-.1.5 0 .2 0 .4.1.5 0 .1.1.1.2.1s.1 0 .1-.1c.2-.1.2-.2.2-.3zM16.4 16l-.2.2c-.1 0-.1.1-.2.1s-.2 0-.2-.1c-.1-.1-.1-.2-.1-.3v-.2c0-.1 0-.1.1-.2l.1-.1h.1c.1 0 .2-.1.3-.1v-.1-.2c0-.1-.1-.1-.2-.1s-.1 0-.2.1c0 0-.1.1-.1.2h-.1c0-.1 0-.2.1-.3 0-.1.1-.1.1-.2.1 0 .1-.1.2-.1h.2l.1.1v1.5h-.2c.2 0 .2-.1.2-.2zm0-.6c-.1 0-.1.1-.2.1s-.1 0-.1.1l-.1.1V16l.1.1c.1 0 .1 0 .2-.1 0 0 .1-.1.1-.2v-.4zM17.1 16v.2h-.2l-.1-.1v-1.2h-.1v-.2h.1v-.4l.1-.2v.5h.2v.2h-.2v1.1h.1c0 .1 0 .1.1.1zM17.2 14.4v-.3h.1v.3h-.1zm0 1.8v-1.6h.1v1.6h-.1zM17.5 15.5c0-.3 0-.5.1-.6.1-.1.2-.2.3-.2.1 0 .2.1.3.2.1.1.1.3.1.6 0 .2 0 .4-.1.5 0 .1-.1.2-.1.3-.1.1-.1.1-.2.1s-.2-.1-.3-.2c0-.3-.1-.5-.1-.7zm.2 0c0 .2 0 .3.1.4.1.1.1.1.2.1s.1 0 .2-.1.1-.3.1-.5 0-.3-.1-.4c0-.1-.1-.1-.2-.1s-.1 0-.2.1-.1.3-.1.5zM18.5 16.2v-1.6h.1v.2c.1-.2.2-.3.3-.3.1 0 .1 0 .1.1l.1.1v1.5H19v-.9-.2c0-.1 0-.1-.1-.1h-.1c-.1 0-.1 0-.2.1 0 .1-.1.2-.1.4v.9zM20.3 16v.2h-.2l-.1-.1v-1.2h-.1v-.2h.1v-.4l.1-.2v.5h.2v.2h-.2v1.1h.1c0 .1.1.1.1.1zM20.4 16.2V14h.2v.8c.1-.1.2-.2.3-.2.1 0 .1 0 .2.1 0 0 .1.1.1.2v1.4h-.1v-1-.3c0-.1-.1-.1-.1-.1s-.1 0-.1.1c0 0-.1.1-.1.2v1.2h-.4zM22 16l-.2.2c-.1 0-.1.1-.2.1s-.2 0-.2-.1c-.1-.1-.1-.2-.1-.3v-.2c0-.1 0-.1.1-.2l.1-.1h.1c.1 0 .2-.1.3-.1v-.1-.2c0-.1-.1-.1-.2-.1s-.1 0-.2.1c0 0-.1.1-.1.2h-.1c0-.1 0-.2.1-.3 0-.1.1-.1.1-.2.1 0 .1-.1.2-.1h.2l.1.1v1.5h-.2c.2 0 .2-.1.2-.2zm0-.6c-.1 0-.1.1-.2.1s-.1 0-.1.1l-.1.1V16l.1.1c.1 0 .1 0 .2-.1 0 0 .1-.1.1-.2v-.4zM22.7 16v.2h-.2l-.1-.1v-1.2h-.1v-.2h.1v-.4l.1-.2v.5h.2v.2h-.2v1.1h.1c0 .1 0 .1.1.1zM23.5 16.2l-.3-1.6h.2l.1.9.1.3v-.3l.1-.9h.2l.1.9v.3l.1-.3.2-.9h.1l-.3 1.6h-.2l-.1-.9V15l-.2 1.2h-.1zM25.1 16l-.2.2c-.1 0-.1.1-.2.1s-.2 0-.2-.1c-.1-.1-.1-.2-.1-.3v-.2c0-.1 0-.1.1-.2l.1-.1h.1c.1 0 .2-.1.3-.1v-.1-.2c0-.1-.1-.1-.2-.1s-.1 0-.2.1c0 0-.1.1-.1.2v-.1c0-.1 0-.2.1-.3 0-.1.1-.1.1-.2.1 0 .1-.1.2-.1h.2l.1.1v1.5H25c.1.1.1 0 .1-.1zm0-.6c-.1 0-.1.1-.2.1s-.1 0-.1.1 0 0-.1.1V16l.1.1c.1 0 .1 0 .2-.1 0 0 .1-.1.1-.2v-.4zM25.4 15.8h.1c0 .1 0 .2.1.2 0 .1.1.1.2.1s.1 0 .2-.1c0 0 .1-.1.1-.2v-.1s-.1-.1-.2-.1-.2-.1-.2-.1l-.1-.1v-.2-.2c0-.1 0-.1.1-.1l.1-.1h.1c.1 0 .1 0 .2.1.1 0 .1.1.1.1 0 .1 0 .1.1.2h-.1c0-.1 0-.1-.1-.2l-.1-.1c-.1 0-.1 0-.1.1v.2s0 .1.1.1c0 0 .1 0 .1.1.1 0 .2.1.2.1l.1.1v.4c0 .1-.1.1-.1.2-.1 0-.1.1-.2.1s-.2 0-.3-.1c-.3-.1-.4-.3-.4-.4zM6.5 18.7v.2h-.1-.1s0-.1-.1-.1 0-.1 0-.3v-.8h-.1v-.2h.1v-.3l.1-.1v.5h.1v1.1h.1zM6.6 18.9V17h.1v.7c.1-.1.1-.2.2-.2s.1 0 .2.1c0 0 .1.1.1.2V19h-.1v-.9-.3c0-.1-.1-.1-.1-.1s-.1 0-.1.1l-.1.1V19h-.2zM7.5 18.9v-1.4h.1v.2c0-.1.1-.2.1-.2h.1s.1 0 .1.1v.2l-.1-.1h-.1v1.1h-.2zM7.9 18.2c0-.3 0-.5.1-.6l.2-.2c.1 0 .2.1.3.2.1.1.1.3.1.5v.4c0 .2 0 .3-.1.4-.1.1-.1.1-.2.1s-.2-.1-.3-.2c0-.2-.1-.3-.1-.6zm.2 0c0 .2 0 .3.1.4 0 .1.1.1.2.1s.1 0 .2-.1c0-.1.1-.2.1-.4s0-.3-.1-.4c0-.1-.1-.1-.2-.1s-.1 0-.2.1-.1.3-.1.4zM9 18.9l-.2-1.4h.1l.1.8v0l.1-.8h.1l.1.8v.3-.3l.1-.8h.1l.1 1.4h-.1l-.1-.8v-.2l-.3 1H9zM10 18.9v-1.4h.1v.2c.1-.2.1-.2.3-.2h.1l.1.1v1.3h-.1V18v-.2s0-.1-.1-.1h-.1c-.1 0-.1 0-.1.1s-.1.2-.1.4v.8H10zM11.9 19.2c-.1.1-.1.2-.2.2s-.1.1-.2.1-.2 0-.2-.1c-.1-.1-.1-.2-.1-.4v-.2c0-.1.1-.1.1-.2l.1-.1h.2c.1 0 .2-.1.3-.1v-.1-.3c0-.1-.1-.1-.2-.1s-.1 0-.2.1c0 0-.1.1-.1.3h-.2c0-.1 0-.2.1-.3 0-.1.1-.1.1-.2.1 0 .1-.1.2-.1s.2 0 .2.1c.1 0 .1.1.1.1 0 .1 0 .1.1.2v1.4h-.2c.1-.1.1-.2.1-.3zm0-.9c-.1 0-.2.1-.3.1-.1 0-.1 0-.1.1l-.1.1v.1c0 .1 0 .1.1.2 0 .1.1.1.1.1.1 0 .1 0 .2-.1s.1-.1.1-.2v-.4zM12.7 19.1v.3h-.1c-.1 0-.1 0-.1-.1l-.1-.1v-1.4h-.2v-.2h.1v-.4l.2-.2v.6h.2v.2h-.2v1.3h.1c0 .1.1.1.1 0zM13.7 20.2v-.3h.2s0-.1.1-.1v-.2-.1l-.4-1.8h.2l.2 1c0 .1.1.3.1.4 0-.1 0-.3.1-.4l.2-1h.2l-.4 1.8c0 .2-.1.3-.1.4 0 .1-.1.2-.1.2l-.1.1h-.2zM14.6 18.6c0-.3.1-.6.2-.7.1-.1.2-.2.3-.2.1 0 .2.1.3.2.1.2.1.4.1.7 0 .2 0 .4-.1.5s-.1.2-.2.3c-.1.1-.2.1-.2.1-.1 0-.3-.1-.3-.2 0-.2-.1-.4-.1-.7zm.2 0c0 .2 0 .4.1.5.1.1.1.2.2.2s.2-.1.2-.2c.1-.1.1-.3.1-.5s0-.4-.1-.5c-.1-.1-.1-.2-.2-.2s-.2.1-.2.2c-.1.1-.1.3-.1.5zM16.4 19.5v-.3c-.1.2-.2.3-.3.3-.1 0-.1 0-.2-.1l-.1-.1c0-.1 0-.1-.1-.2V17.7h.2V19c0 .1 0 .1.1.2l.1.1c.1 0 .1 0 .1-.1 0 0 .1-.1.1-.2v-1.2h.2v1.8h-.1zM16.9 19.5v-.3h.2v.3h-.2zM6.2 22.5v-1.7h-.3v-.2h.9v.2h-.4v1.7h-.2zM6.9 22.5v-1.9H7v.7c.1-.1.1-.2.2-.2s.1 0 .2.1c0 0 .1.1.1.2v1.2h-.1v-.9-.3c0-.1-.1-.1-.1-.1s-.1 0-.1.1l-.1.1v1.1h-.2zM7.7 20.8v-.2h.1v.3h-.1zm0 1.7v-1.4h.1v1.4h-.1zM8 22.1h.1c0 .1 0 .2.1.2 0 .1.1.1.1.1.1 0 .1 0 .1-.1v-.2-.1s-.1 0-.1-.1c-.1 0-.2-.1-.2-.1l-.1-.1v-.2-.2c0-.1 0-.1.1-.1 0 0 0-.1.1-.1H8.5l.1.1v.2h-.1c0-.1 0-.1-.1-.2l-.1-.1c-.1 0-.1 0-.1.1v.2l.1.1s.1 0 .1.1c.1 0 .2.1.2.1l.1.1v.4c0 .1-.1.1-.1.2-.1 0-.1.1-.2.1s-.2 0-.2-.1c-.2-.1-.2-.2-.2-.3zM9.2 20.8v-.2h.2v.3h-.2zm0 1.7v-1.4h.2v1.4h-.2zM9.5 22.1h.1c0 .1 0 .2.1.2 0 .1.1.1.1.1s.1 0 .1-.1v-.2-.1s-.1 0-.1-.1c-.1 0-.2-.1-.2-.1l-.1-.1v-.2-.2c0-.1 0-.1.1-.1l.1-.1H10l.1.1v.2H10c0-.1 0-.1-.1-.2l-.1-.1c-.1 0-.1 0-.1.1v.2l.1.1s.1 0 .1.1c.1 0 .2.1.2.1l.1.1v.4c0 .1-.1.1-.1.2 0 0-.1.1-.2.1s-.2 0-.2-.1c-.1-.1-.2-.2-.2-.3zM11.1 22.6v.3h-.2l-.1-.1v-1.3h-.1v-.2h.1v-.4l.2-.2v.6h.2v.2H11v1.3c0 .1 0 0 .1 0v-.2zM11.3 22.9v-2.3h.2v.8c.1-.2.2-.2.3-.2.1 0 .1 0 .2.1s.1.1.1.2V23h-.2v-1.1c0-.1 0-.2-.1-.3 0-.1-.1-.1-.1-.1s-.1 0-.1.1c0 0-.1.1-.1.2V23h-.2zM13 22.3h.2c0 .2-.1.3-.1.4-.1.1-.2.1-.3.1-.1 0-.2-.1-.3-.2-.1-.1-.1-.4-.1-.6 0-.3 0-.5.1-.7.1-.2.2-.2.3-.2.1 0 .2.1.3.2.1.2.1.4.1.6v.1h-.7c0 .2 0 .3.1.4.1.1.1.1.2.1s.1 0 .2-.1c-.1.2 0 .1 0-.1zm-.6-.4h.5c0-.1 0-.2-.1-.3-.1-.1-.1-.2-.2-.2s-.1 0-.2.1c.1.1.1.2 0 .4zM13.9 22.9v-1.5h-.1v-.2h.1V21v-.2c0-.1 0-.1.1-.2 0 0 .1-.1.2-.1h.2v.2h-.1s-.1 0-.1.1v.4h.2v.2h-.2v1.5h-.3zM14.4 20.9v-.3h.2v.3h-.2zm0 2v-1.7h.2v1.7h-.2zM14.8 22.9v-1.7h.1v.2c.1-.2.2-.3.3-.3.1 0 .1 0 .2.1l.1.1c0 .1 0 .1.1.2v1.3h-.2v-1-.3c0-.1 0-.1-.1-.1l-.1-.1c-.1 0-.1 0-.2.1 0 .1-.1.2-.1.4v.9h-.1zM16.4 22.7c-.1.1-.1.2-.2.2s-.1.1-.2.1-.2 0-.2-.1c-.1-.1-.1-.2-.1-.3v-.2c0-.1 0-.1.1-.2l.1-.1h.1c.1 0 .2-.1.3-.1v-.1-.2c0-.1-.1-.1-.2-.1s-.1 0-.2.1c0 0-.1.1-.1.2h-.2c0-.1 0-.2.1-.3 0-.1.1-.1.1-.2.1 0 .1-.1.2-.1h.2c.1 0 .1.1.1.1V23h-.2c.3-.2.3-.2.3-.3zm0-.7c-.1 0-.1.1-.3.1-.1 0-.1 0-.1.1 0 0 0 .1-.1.1v.1c0 .1 0 .1.1.2 0 .1.1.1.1.1.1 0 .1 0 .2-.1 0 0 .1-.1.1-.2V22zM16.8 22.9v-2.3h.2v2.3h-.2zM17.7 22.4h.2c0 .1 0 .2.1.3 0 .1.1.1.2.1s.1 0 .2-.1.1-.1.1-.2v-.2s-.1-.1-.2-.1c-.1-.1-.2-.1-.2-.1s-.1-.1-.1-.2v-.2-.2c0-.1 0-.1.1-.2l.1-.1h.1c.1 0 .1 0 .2.1.1 0 .1.1.1.2s0 .2.1.3h-.2c0-.1 0-.2-.1-.2l-.1-.1c-.1 0-.1 0-.2.1V21.9s0 .1.1.1c0 0 .1 0 .1.1.1.1.2.1.2.1l.1.1v.5c0 .1-.1.1-.1.2s-.1.1-.2.1-.2 0-.3-.1c-.3-.3-.3-.4-.3-.6z"/><path fill="gray" d="M19 22.6v.3h-.2l-.1-.1v-1.3h-.1v-.2h.1v-.4l.2-.2v.6h.2v.2h-.2v1.3c0 .1 0 0 .1 0-.1-.2 0-.2 0-.2z"/><path fill="gray" d="M19.8 22.7c-.1.1-.1.2-.2.2s-.1.1-.2.1-.2 0-.2-.1c-.1-.1-.1-.2-.1-.3v-.2c0-.1 0-.1.1-.2l.1-.1h.1c.1 0 .2-.1.3-.1v-.1-.2c0-.1-.1-.1-.2-.1s-.1 0-.2.1c0 0-.1.1-.1.2H19c0-.1 0-.2.1-.3 0-.1.1-.1.1-.2.1 0 .1-.1.2-.1h.2c.1 0 .1.1.1.1 0 .1 0 .1.1.2V23h-.2c.2-.2.2-.2.2-.3zm0-.7c-.1 0-.1.1-.3.1-.1 0-.1 0-.1.1 0 0 0 .1-.1.1V22.6c0 .1.1.1.1.1.1 0 .1 0 .2-.1 0 0 .1-.1.1-.2V22zM20.5 22.6v.3h-.2l-.1-.1v-1.3h-.1v-.2h.1v-.4l.2-.2v.6h.2v.2h-.2v1.3h.1v-.2zM21.3 22.3h.2c0 .2-.1.3-.1.4-.1.1-.2.1-.3.1-.1 0-.2-.1-.3-.2-.1-.1-.1-.4-.1-.6 0-.3 0-.5.1-.7.1-.2.2-.2.3-.2.1 0 .2.1.3.2.1.2.1.4.1.6v.1h-.7c0 .2 0 .3.1.4.1.1.1.1.2.1s.1 0 .2-.1v-.1zm-.5-.4h.5c0-.1 0-.2-.1-.3-.1-.1-.1-.2-.2-.2s-.1 0-.2.1v.4zM21.7 22.9v-1.7h.1v.2c0-.1.1-.1.1-.2.1 0 .1-.1.2-.1s.1 0 .2.1c0 .1.1.1.1.2.1-.2.2-.3.3-.3.1 0 .2 0 .2.1s.1.2.1.4v1.1h-.2v-1.1-.2s0-.1-.1-.1h-.1c-.1 0-.1 0-.2.1 0 .1-.1.2-.1.4v1h-.2v-1.1-.3c0-.1-.1-.1-.1-.1s-.1 0-.1.1c0 0-.1.1-.1.2v1.3h-.1zM23.9 22.3h.2c0 .2-.1.3-.1.4-.1.1-.2.1-.3.1-.1 0-.3-.1-.3-.2-.1-.1-.1-.4-.1-.6 0-.3 0-.5.1-.7.1-.2.2-.2.3-.2.1 0 .2.1.3.2.1.2.1.4.1.6v.1h-.7c0 .2 0 .3.1.4.1.1.1.1.2.1s.1 0 .2-.1c-.1.2 0 .1 0-.1zm-.5-.4h.5c0-.1 0-.2-.1-.3-.1-.1-.1-.2-.2-.2s-.1 0-.2.1v.4zM24.2 22.9v-1.7h.1v.2c.1-.2.2-.3.3-.3.1 0 .1 0 .2.1l.1.1c0 .1 0 .1.1.2v1.3h-.2v-1-.3c0-.1 0-.1-.1-.1l-.1-.1c-.1 0-.1 0-.2.1s-.1.2-.1.4v.9h-.1zM25.6 22.6v.3h-.2l-.1-.1v-1.3h-.1v-.2h.1v-.4l.2-.2v.6h.2v.2h-.2v1.3h.1v-.2zM26.6 22.6v.3h-.2l-.1-.1v-1.3h-.1v-.2h.1v-.4l.2-.2v.6h.2v.2h-.2v1.3h.1v-.2zM26.8 22.9v-2.3h.2v.8c.1-.2.2-.2.3-.2.1 0 .1 0 .2.1s.1.1.1.2V23h-.2v-1.1-.3c0-.1-.1-.1-.1-.1s-.1 0-.1.1c0 0-.1.1-.1.2V23h-.3zM28.4 22.7c-.1.1-.1.2-.2.2s-.1.1-.2.1-.2 0-.2-.1c-.1-.1-.1-.2-.1-.3v-.2c0-.1 0-.1.1-.2l.1-.1h.1c.1 0 .2-.1.3-.1v-.1-.2c0-.1-.1-.1-.2-.1s-.1 0-.2.1c0 0-.1.1-.1.2h-.2c0-.1 0-.2.1-.3 0-.1.1-.1.1-.2.1 0 .1-.1.2-.1h.2l.1.1c0 .1 0 .1.1.2V23h-.2c.3-.2.2-.2.2-.3zm0-.7c-.1 0-.1.1-.3.1-.1 0-.1 0-.1.1 0 0 0 .1-.1.1v.1c0 .1 0 .1.1.2 0 .1.1.1.1.1.1 0 .1 0 .2-.1 0 0 .1-.1.1-.2V22zM29.2 22.6v.3H29l-.1-.1v-1.3h-.1v-.2h.1v-.4l.2-.2v.6h.2v.2h-.2v1.3h.1c-.1-.2 0-.2 0-.2zM6.1 25.8l-.3-1.4h.1l.1.8v0l.3-.8h.1l.1.8v.3-.3l.1-.8h.1l-.2 1.4-.1-.8v-.2l-.2 1.1h-.1zM7 24.1v-.3h.1v.3H7zm0 1.7v-1.4h.1v1.4H7zM7.4 25.8v-1.9h.1v1.9h-.1zM7.7 25.8v-1.9h.1v1.9h-.1zM8.6 25.8h-.1v-1.9h.1v.7c.1-.1.1-.2.2-.2 0 0 .1 0 .1.1l.1.1c0 .1.1.1.1.2v.3c0 .2 0 .4-.1.6-.1.1-.1.2-.2.2s-.2-.1-.2-.2v.1zm0-.8v.4c0 .1.1.2.2.2s.1 0 .2-.1c0-.1.1-.2.1-.4s0-.3-.1-.4c0-.1-.1-.1-.1-.1-.1 0-.1 0-.2.1-.1 0-.1.2-.1.3zM9.9 25.3h.1c0 .1-.1.3-.1.3-.1.1-.1.1-.2.1s-.2-.1-.3-.2c-.1-.1-.1-.3-.1-.5s0-.4.1-.5c.1-.1.2-.2.3-.2.1 0 .2.1.3.2.1.1.1.3.1.5v.1h-.7c0 .2 0 .3.1.4 0 .1.1.1.2.1 0 0 .1 0 .1-.1 0 0 .1-.1.1-.2zm-.5-.4h.4c0-.1 0-.2-.1-.3 0-.1-.1-.1-.2-.1s-.1 0-.2.1c.2.1.1.2.1.3zM10.6 25.9h.1v.2l.1.1c.1 0 .1 0 .1-.1 0 0 .1-.1.1-.2v-.3c-.1.1-.1.2-.2.2s-.2-.1-.3-.2c-.1-.1-.1-.3-.1-.5v-.4c0-.1.1-.2.1-.3.1-.1.1-.1.2-.1s.2.1.2.2v-.1h.1v1.7c0 .1-.1.2-.1.2-.1.1-.1.1-.2.1s-.2 0-.2-.1c.1-.2.1-.3.1-.4zm.1-.9c0 .2 0 .3.1.4 0 .1.1.1.2.1s.1 0 .2-.1c0-.1.1-.2.1-.4s0-.3-.1-.4c0-.1-.1-.1-.2-.1s-.1 0-.2.1-.1.3-.1.4zM11.4 25.2c0-.3 0-.5.1-.7.1-.1.2-.2.3-.2.1 0 .2.1.3.2.1.1.1.3.1.6 0 .2 0 .4-.1.5 0 .1-.1.2-.2.3-.1.1-.1.1-.2.1s-.2-.1-.3-.2c.1-.1 0-.3 0-.6zm.2 0c0 .2 0 .4.1.5.1.1.1.2.2.2s.1-.1.2-.2.1-.3.1-.5 0-.3-.1-.4c-.1-.1-.1-.2-.2-.2s-.1.1-.2.2-.1.2-.1.4zM12.5 24.1v-.3h.2v.3h-.2zm0 1.9v-1.6h.2V26h-.2zM12.8 26v-1.6h.1v.2c.1-.2.2-.3.3-.3.1 0 .1 0 .2.1l.1.1V26h-.2v-1-.2c0-.1 0-.1-.1-.1h-.1c-.1 0-.1 0-.2.1 0 .1-.1.2-.1.4v.9zM13.8 26.2h.2c0 .1 0 .1.1.2 0 .1.1.1.2.1s.1 0 .2-.1c0 0 .1-.1.1-.2v-.3c-.1.1-.2.2-.3.2-.1 0-.2-.1-.3-.2-.1-.2-.1-.3-.1-.6v-.4c0-.1.1-.2.1-.3.1-.1.1-.1.2-.1s.2.1.3.2v-.2h.1v1.9c0 .1-.1.2-.1.2-.1.1-.1.1-.2.1s-.2 0-.3-.1c-.2-.1-.2-.3-.2-.4zm.1-1c0 .2 0 .4.1.5 0 .1.1.1.2.1s.1 0 .2-.1c0-.1.1-.2.1-.5 0-.2 0-.3-.1-.4 0-.1-.1-.1-.2-.1s-.1.1-.2.1c-.1.1-.1.2-.1.4zM15.2 25.2c0-.3 0-.5.1-.7.1-.1.2-.2.3-.2.1 0 .2.1.3.2.1.1.1.3.1.6 0 .2 0 .4-.1.5 0 .1-.1.2-.2.3-.1.1-.1.1-.2.1s-.2-.1-.3-.2c.1-.1 0-.3 0-.6zm.2 0c0 .2 0 .4.1.5.1.1.1.2.2.2s.1-.1.2-.2c0-.1.1-.3.1-.5s0-.3-.1-.4c-.1-.1-.1-.2-.2-.2s-.1.1-.2.2-.1.2-.1.4zM16.3 26v-1.6h.1v.2c.1-.2.2-.3.3-.3.1 0 .1 0 .1.1l.1.1V26h-.1v-1-.2c0-.1 0-.1-.1-.1h-.1c-.1 0-.1 0-.2.1 0 .1-.1.2-.1.4v.9zM18.1 25.8v.2h-.2l-.1-.1v-1.2h-.1v-.2h.1v-.4l.2-.2v.6h.2v.2H18V25.9h.1c-.1-.1-.1-.1 0-.1z"/><path fill="gray" d="M18.2 26v-2.2h.2v.8c.1-.1.2-.2.3-.2.1 0 .1 0 .2.1 0 .1.1.1.1.2v1.4h-.2v-1-.3c0-.1-.1-.1-.1-.1s-.1 0-.1.1c0 0-.1.1-.1.2v1.2h-.3zM19.2 24.1v-.3h.2v.3h-.2zm0 1.9v-1.6h.2V26h-.2zM19.5 25.6h.2c0 .1 0 .2.1.2 0 .1.1.1.2.1s.1 0 .2-.1c0 0 .1-.1.1-.2v-.1s-.1-.1-.2-.1c-.1-.1-.2-.1-.2-.1s-.1-.1-.1-.2v-.2-.2c0-.1 0-.1.1-.2l.1-.1h.1c.1 0 .1 0 .2.1.1 0 .1.1.1.1 0 .1 0 .1.1.2h-.2c0-.1 0-.1-.1-.2l-.1-.1c-.1 0-.1 0-.2.1v.2s0 .1.1.1c0 0 .1 0 .1.1.1.1.2.1.2.1l.1.1v.5c0 .1-.1.1-.1.2-.1 0-.1.1-.2.1s-.2 0-.3-.1c-.2 0-.3-.2-.3-.3zM20.9 24.1v-.3h.2v.3h-.2zm0 1.9v-1.6h.2V26h-.2zM21.3 26v-1.6h.1v.2c0-.1.1-.1.1-.2 0 0 .1-.1.2-.1s.1 0 .2.1c0 .1.1.1.1.2.1-.2.2-.3.3-.3.1 0 .2 0 .2.1s.1.2.1.4v1.1h-.2v-1-.2s0-.1-.1-.1h-.1c-.1 0-.1 0-.2.1 0 .1-.1.2-.1.4v.9h-.2v-1-.3c0-.1-.1-.1-.1-.1s-.1 0-.1.1c0 0-.1.1-.1.2V26h-.1zM23.4 25.8l-.2.2c-.1 0-.1.1-.2.1s-.2 0-.2-.1c-.1-.1-.1-.2-.1-.3v-.2c0-.1 0-.1.1-.2l.1-.1h.1c.1 0 .2-.1.3-.1V25v-.2c0-.1-.1-.1-.2-.1s-.1 0-.2.1c0 0-.1.1-.1.2h-.1c0-.1 0-.2.1-.3 0-.1.1-.1.1-.2.1 0 .1-.1.2-.1h.2l.1.1V26.1h-.2c.2-.1.2-.2.2-.3zm0-.6c-.1 0-.1.1-.3.1-.1 0-.1 0-.1.1 0 0 0 .1-.1.1V25.8l.1.1c.1 0 .1 0 .2-.1 0 0 .1-.1.1-.2v-.4zM23.7 26.2h.1c0 .1 0 .1.1.2 0 .1.1.1.2.1s.1 0 .2-.1c0 0 .1-.1.1-.2v-.3c-.1.1-.2.2-.3.2-.1 0-.2-.1-.3-.2s-.1-.3-.1-.6v-.4c0-.1.1-.2.1-.3.1-.1.1-.1.2-.1s.2.1.3.2v-.2h.1v1.9c0 .1-.1.2-.1.2-.1.1-.1.1-.2.1s-.2 0-.3-.1c0-.1-.1-.3-.1-.4zm.2-1c0 .2 0 .4.1.5 0 .1.1.1.2.1s.1 0 .2-.1c0-.1.1-.2.1-.5 0-.2 0-.3-.1-.4-.1-.1-.1-.1-.2-.1s-.1.1-.2.1c-.1.1-.1.2-.1.4zM25.4 25.5h.2c0 .2-.1.3-.1.4-.1.1-.2.1-.3.1-.1 0-.2-.1-.3-.2-.1-.1-.1-.3-.1-.6s0-.5.1-.6c.1-.1.2-.2.3-.2.1 0 .2.1.3.2.1.1.1.4.1.6v.1h-.7c0 .2 0 .3.1.4.1.1.1.1.2.1s.1 0 .1-.1c0 0 0-.1.1-.2zm-.5-.4h.5c0-.1 0-.2-.1-.3 0-.1-.1-.2-.2-.2s-.1 0-.2.1v.4zM26.5 25.8v.2h-.2l-.1-.1v-1.2h-.1v-.2h.1v-.4l.2-.2v.6h.2v.2h-.2V25.9h.1v-.1zM26.6 25.2c0-.3 0-.5.1-.7.1-.1.2-.2.3-.2.1 0 .2.1.3.2.1.1.1.3.1.6 0 .2 0 .4-.1.5 0 .1-.1.2-.2.3-.1.1-.1.1-.2.1s-.2-.1-.3-.2c.1-.1 0-.3 0-.6zm.2 0c0 .2 0 .4.1.5.1.1.1.2.2.2s.1-.1.2-.2.1-.3.1-.5 0-.3-.1-.4c-.1-.1-.1-.2-.2-.2s-.1.1-.2.2-.1.2-.1.4zM5.9 29v-1.4H6v.2c0-.1.1-.1.1-.2l.1-.1c.1 0 .1 0 .1.1 0 0 .1.1.1.2.1-.2.1-.2.2-.2s.1 0 .2.1c0 .1.1.2.1.4v.9-.9-.2c-.1 0-.1-.1-.1-.1h-.1c-.1 0-.1 0-.1.1s-.1.2-.1.3v.8h-.1v-.9-.2c0-.1-.1-.1-.1-.1s-.1 0-.1.1c0 0-.1.1-.1.2V29h-.2zM7.7 28.8c-.1.1-.1.1-.1.2h-.1c-.1 0-.2 0-.2-.1s-.1-.2-.1-.3v-.2c0-.1 0-.1.1-.1l.1-.1h.1c.1 0 .2 0 .2-.1V28v-.2c0-.1-.1-.1-.2-.1s-.1 0-.1.1c0 0-.1.1-.1.2h-.1c0-.1 0-.2.1-.2 0-.1.1-.1.1-.1h.4l.1.1V29h-.2v-.2zm0-.5s-.1.1-.2.1h-.1l-.1.1V28.8l.1.1c.1 0 .1 0 .1-.1 0 0 .1-.1.1-.2V28.3zM8.1 29v-1.9h.1v1.1l.3-.6h.2l-.3.5.3.9h-.2l-.3-.7-.1.2v.5zM9.4 28.5h.1c0 .1-.1.3-.1.3-.1.1-.1.1-.2.1s-.2-.1-.3-.2c-.1-.1-.1-.3-.1-.5s0-.4.1-.5c.1-.1.2-.2.3-.2.1 0 .2.1.3.2.1.1.1.3.1.5v.1h-.7c0 .2 0 .3.1.4 0 .1.1.1.2.1 0 0 .1 0 .1-.1 0 0 0-.1.1-.2zm-.5-.3h.4v-.3c0-.1-.1-.1-.2-.1s-.1 0-.2.1v.3zM10.1 27.3V27h.1v.3h-.1zm0 1.7v-1.4h.1V29h-.1zM10.7 28.8v.2h-.1-.1s0-.1-.1-.1v-1.1h-.1v-.2h.1v-.3l.1-.1v.5h.1v1.1h.1zM11.3 29v-1.9h.1V29h-.1zM11.6 28.3c0-.3 0-.5.1-.6.1-.1.2-.2.3-.2.1 0 .2.1.3.2.1.1.1.3.1.5v.4c0 .1-.1.2-.1.2-.1.1-.1.1-.2.1s-.2-.1-.3-.2c-.2 0-.2-.2-.2-.4zm.1 0c0 .2 0 .3.1.4 0 .1.1.1.2.1s.1 0 .2-.1c0-.1.1-.2.1-.4s0-.3-.1-.4c0-.1-.1-.1-.2-.1s-.1 0-.2.1-.1.2-.1.4zM12.4 28.4c0-.3 0-.5.1-.6.1-.1.2-.2.3-.2.1 0 .2.1.3.2.1.1.1.3.1.6v.5c0 .1-.1.2-.1.3-.1.1-.1.1-.2.1s-.2-.1-.3-.2c-.1-.3-.2-.4-.2-.7zm.2 0c0 .2 0 .3.1.4 0 .1.1.1.2.1s.1-.1.2-.1c.1-.1.1-.2.1-.4s0-.3-.1-.4c0-.1-.1-.1-.2-.1s-.1 0-.2.1-.1.2-.1.4zM13.4 29.2v-2.1h.1v1.2l.3-.6h.2l-.3.6.4 1h-.2l-.3-.8-.1.2v.6h-.1zM14.7 29.2v-2.1h.1v2.1h-.1zM15.1 27.4v-.3h.1v.3h-.1zm0 1.8v-1.6h.1v1.5h-.1zM15.4 29.2v-2.1h.1v1.2l.3-.6h.2l-.3.6.4 1h-.2l-.3-.8-.1.2v.6h-.1zM16.9 28.7h.2c0 .2-.1.3-.1.4-.1.1-.1.1-.2.1s-.2-.1-.3-.2c-.1-.1-.1-.3-.1-.6s0-.5.1-.6c.1-.1.2-.2.3-.2.1 0 .2.1.3.2.1.1.1.3.1.6v.1h-.8c0 .2 0 .3.1.4 0 .1.1.1.2.1s.1 0 .1-.1c0 0 0-.1.1-.2zm-.5-.4h.5c0-.1 0-.2-.1-.3 0-.1-.1-.1-.2-.1s-.1 0-.2.1v.3zM18.2 29l-.2.2h-.2c-.1 0-.2 0-.2-.1s-.1-.2-.1-.3v-.2c0-.1 0-.1.1-.1s.1-.1.1-.1h.1c.1 0 .2-.1.3-.1v-.1-.2c0-.1-.1-.1-.2-.1s-.1 0-.1.1c0 0-.1.1-.1.2h-.1c0-.1 0-.2.1-.3 0-.1.1-.1.1-.2.1 0 .1-.1.2-.1h.2l.1.1v1.4h-.2c.1 0 .1-.1.1-.1zm0-.6c-.1 0-.1.1-.2.1s-.1 0-.1.1 0 0-.1.1V29l.1.1c.1 0 .1 0 .1-.1 0 0 .1-.1.1-.2v-.4zM19.3 28.9v.2h-.2s0-.1-.1-.1v-1.2h-.1v-.2h.1v-.4l.1-.2v.5h.1v.2h-.1v1l.2.2zM19.5 29.2v-1.6h.1v.2c0-.1.1-.2.1-.2l.1-.1s.1 0 .2.1v.2l-.1-.1h-.1s0 .1-.1.1v1.1h-.2zM20.6 28.7h.2c0 .2-.1.3-.1.4-.1.1-.1.1-.2.1s-.2-.1-.3-.2c-.1-.1-.1-.3-.1-.6s0-.5.1-.6c.1-.1.2-.2.3-.2.1 0 .2.1.3.2.1.1.1.3.1.6v.1h-.6c0 .2 0 .3.1.4 0 .1.1.1.2.1s.1 0 .1-.1c-.1 0-.1-.1-.1-.2zm-.4-.4h.5c0-.1 0-.2-.1-.3 0-.1-.1-.1-.2-.1s-.1 0-.2.1v.3zM21.6 28.7h.2c0 .2-.1.3-.1.4-.1.1-.1.1-.2.1s-.2-.1-.3-.2c-.1-.1-.1-.3-.1-.6s0-.5.1-.6c.1-.1.2-.2.3-.2.1 0 .2.1.3.2.1.1.1.3.1.6v.1h-.6c0 .2 0 .3.1.4 0 .1.1.1.2.1s.1 0 .1-.1c-.2 0-.2-.1-.1-.2zm-.5-.4h.5c0-.1 0-.2-.1-.3 0-.1-.1-.1-.2-.1s-.1 0-.2.1v.3zM22.9 29.2V29c-.1.1-.1.2-.2.2s-.1 0-.2-.1-.1-.2-.1-.3v-.4-.4c0-.1.1-.2.1-.3.1-.1.1-.1.2-.1s.1 0 .1.1l.1.1v-.7h.1v2.1h-.1zm-.5-.8c0 .2 0 .3.1.4 0 .1.1.1.2.1s.1 0 .2-.1c0-.1.1-.2.1-.4s0-.4-.1-.5c0-.1-.1-.1-.2-.1s-.1 0-.2.1c0 .2-.1.3-.1.5zM23.2 28.4c0-.3 0-.5.1-.6.1-.1.2-.2.3-.2.1 0 .2.1.3.2.1.1.1.3.1.6v.5c0 .1-.1.2-.1.3-.1.1-.1.1-.2.1s-.2-.1-.3-.2c-.2-.3-.2-.4-.2-.7zm.2 0c0 .2 0 .3.1.4 0 .1.1.1.2.1s.1-.1.2-.1c0-.1.1-.2.1-.4s0-.3-.1-.4c0-.1-.1-.1-.2-.1s-.1 0-.2.1-.1.2-.1.4zM24.7 28.6h.1c0 .2-.1.3-.1.4-.1.1-.1.1-.2.1s-.2-.1-.3-.2c-.1-.1-.1-.3-.1-.6v-.4c0-.1.1-.2.1-.3.1-.1.1-.1.2-.1s.2 0 .2.1c.1.1.1.2.1.4h-.1c0-.1 0-.2-.1-.2l-.1-.1c-.1 0-.1 0-.2.1s-.1.2-.1.4 0 .4.1.4c0 .1.1.1.2.1s.1 0 .1-.1c.2.2.2.1.2 0zM25.6 29.2V29c-.1.2-.2.3-.3.3-.1 0-.1 0-.1-.1l-.1-.1v-.2-1.3h.1v1.1c0 .1 0 .1.1.2l.1.1s.1 0 .1-.1c0 0 .1-.1.1-.2v-1.1h.1v1.5h-.1zM25.9 29.2v-1.6h.1v.2c0-.1.1-.1.1-.2 0 0 .1-.1.2-.1s.1 0 .2.1c0 0 .1.1.1.2.1-.2.2-.3.3-.3.1 0 .2 0 .2.1s.1.2.1.4v1h-.1v-1-.2s0-.1-.1-.1h-.1c-.1 0-.1 0-.1.1s-.1.2-.1.3v.9h-.1v-1-.3c0-.1-.1-.1-.1-.1s-.1 0-.1.1c0 0-.1.1-.1.2V29h-.4zM27.9 29.2V29c-.1.2-.2.3-.3.3-.1 0-.1 0-.1-.1l-.1-.1v-.2-1.3h.1v1.1c0 .1 0 .1.1.2l.1.1s.1 0 .1-.1c0 0 .1-.1.1-.2v-1.1h.1v1.5h-.1zM28.2 29.2v-1.6h.1v.2c.1-.2.2-.2.3-.2h.1l.1.1v1.4h-.1v-.9-.2c0-.1 0-.1-.1-.1h-.1c-.1 0-.1 0-.2.1 0 .1-.1.2-.1.4v.8zM29.7 28.7h.1c0 .2-.1.3-.1.4-.1.1-.1.1-.2.1s-.2-.1-.3-.2c-.1-.1-.1-.3-.1-.6s0-.5.1-.6c.1-.1.2-.2.3-.2.1 0 .2.1.3.2.1.1.1.3.1.6v.1h-.6c0 .2 0 .3.1.4 0 .1.1.1.2.1s.1 0 .1-.1v-.2zm-.4-.4h.5c0-.1 0-.2-.1-.3 0-.1-.1-.1-.2-.1s-.1 0-.2.1v.3zM30.4 28.9v.2h-.1-.1s0-.1-.1-.1v-1.2H30v-.2h.1v-.4l.1-.2v.5h.1v.2h-.1v1l.2.2zM6.2 32v.2h-.1H6s0-.1-.1-.1V31h-.1v-.2h.1v-.3l.1-.1v.5h.2v.2h-.1v.9h.1zM6.3 32.2v-1.9h.1v.7c.1-.1.1-.2.2-.2s.1 0 .2.1c0 0 .1.1.1.2v1.2-.9-.3c0-.1-.1-.1-.1-.1s-.1 0-.1.1c-.2 0-.2.1-.2.1v1.1h-.2zM7.7 32.1c0 .1-.1.1-.1.2h-.1c-.1 0-.2 0-.2-.1s-.1-.2-.1-.3v-.2c0-.1 0-.1.1-.1l.1-.1h.1c.1 0 .2 0 .2-.1v-.1-.2c0-.1-.1-.1-.2-.1s-.1 0-.1.1c0 0-.1.1-.1.2h-.1c0-.1 0-.2.1-.2 0-.1.1-.1.1-.1h.4l.1.1v1.3h-.1c-.1-.2-.1-.3-.1-.3zm0-.6s-.1.1-.2.1h-.1l-.1.1v.4l.1.1c.1 0 .1 0 .1-.1 0 0 .1-.1.1-.2v-.4zM8.3 32v.2h-.1-.1s0-.1-.1-.1v-1.3h.1v-.3l.1-.1v.5h.1v.2h-.1v.9h.1zM8.9 32.2v-1.9H9v.7c.1-.1.1-.2.2-.2s.1 0 .2.1c0 0 .1.1.1.2v1.2h-.1v-.9-.3c0-.1-.1-.1-.1-.1s-.1 0-.1.1l-.1.1v1.1h-.2zM10.3 32.1c0 .1-.1.1-.1.2h-.1c-.1 0-.2 0-.2-.1s-.1-.2-.1-.3v-.2c0-.1 0-.1.1-.1l.1-.1h.1c.1 0 .2 0 .2-.1v-.1-.2c0-.1-.1-.1-.2-.1s-.1 0-.1.1c0 0-.1.1-.1.2h-.1c0-.1 0-.2.1-.2 0-.1.1-.1.1-.1h.4l.1.1v1.3h-.1c-.1-.2-.1-.3-.1-.3zm0-.6s-.1.1-.2.1H10l-.1.1V32l.1.1c.1 0 .1 0 .1-.1 0 0 .1-.1.1-.2V31.5zM10.6 31.8h.1c0 .1 0 .2.1.2l.1.1c.1 0 .1 0 .1-.1v-.2-.1s-.1 0-.1-.1c-.1 0-.2-.1-.2-.1l-.1-.1v-.2-.2c0-.1 0-.1.1-.1l.1-.1H11.1l.1.1v.2h-.1c0-.1 0-.1-.1-.2l-.1-.1c-.1 0-.1 0-.1.1v.2l.1.1s.1 0 .1.1c.1 0 .2.1.2.1l.1.1v.4c0 .1-.1.1-.1.2 0 0-.1.1-.2.1s-.2 0-.2-.1c-.2 0-.2-.1-.2-.3zM11.9 32.2h-.1v-1.9h.1v.7c.1-.1.1-.2.2-.2s.1 0 .1.1l.1.1c0 .1.1.1.1.2v.3c0 .2 0 .4-.1.6-.1.1-.1.2-.2.2s-.2-.1-.2-.2v.1zm0-.7v.4c0 .1.1.2.2.2s.1 0 .2-.1c0-.1.1-.2.1-.4s0-.3-.1-.4c0-.1-.1-.1-.1-.1-.1 0-.1 0-.2.1 0 0-.1.2-.1.3zM13.2 31.8h.1c0 .1-.1.3-.1.3s-.1.1-.2.1-.2-.1-.3-.2c-.1-.1-.1-.3-.1-.5s0-.4.1-.6c.1-.1.2-.2.3-.2.1 0 .2.1.3.2.1.1.1.3.1.5v.1h-.6c0 .2 0 .3.1.4 0 .1.1.1.2.1 0 0 .1 0 .1-.1v-.1zm-.4-.4h.4c0-.1 0-.2-.1-.3 0-.1-.1-.1-.2-.1s-.1 0-.2.1c.1.1.1.2.1.3zM14.1 31.8h.1c0 .1-.1.3-.1.3-.1.1-.1.1-.2.1s-.2-.1-.3-.2c-.1-.1-.1-.3-.1-.5s0-.4.1-.6c.1-.1.2-.2.3-.2.1 0 .2.1.3.2.1.1.1.3.1.5v.1h-.6c0 .2 0 .3.1.4 0 .1.1.1.2.1 0 0 .1 0 .1-.1-.1.1-.1 0 0-.1zm-.5-.4h.4c0-.1 0-.2-.1-.3 0-.1-.1-.1-.2-.1s-.1 0-.2.1c.1.1.1.2.1.3zM14.4 32.2v-1.4h.1v.2c.1-.1.1-.2.3-.2h.1l.1.1v1.3h-.1v-.9-.2s0-.1-.1-.1h-.1c-.1 0-.1 0-.1.1s-.1.2-.1.4v.8h-.1zM15.6 31.5h.1c0 .1 0 .1.1.2l.1.1c.1 0 .1 0 .1-.1v-.1-.1s-.1 0-.1-.1c-.1 0-.1-.1-.2-.1l-.1-.1V31v-.1s0-.1.1-.1l.1-.1h.2l.1.1v.2H16v-.1h-.2V31.2l.1.1c.1 0 .1.1.2.1l.1.1v.4c0 .1-.1.1-.1.1H16c-.1 0-.1 0-.2-.1-.2-.1-.2-.2-.2-.4zM16.3 32.2v-1.9h.1v.7c.1-.1.1-.2.2-.2s.1 0 .1.1c0 0 .1.1.1.2v1.1h-.1v-.8-.2c0-.1-.1-.1-.1-.1s-.1 0-.1.1l-.1.1V32.2h-.1zM17.4 32.6V31h.1v.3c0-.1.1-.2.1-.2l.1-.1c.1 0 .1 0 .2.1l-.1.3-.1-.1s-.1 0-.1.1c0 0 0 .1-.1.2v1.2h-.1zM18.6 32.6v-.2c-.1.2-.2.3-.3.3-.1 0-.1 0-.2-.1l-.1-.1v-.2V31h.2v1.2c0 .1 0 .1.1.2l.1.1s.1 0 .1-.1c0 0 .1-.1.1-.2V31h.2v1.6h-.2zM19 32.6V31h.1v.2c.1-.2.2-.3.3-.3.1 0 .1 0 .2.1l.1.1c0 .1 0 .1.1.2v1.3h-.2v-1-.3c0-.1 0-.1-.1-.1l-.1-.1c-.1 0-.1 0-.2.1 0 .1-.1.2-.1.4v.9H19zM20 32.6v-2.3h.2v1.3l.4-.7h.2l-.4.6.4 1h-.2l-.3-.8-.1.2v.7H20zM21.6 32.1h.2c0 .2-.1.3-.1.4-.1.1-.2.1-.3.1-.1 0-.2-.1-.3-.2-.1-.1-.1-.4-.1-.6 0-.3 0-.5.1-.6.1-.2.2-.2.3-.2.1 0 .2.1.3.2.1.1.1.4.1.6v.1h-.7c0 .2 0 .3.1.4.1.1.1.1.2.1s.1 0 .1-.1c0 0 0-.1.1-.2zm-.5-.5h.5c0-.1 0-.2-.1-.3-.1-.1-.1-.2-.2-.2s-.1 0-.2.1v.4z"/><path fill="gray" d="M22.5 32.6v-.2c-.1.2-.1.2-.3.2-.1 0-.1 0-.2-.1s-.1-.2-.1-.3c0-.1-.1-.3-.1-.4v-.4c0-.1.1-.2.1-.3.1-.1.1-.1.2-.1s.1 0 .1.1c0 0 .1.1.1.2v-1h.2v2.3zm-.5-.8c0 .2 0 .4.1.5.1.1.1.2.2.2s.1-.1.2-.2c0-.1.1-.3.1-.5s0-.4-.1-.5c0-.1-.1-.2-.2-.2s-.1.1-.2.2c0 .1-.1.2-.1.5zM23 32.6v-.3h.2v.3H23zM6.2 36.7V35h-.3v-.2h.9v.2h-.4v1.7h-.2zM6.9 36.7v-1.9H7v.7c.1-.1.1-.2.2-.2s.1 0 .2.1c0 0 .1.1.1.2v1.2h-.1v-.9-.3c0-.1-.1-.1-.1-.1s-.1 0-.1.1c0 0-.1.1-.1.2v1.1h-.2zM8.2 36.5c0 .1-.1.1-.1.2H8c-.1 0-.2 0-.2-.1s-.1-.2-.1-.3v-.2c0-.1 0-.1.1-.1s.1-.1.1-.1H8c.1 0 .2-.1.2-.1v-.1-.2c0-.1-.1-.1-.2-.1s-.1 0-.1.1c0 0-.1.1-.1.2h-.1c0-.1 0-.2.1-.2 0-.1.1-.1.1-.1h.4l.1.1v1.3h-.1c-.1-.1-.1-.2-.1-.3zm0-.5s-.1.1-.2.1h-.1l-.1.1V36.5l.1.1c.1 0 .1 0 .1-.1 0 0 .1-.1.1-.2V36zM8.6 36.7v-1.4h.1v.2c.1-.2.1-.2.3-.2h.1l.1.1v1.3h-.1v-.9-.2s0-.1-.1-.1h-.1c-.1 0-.1 0-.1.1s-.1.2-.1.4v.8h-.1zM9.4 36.7v-1.9h.1v1.1l.3-.6h.2l-.3.5.3.9h-.1l-.3-.7-.1.2v.6h-.1zM10.6 37.2V37h.2v-.1-.2-.1l-.3-1.4h.1l.2.8c0 .1 0 .2.1.3 0-.1 0-.2.1-.3l.2-.8h.1l-.3 1.4c0 .2-.1.3-.1.3 0 .1-.1.1-.1.2l-.1.1c0 .1-.1.1-.1 0zM11.3 36c0-.3 0-.5.1-.6.1-.1.2-.2.3-.2.1 0 .2.1.3.2.1.1.1.3.1.5v.4c0 .1-.1.2-.1.2-.1.1-.1.1-.2.1s-.2-.1-.3-.2c-.1 0-.2-.2-.2-.4zm.2 0c0 .2 0 .3.1.4 0 .1.1.1.2.1s.1 0 .2-.1c0-.1.1-.2.1-.4s0-.3-.1-.4c0-.1-.1-.1-.2-.1s-.1 0-.2.1-.1.2-.1.4zM12.8 36.7v-.2c-.1.2-.1.2-.3.2h-.1l-.1-.1v-.2-1.1h.1v1.1c0 .1 0 .1.1.1l.1.1s.1 0 .1-.1l.1-.1v-1.1h.1v1.4h-.1z"/><path fill="none" d="M21.3 32.4C15.1 32.4 10 27.8 10 22c0-5.7 5.1-10.4 11.3-10.4 6.2 0 11.3 4.6 11.3 10.4 0 5.7-5.1 10.4-11.3 10.4z"/><path d="M21.3 12.4c5.8 0 10.5 4.3 10.5 9.6s-4.7 9.6-10.5 9.6-10.5-4.3-10.5-9.6 4.7-9.6 10.5-9.6m-1.9 16.2c-2.6 0-5.1-1-6.7-2.8.1.2.2.4.4.6 1.6 2.2 4.3 3.4 7.2 3.4 1.9 0 3.9-.5 5.7-1.7 4.4-2.8 5.7-8 2.9-11.8-.1-.2-.3-.4-.5-.5 2.2 3.7.8 8.6-3.3 11.2-1.8 1.1-3.8 1.6-5.7 1.6m1.9-17.7c-6.7 0-12.1 5-12.1 11.1s5.4 11.1 12.1 11.1c6.7 0 12.1-5 12.1-11.1s-5.5-11.1-12.1-11.1z"/><path fill="#b3b3b3" d="M28.9 16.3c-.1-.2-.3-.4-.5-.5 2.2 3.7.8 8.5-3.3 11.2-4.1 2.6-9.6 2.1-12.4-1.2.1.2.2.4.4.6 2.7 3.7 8.5 4.5 12.9 1.7 4.3-2.8 5.6-8.1 2.9-11.8z"/><path fill="#fff" d="M39.9 38.1l-.6-.7s-.2 1.3-1 2c-.9.7-2.3.8-2.3.8l.6.7s1.5-.1 2.3-.8c.8-.7 1-2 1-2z"/><path d="M39.9 38.1s-.2 1.3-1 2c-.9.7-2.3.8-2.3.8l1.2 1.2s1.4-.3 2.3-1c.8-.7 1.1-1.8 1.1-1.8l-1.3-1.2zM39.3 37.4L30.6 28s-.5 1.1-1.4 1.8c-.8.6-2 .9-2 .9l8.7 9.4s1.5-.1 2.4-.8c.8-.6 1-1.9 1-1.9z"/></svg>