<svg xmlns="http://www.w3.org/2000/svg" width="24" height="24"><path fill="#FFF" stroke="#565555" stroke-miterlimit="10" d="M1 6h18v17H1z"/><path fill="#BF0022" stroke="#771212" stroke-miterlimit="10" d="M23 6l-6.6-5 .1 3H12v4h4.5l-.1 3z"/><path d="M5.6 17.3l1.7-.2c.1.6.3 1 .6 1.2s.7.4 1.3.4c.6 0 1-.1 1.3-.4s.4-.5.4-.8c0-.2-.1-.4-.2-.5s-.3-.3-.6-.4c-.2-.1-.7-.2-1.4-.4-.9-.2-1.6-.5-2-.8-.5-.5-.8-1-.8-1.7 0-.4.1-.8.4-1.2s.6-.7 1.1-.9 1-.3 1.7-.3c1.1 0 1.9.2 2.4.7s.8 1.1.9 1.9l-1.7.1c-.1-.4-.2-.8-.5-1-.2-.2-.6-.3-1.1-.3-.5 0-.9.1-1.2.3-.2.1-.3.3-.3.5s.1.4.3.5c.2.2.8.4 1.6.6s1.5.4 1.9.6.7.5.9.9.3.8.3 1.4c0 .5-.1 1-.4 1.4s-.7.8-1.2 1-1.1.3-1.8.3c-1.1 0-1.9-.2-2.5-.8s-1-1.2-1.1-2.1z"/></svg>