<svg xmlns="http://www.w3.org/2000/svg" width="24" height="24"><path opacity=".51" fill="none" stroke="#0D4870" stroke-miterlimit="10" d="M21.5 22.5h-20v-14h20z"/><path fill="#0A557F" d="M22 23H1V8.5L1.383 6H8.48l.309 2H22v15zM2 22h19V9H7.931l-.308-2H2.24l-.246 1.577L2 22z"/><path fill="#C1272D" stroke="#000" stroke-miterlimit="10" d="M21.5 18.5h-9v1.522c0 .432 1.835.73 4.5.73s4.5-.274 4.5-.705V18.5z"/><ellipse fill="#C1272D" stroke="#000" stroke-width=".5" stroke-miterlimit="10" cx="17.031" cy="18.398" rx="4.825" ry=".781"/><path fill="#F9F9F9" stroke="#000" stroke-width=".5" stroke-miterlimit="10" d="M17.629 10.647c1.192-.92 3.233-3.042 3.233-4.421 0-1.798-1.794-3.256-4.006-3.256S12.85 4.428 12.85 6.226c0 1.41 1.94 3.611 3.187 4.491-1.177.928-3.195 3.081-3.174 4.464.029 1.797 1.847 3.236 4.059 3.213s3.981-1.5 3.953-3.298c-.022-1.407-1.986-3.577-3.246-4.449z"/><path fill="#C1272D" stroke="#000" stroke-miterlimit="10" d="M21.5 2.5h-9v.967c0 .431 1.835.73 4.5.73s4.5-.274 4.5-.705V2.5z"/><ellipse fill="#C1272D" stroke="#000" stroke-width=".5" stroke-miterlimit="10" cx="17.031" cy="1.843" rx="4.825" ry=".781"/></svg>