<svg xmlns="http://www.w3.org/2000/svg" width="100" height="100"><path d="M28.9 8.2c-.7-.3-1.8-1.7-2.4-2-.5-.3-2.3-.5-3.7.3.4.1 2.1 1.3 2.4 1.6.2.3 1.4.7 3.7.1zM15.9 12.1c-.7.3-2.5.2-3.1.5-.6.3-1.9 1.6-2 3.2.3-.2 2.3-1 2.7-1 .4.1 1.3-.6 2.4-2.7zM10.3 21.4c.4-.2 1-1.1 1.5-3.4-.6.5-2.3 1-2.8 1.5-.5.4-1.3 2-1 3.7.2-.4 2-1.6 2.3-1.8zM9.1 28.5c.1-.1.3-.5.3-1.1.1-.6.1-1.4 0-2.6-.4.6-1.9 1.6-2.2 2.3-.4.6-.4 2.6.5 3.9.1-.3 1.1-2.2 1.4-2.5zM92.3 27.7c.2-.3 1.4-1.8 1.6-2.1.2-.2.6-1.4-.6-3.4-.1.7-1.2 2-1.5 2.5-.2.5-.2 1.8.5 3zM92.1 31c-.3.5-.6 1.8-.1 3.1.2-.3 1.6-1.6 1.9-1.8.3-.2.8-1.3.1-3.4-.2.7-1.6 1.7-1.9 2.1zM92.3 19c.1-.3.1-1.6-1.6-3.1.1.7-.5 2.3-.6 2.8 0 .6.3 1.8 1.3 2.7zM36.5 8.5c-.7-.3-1.9-1.7-2.4-2-.5-.3-2.2-.6-3.7 0 .3.2 1.9 1.6 2.2 1.9.3.2 1.5.7 3.9.1zM86.3 13.7c.1.5.8 1.8 2.1 2.3 0-.3.1-2.3.1-2.6.1-.3-.3-1.5-2.4-2.6.4.6.2 2.3.2 2.9zM84 11.1c-.1-.3-.5-2.3-.5-2.6 0-.3-.7-1.4-3-1.9.5.6.7 2.3.9 2.8.3.5 1.3 1.5 2.6 1.7zM62.5 5.5c.5.3 1.9.6 3.2 0-.3-.2-1.7-1.6-1.9-1.8-.2-.3-1.3-.7-3.4-.2.6.3 1.6 1.7 2.1 2zM69.2 5.9c.5.3 1.9.7 3.2.2-.3-.2-1.6-1.7-1.8-2-.2-.3-1.3-.8-3.4-.3.6.4 1.5 1.8 2 2.1zM75.6 6.9c.4.4 1.6 1 2.9 1l-1.2-2.4c-.1-.3-1.1-1.2-3.5-1 .7.3 1.5 1.9 1.8 2.4zM17.3 9.7c.6 0 1.2.1 1.4.2.4.1 1.3-.1 3.2-1.2-.7-.2-2.2-1.1-2.9-1.1-.6-.1-2.5.7-3.1 2.2.1 0 .8-.1 1.4-.1zM26.4 92.5c-.6-.4-1.6-1.9-2.2-2.2-.5-.3-2.2-.7-3.6 0 .3.2 1.9 1.6 2.2 1.8.2.3 1.3.7 3.6.4zM8.6 83.6c0 .3-.1 2.5-.1 2.8 0 .3.5 1.8 3 2.8-.5-.7-.5-2.5-.6-3.1-.2-.5-1-1.7-2.3-2.5zM30.1 93.1c.2.3 1.9.9 4.2-.2-.8-.1-2.2-1.3-2.7-1.6-.3-.1-.8-.3-1.4-.3-.2 0-.6-.1-1-.1s-.8 0-1.2.1c.2.1.6.6.9 1.1.2.2.4.5.5.7.4.1.6.2.7.3zM17 89.8c-.5-.4-1.8-1.1-3.2-1.2.1.3 1.1 2.2 1.3 2.5.1.3 1.3 1.3 4 1-.8-.3-1.7-1.9-2.1-2.3z" fill="#fff"/><path d="M8.1 57.7c-.1 0-.1.1-.2.1-.3.2-1.1 1.1-1.6 3.5.6-.5 2.3-1 2.8-1.4l.1-.1C12.9 74.1 24 85.6 38.2 90c-.8 0-1.8.3-2.7.9.4.1 2.3 1 2.5 1.3.2.2 1.1.3 2.4-.1 2.8 1.3 6.2 2 9.6 2 2.9 0 5.6-.5 8.1-1.5.2-.1.3-.2.5-.3h1.6c-.2-.2-.5-.5-.8-.9.1-.2.2-.4.2-.6 15.3-3.2 27.6-14.7 32.1-29.5h.1c0 .6 0 1.2.3 1.8.2-.4 1.6-1.9 1.9-2 .3-.2.8-1.2.8-3.3-.1.1-.3.3-.6.4 1.7-4.5 2.4-11 .1-16.8-.3-.8-1-1.3-1.7-1.5 0-.2-.1-.4-.1-.6.3-.3.7-.5.8-.6.3-.2.9-1.2.5-3.3-.3.5-1.3 1.2-1.9 1.6-4.1-13.8-15-24.8-28.8-29-.1-.7-.6-1.4-1.2-1.7C59 4.8 55.1 4 51.3 4c-2.9 0-5.6.5-8.1 1.5-.6.2-1.1.7-1.3 1.3-.1-.1-.2-.1-.2-.1-.6-.3-2.2-.4-3.6.2.2.1.8.5 1.3.9C26 11.4 15.2 21.4 10.5 34.3c-.1-.6-.4-1.3-.8-2.1-.1.8-1.2 2.2-1.4 2.8-.1.4-.1 1.3.2 2.2-.2.2-.4.4-.5.7-2.3 4.3-3.5 12-.9 18.6.2.5.6.9 1 1.2zm51.7 29.6c.1-4.8-.1-12.9-1.3-19.3 4.8-2 8.7-5.8 10.9-10.5 5 1.3 13.6 3.1 18.8 3.7-4.3 12.9-15 22.9-28.4 26.1zm3.1-75.7c12.9 4.2 22.9 15 26.1 28.3h-2.3c-2.5 0-10.4.1-17.1 1.3-2-4.8-5.8-8.7-10.5-10.9 1.3-5 3.1-13.6 3.8-18.7zM43.8 33.4c.4.5.9.9 1.6 1 2.7.4 8.1.4 10.6.4.9 0 1.6-.5 2.1-1.2 3.6 1.8 6.6 4.8 8.2 8.5-.5.4-.9.9-1 1.6-.4 2.7-.4 7.9-.4 10.7 0 .9.5 1.6 1.2 2.1-1.8 3.6-4.8 6.6-8.5 8.2-.4-.5-.9-.9-1.6-1-2.7-.4-8.1-.4-10.7-.4-.9 0-1.6.5-2.1 1.2-3.7-1.8-6.6-4.8-8.2-8.5.5-.4.9-.9 1-1.6.4-2.7.4-7.9.4-10.7 0-.9-.5-1.6-1.2-2.1 1.9-3.6 4.9-6.6 8.6-8.2zm-2.2-22.7c-.1 4.8.1 12.9 1.3 19.3-4.8 2-8.7 5.8-10.9 10.5-5-1.3-13.6-3.1-18.8-3.7 4.3-12.9 15-22.9 28.4-26.1zm-27 47.5c2.5 0 10.4-.1 17.1-1.3 2 4.8 5.8 8.7 10.5 10.9-1.3 5-3.1 13.6-3.7 18.8-12.9-4.2-22.9-14.9-26.1-28.3.7-.1 1.4-.1 2.2-.1zM6.3 66.4c.4-.4 1.1-1.7 1.1-3.2-.3.2-2.2 1.2-2.5 1.3-.3.1-1.3 1.2-1 3.7.4-.6 1.9-1.4 2.4-1.8zM5.7 73.4c.2-.6.4-2.1-.2-3.4-.2.3-1.5 1.9-1.8 2.2-.2.2-.6 1.5.3 3.8.2-.8 1.4-2.1 1.7-2.6zM4.9 79.6c-.2.3-.3 1.7 1.5 3.7-.1-.8.7-2.4.8-3 0-.6-.3-2.1-1.2-3.3zM89.3 80.8c-.6.2-1.8 1.1-2.4 2.6.4-.1 2.5-.2 2.8-.3.2 0 .6-.1 1.1-.6.2-.2.5-.5.8-.9.3-.4.6-1 .8-1.6-.4.3-1 .5-1.6.6-.6.1-1.2.1-1.5.2z" fill="#fff"/><path d="M63.5 91.3c-.2-.1-.3-.1-.5-.1l-.3-.1c-.1 0-.3-.1-.4-.1.3.3.5.8.7 1.4l.5 1.3c.1.3 1 1.4 3.6 1.4-.7-.5-1.3-2.1-1.6-2.6-.2-.2-.6-.5-1.1-.8-.3-.1-.5-.3-.9-.4zM93.8 64.7c-.3.7-1.6 1.9-1.9 2.5-.3.6-.4 2.2.2 3.6.2-.3 1.5-2 1.7-2.3.4-.3.7-1.5 0-3.8zM94 75.1c.1-.3.1-.7.2-1.2 0-.5 0-1.1-.2-1.7-.2.4-.6.8-1.1 1.3-.5.4-1 .7-1.1 1-.4.5-.8 2-.6 3.4.3-.2 2-1.5 2.2-1.8.2-.1.5-.4.6-1zM70.5 93.3c-.2 0-.7.1-.8.2-.2.1-.6.1-.9.3l1 .9c.4.4 1 .7 1.1.8.2.2 1.7.5 3.8-1.1-.8.1-2.4-.8-2.9-1-.3-.2-.8-.2-1.3-.1zM78 90.2c-.6.1-2 .7-2.9 1.9.3 0 2.4.3 2.8.4.3.1 1.7-.2 3.2-2.2-.8.3-2.5-.1-3.1-.1zM83.9 88c.3 0 1.6-.3 3-2.4-.7.3-2.5-.1-3.1 0-.6.1-2 1-2.7 2.4h2.8z" fill="#fff"/></svg>