<svg xmlns="http://www.w3.org/2000/svg" viewBox="0 0 28 35"><path d="M24.295 15.444a1 1 0 00-1 1v6.851H4.705V4.705h6.851a1 1 0 100-2H3.705a1 1 0 00-1 1v20.59a1 1 0 001 1h20.59a1 1 0 001-1v-7.851a1 1 0 00-1-1z"/><path d="M24.295 2.705h-7.412a1 1 0 100 2h4.998l-7.884 7.884a.999.999 0 101.414 1.414l7.884-7.884v5a1 1 0 002 0V3.705a1 1 0 00-1-1z"/><text y="43" font-size="5" font-weight="bold" font-family="'Helvetica Neue', Helvetica, Arial-Unicode, Arial, Sans-serif">Created by Karent Molly</text><text y="48" font-size="5" font-weight="bold" font-family="'Helvetica Neue', Helvetica, Arial-Unicode, Arial, Sans-serif">from the Noun Project</text></svg>