<svg width="92" height="92" xmlns="http://www.w3.org/2000/svg"><path d="M61 50c0 2.762-1.238 6-4 6H30.279s-7.278 8.763-8.044 8.763c-.141 0-.149-.394-.149-.394l1.415-9.244c-2.761 0-5.5-2.363-5.5-5.125V29c0-2.761 3.239-4 6-4h33c2.762 0 4 1.239 4 4v21z" fill="#afcfe8" stroke-miterlimit="10" stroke-width="2" stroke="#08496d"/><path fill="#2e90c6" stroke-miterlimit="10" stroke-width="2" stroke="#1c2b30" d="M67.803 40H43.618L41 36.676V18.911L43.427 17h24.376L70 19.693v16.648z"/><path fill="none" stroke-miterlimit="10" stroke-width="4" stroke="#f2f2f2" d="M56 19v18M47 28h18"/></svg>