<svg xmlns="http://www.w3.org/2000/svg" width="62" height="62"><path fill="#FFF" stroke="#FFF" stroke-miterlimit="10" d="M55.5 59.6l-48-.1v-56h36v10h12z"/><path fill="#FFF" stroke="#333" stroke-miterlimit="10" d="M55.5 60.5h-48V3h36l11.9 10.8.1 46.7zm-48 0h48V14.1h-12v-11h-36v57.4z"/><path fill="gray" d="M13.8 10.9l.2.1c0 .3-.1.6-.2.8-.1.2-.3.3-.4.3-.2 0-.3-.1-.4-.2-.1-.1-.2-.3-.3-.6-.1-.3-.1-.5-.1-.8 0-.3 0-.6.1-.9L13 9c.1-.1.3-.2.4-.2.2 0 .3.1.4.2.1.2.2.4.2.7l-.2.1c0-.2-.1-.4-.2-.5-.1-.1-.2-.2-.3-.2-.1 0-.2.1-.3.2-.1.1-.1.3-.2.5 0 .2-.1.4-.1.6 0 .3 0 .5.1.7 0 .2.1.3.2.4.1.1.2.1.3.1.1 0 .2-.1.3-.2.1 0 .2-.2.2-.5zM14.2 10.9c0-.4.1-.7.2-.9.1-.2.2-.3.4-.3s.3.1.4.3c.1.2.2.5.2.8 0 .3 0 .5-.1.7 0 .2-.1.3-.2.4-.1.1-.2.1-.3.1-.2 0-.3-.1-.4-.3-.2-.1-.2-.4-.2-.8zm.2 0c0 .3 0 .5.1.7.1.1.2.2.3.2s.2-.1.3-.2c.1-.1.1-.4.1-.7 0-.3 0-.5-.1-.6-.1-.1-.1-.2-.2-.2s-.2.1-.2.2c-.3.1-.3.3-.3.6zM15.6 12V9.8h.2v.3c.1-.2.2-.4.4-.4.1 0 .1 0 .2.1.1 0 .1.1.1.2s.1.2.1.3V12.1h-.3v-1.4-.4c0-.1 0-.1-.1-.2l-.1-.1c-.1 0-.2.1-.2.2-.1.1-.1.3-.1.6V12h-.2zM16.8 12.2l.2.1c0 .1 0 .2.1.3.1.1.1.1.2.1s.2 0 .2-.1c.1-.1.1-.2.1-.3v-.5c-.1.2-.2.3-.3.3-.2 0-.3-.1-.4-.3-.1-.2-.1-.5-.1-.8 0-.2 0-.4.1-.6 0-.2.1-.3.2-.4.1-.1.2-.1.3-.1.1 0 .3.1.3.3v-.4h.2v2c0 .4 0 .6-.1.8 0 .1-.1.3-.2.3-.1.1-.2.1-.3.1-.1 0-.3-.1-.3-.2s-.2-.3-.2-.6zm.2-1.4c0 .3 0 .5.1.7.1.1.1.2.2.2s.2-.1.2-.2c.1-.1.1-.3.1-.6s0-.5-.1-.6c-.1-.1-.1-.2-.2-.2s-.2.1-.2.2c-.1.1-.1.3-.1.5zM18.1 12V9.8h.2v.3c0-.2.1-.3.1-.3 0-.1.1-.1.1-.1.1 0 .1 0 .2.1l-.1.4c0-.1-.1-.1-.1-.1s-.1 0-.1.1-.1.1-.1.2V12h-.2zM19.7 11.7c-.1.1-.1.2-.2.3-.1 0-.1.1-.2.1s-.2-.1-.3-.2c-.1-.1-.1-.3-.1-.5v-.3c0-.1.1-.2.1-.2 0-.1.1-.1.1-.1s.1 0 .2-.1c.2 0 .3-.1.4-.1v-.1c0-.2 0-.3-.1-.3-.1-.1-.1-.1-.2-.1s-.2 0-.2.1-.1.2-.1.3h-.2c0-.2 0-.3.1-.4 0-.1.1-.2.2-.2.1-.1.2-.1.3-.1s.2 0 .2.1c.1 0 .1.1.1.2s.1.2.1.3V12c0 .1 0 .2.1.3h-.2c-.1-.4-.1-.4-.1-.6zm-.1-.8c-.1.1-.2.1-.3.1-.1 0-.1 0-.2.1l-.1.1v.2c0 .1 0 .2.1.3 0 .1.1.1.2.1s.1 0 .2-.1.1-.2.1-.3v-.5zM20.6 11.7v.3h-.2c-.1 0-.1 0-.2-.1 0 0-.1-.1-.1-.2V9.9H20v-.1h.1v-.6l.2-.2v.8h.3v.3h-.2v1.6h.2zM20.7 11.3l.2-.1c0 .2 0 .3.1.4.1.1.1.1.2.1s.2 0 .2-.1.1-.2.1-.3c0-.1 0-.2-.1-.2 0 0-.1-.1-.2-.1-.1-.1-.3-.1-.3-.2-.1-.1-.1-.1-.1-.2v-.3-.3c0-.1.1-.2.1-.2l.1-.1h.2c.1 0 .2 0 .2.1l.2.2c0 .1.1.2.1.4l-.2.1c0-.1 0-.2-.1-.3 0-.1-.1-.1-.2-.1s-.2 0-.2.1-.1.1-.1.2v.1s0 .1.1.1c0 0 .1 0 .2.1s.2.1.3.2c.1 0 .1.1.1.2v.3c0 .1 0 .2-.1.4 0 .1-.1.2-.2.3-.1.1-.2.1-.3.1-.2 0-.3-.1-.4-.2.2-.2.1-.4.1-.7zM23 11.7v.3h-.2c-.1 0-.1 0-.2-.1 0 0-.1-.1-.1-.2V9.9h-.1v-.1h.1v-.6l.2-.2v.8h.2v.3h-.2v1.6H23zM23.2 10.9c0-.4.1-.7.2-.9.1-.2.2-.3.4-.3s.3.1.4.3c.1.2.2.5.2.8 0 .3 0 .5-.1.7 0 .2-.1.3-.2.4-.1.1-.2.1-.3.1-.2 0-.3-.1-.4-.3-.2-.1-.2-.4-.2-.8zm.2 0c0 .3 0 .5.1.7.1.1.2.2.3.2.1 0 .2-.1.3-.2.1-.1.1-.4.1-.7 0-.3 0-.5-.1-.6-.1-.1-.1-.2-.2-.2s-.2.1-.3.2c-.2.1-.2.3-.2.6zM26.3 8.9h.2v1.8c0 .3 0 .6-.1.8 0 .2-.1.3-.2.5-.1.1-.2.2-.4.2s-.3-.1-.4-.2c-.1-.1-.2-.2-.2-.4s-.1-.5-.1-.8V8.9h.2v2.4c0 .1.1.2.1.3.1.1.1.1.2.1.2 0 .3-.1.3-.2.1-.1.1-.4.1-.8V8.9zM26.9 12V8.9h.2V12h-.2zM27.4 11h.2c0 .2 0 .3.1.4 0 .1.1.2.2.2.1.1.2.1.3.1.1 0 .2 0 .2-.1.1 0 .1-.1.1-.2v-.3-.3c0-.1-.1-.1-.1-.2 0 0-.1-.1-.3-.2-.2-.1-.3-.1-.3-.2-.1-.1-.1-.2-.2-.3 0-.1-.1-.2-.1-.4s0-.3.1-.4c0-.1.1-.2.2-.3.1-.1.2-.1.3-.1.1 0 .2 0 .3.1.1.1.2.2.2.3.1.1.1.3.1.5h-.2c0-.2 0-.3-.1-.4-.1-.1-.2-.1-.3-.1-.1 0-.2 0-.3.1-.1.1-.1.2-.1.3 0 .1 0 .2.1.3 0 .1.2.1.3.2.2.1.3.1.4.2.1.1.2.2.2.3 0 .1.1.3.1.4 0 .2 0 .3-.1.5 0 .1-.1.3-.2.3s-.2.1-.3.1c-.1 0-.3 0-.4-.1-.1-.1-.2-.2-.2-.4-.2.1-.2-.1-.2-.3zM29.8 12v-.3c-.1.3-.2.4-.4.4-.1 0-.1 0-.2-.1s-.1-.1-.1-.2 0-.2-.1-.3V9.8h.2V11.5c0 .1 0 .2.1.2 0 .1.1.1.2.1s.1 0 .2-.1.1-.1.1-.2V9.8h.2v2.3h-.2zM30.3 12.9V9.8h.2v.3c0-.1.1-.2.1-.3.1-.1.1-.1.2-.1s.2 0 .3.1c.1.1.1.2.2.4 0 .2.1.4.1.6 0 .2 0 .4-.1.6 0 .2-.1.3-.2.4-.1.1-.2.1-.3.1-.1 0-.1 0-.2-.1s-.1-.1-.1-.2v1.1h-.2zm.1-2c0 .3 0 .5.1.6.1.1.1.2.2.2s.2-.1.2-.2c.1-.1.1-.4.1-.7 0-.3 0-.5-.1-.6-.1-.1-.1-.2-.2-.2s-.2.1-.2.2c0 .2-.1.4-.1.7zM31.5 12.9V9.8h.2v.3c0-.1.1-.2.1-.3.1-.1.1-.1.2-.1s.2 0 .3.1c.1.1.1.2.2.4 0 .2.1.4.1.6 0 .2 0 .4-.1.6 0 .2-.1.3-.2.4-.1.1-.2.1-.3.1-.1 0-.1 0-.2-.1s-.1-.1-.1-.2v1.1h-.2zm.2-2c0 .3 0 .5.1.6.1.1.1.2.2.2s.2-.1.2-.2c.1-.1.1-.4.1-.7 0-.3 0-.5-.1-.6-.1-.1-.1-.2-.2-.2s-.2.1-.2.2c0 .2-.1.4-.1.7zM32.7 10.9c0-.4.1-.7.2-.9.1-.2.2-.3.4-.3s.3.1.4.3c.1.2.2.5.2.8 0 .3 0 .5-.1.7 0 .2-.1.3-.2.4-.1.1-.2.1-.3.1-.2 0-.3-.1-.4-.3-.1-.1-.2-.4-.2-.8zm.3 0c0 .3 0 .5.1.7.1.1.1.2.3.2.1 0 .2-.1.2-.2.1-.1.1-.4.1-.7 0-.3 0-.5-.1-.6-.1-.1-.1-.2-.2-.2s-.2.1-.3.2c-.1.1-.1.3-.1.6zM34.1 12V9.8h.2v.3c0-.2.1-.3.1-.3 0-.1.1-.1.1-.1.1 0 .1 0 .2.1l-.1.4c0-.1-.1-.1-.1-.1s-.1 0-.1.1-.1.1-.1.2V12h-.2z"/><path fill="gray" d="M35.3 11.7v.3h-.2c-.1 0-.1 0-.2-.1 0 0-.1-.1-.1-.2V9.9h-.1v-.1h.1v-.6L35 9v.8h.2v.3H35v1.6H35.3zM36.6 12V9.3h-.5v-.4h1.3v.4h-.5v2.8h-.3zM38.1 11.3l.2.1c0 .2-.1.4-.2.5-.1.1-.2.2-.3.2-.2 0-.3-.1-.4-.3-.1-.2-.2-.5-.2-.9s.1-.7.2-.9c.1-.2.2-.3.4-.3s.3.1.4.3c.1.2.2.5.2.9v.1h-.9c0 .2 0 .4.1.6.1.1.1.2.3.2.1 0 .1 0 .2-.1-.1-.1-.1-.2 0-.4zm-.7-.6h.7c0-.2 0-.3-.1-.4-.1-.1-.1-.2-.3-.2-.1 0-.2.1-.2.2 0 0-.1.2-.1.4zM39.3 11.7c-.1.2-.1.3-.2.3s-.1.1-.2.1-.2-.1-.3-.2c-.1-.1-.1-.3-.1-.5v-.3c0-.1.1-.2.1-.2 0-.1.1-.1.1-.1s.1 0 .2-.1c.2 0 .3-.1.4-.1v-.1c0-.2 0-.3-.1-.3-.1-.1-.1-.1-.2-.1s-.2 0-.2.1-.1.2-.1.3h-.2c0-.2 0-.3.1-.4 0-.1.1-.2.2-.2.1-.1.2-.1.3-.1.1 0 .2 0 .2.1.1 0 .1.1.1.2s.1.2.1.3V12c0 .1 0 .2.1.3h-.2c-.1-.4-.1-.4-.1-.6zm0-.8c-.1.1-.2.1-.3.1-.1 0-.1 0-.2.1l-.1.1v.2c0 .1 0 .2.1.3 0 .1.1.1.2.1s.1 0 .2-.1.1-.2.1-.3v-.5zM39.8 12V9.8h.2v.3c0-.1.1-.2.2-.3.1-.1.1-.1.2-.1s.2 0 .2.1c.1.1.1.2.1.3.1-.3.2-.4.4-.4.1 0 .2.1.3.2.1.1.1.3.1.6v1.6h-.2v-1.4-.3c0-.1 0-.1-.1-.2l-.1-.1c-.1 0-.2.1-.2.2-.1.1-.1.3-.1.5v1.3h-.2v-1.5-.4c0-.1-.1-.1-.2-.1s-.1 0-.2.1c0 .1-.1.1-.1.3v1.7h-.3zM12.6 18.1v-.4h.2s0-.1.1-.1c0 0 0-.1.1-.3v-.1l-.5-2.3h.2l.2 1.3c0 .2.1.3.1.5 0-.2.1-.3.1-.5l.3-1.3h.2l-.5 2.3c0 .2-.1.4-.1.5 0 .1-.1.2-.1.3 0 .1-.1.1-.2.1 0 .1-.1.1-.1 0zM13.7 16.1c0-.4.1-.7.2-.9.1-.2.2-.3.4-.3s.3.1.4.3c.1.2.2.5.2.8 0 .3 0 .5-.1.7 0 .2-.1.3-.2.4s-.2.1-.3.1c-.2 0-.3-.1-.4-.3-.2-.1-.2-.4-.2-.8zm.2 0c0 .3 0 .5.1.7.1.1.2.2.3.2.1 0 .2-.1.3-.2.1-.1.1-.4.1-.7 0-.3 0-.5-.1-.6-.1-.1-.1-.2-.2-.2s-.2.1-.3.2c-.2.1-.2.3-.2.6zM15.8 17.3V17c-.1.3-.2.4-.4.4-.1 0-.1 0-.2-.1s-.1-.1-.1-.2 0-.2-.1-.3V15h.2V16.7c0 .1 0 .2.1.2 0 .1.1.1.2.1s.1 0 .2-.1.1-.1.1-.2v-1.6h.2v2.3h-.2zM17.7 17.3V17c-.1.2-.2.3-.3.3-.1 0-.2 0-.3-.1-.1-.1-.1-.2-.2-.4 0-.2-.1-.4-.1-.6 0-.2 0-.4.1-.6 0-.2.1-.3.2-.4.1-.1.2-.1.3-.1.1 0 .1 0 .2.1s.1.1.1.2v-1.1h.2v3.1h-.2zm-.6-1.2c0 .3 0 .5.1.7.1.1.1.2.2.2s.2-.1.2-.2c.1-.1.1-.3.1-.6s0-.5-.1-.7c-.1-.1-.1-.2-.2-.2s-.2.1-.2.2c-.1.1-.1.3-.1.6zM18.2 14.6v-.4h.2v.4h-.2zm0 2.7V15h.2v2.3h-.2zM19.5 17.3V17c-.1.2-.2.3-.3.3-.1 0-.2 0-.3-.1-.1-.1-.1-.2-.2-.4 0-.2-.1-.4-.1-.6 0-.2 0-.4.1-.6 0-.2.1-.3.2-.4.1-.1.2-.1.3-.1.1 0 .1 0 .2.1s.1.1.1.2v-1.1h.2v3.1h-.2zm-.6-1.2c0 .3 0 .5.1.7.1.1.1.2.2.2s.2-.1.2-.2c.1-.1.1-.3.1-.6s0-.5-.1-.7c-.1-.1-.1-.2-.2-.2s-.2.1-.2.2c-.1.1-.1.3-.1.6zM21.4 17c-.1.1-.1.2-.2.3-.1 0-.1.1-.2.1s-.2-.1-.3-.2c-.1-.1-.1-.3-.1-.5v-.3c0-.1.1-.2.1-.2 0-.1.1-.1.1-.1s.1 0 .2-.1c.2 0 .3-.1.4-.1v-.1c0-.2 0-.3-.1-.3-.1-.1-.1-.1-.2-.1s-.2 0-.2.1-.1.2-.1.3l-.2-.1c0-.2 0-.3.1-.4 0-.1.1-.2.2-.2.1-.1.2-.1.3-.1s.2 0 .2.1c.1 0 .1.1.1.2s.1.2.1.3v1.6c0 .1 0 .2.1.3h-.2c0-.3 0-.4-.1-.5zm0-.9c-.1.1-.2.1-.3.1-.1 0-.1 0-.2.1l-.1.1v.2c0 .1 0 .2.1.3 0 .1.1.1.2.1s.1 0 .2-.1.1-.2.1-.3v-.5zM22.6 17.5l.2.1c0 .1 0 .2.1.3.1.1.1.1.2.1s.2 0 .2-.1c.1-.1.1-.2.1-.3v-.5c-.1.2-.2.3-.3.3-.2 0-.3-.1-.4-.3-.1-.2-.1-.5-.1-.8 0-.2 0-.4.1-.6 0-.2.1-.3.2-.4.1-.1.2-.1.3-.1.1 0 .3.1.3.3v-.3h.2v2c0 .4 0 .6-.1.8 0 .1-.1.3-.2.4-.1.1-.2.1-.3.1-.1 0-.3-.1-.3-.2-.2-.4-.2-.6-.2-.8zm.1-1.4c0 .3 0 .5.1.7.1.1.1.2.2.2s.2-.1.2-.2c.1-.1.1-.3.1-.6s0-.5-.1-.6c-.1-.1-.1-.2-.2-.2s-.2.1-.2.2c0 0-.1.2-.1.5zM23.9 17.3V15h.2v.3c0-.2.1-.3.1-.3 0-.1.1-.1.1-.1.1 0 .1 0 .2.1l-.1.4c0-.1-.1-.1-.1-.1s-.1 0-.1.1-.1.1-.1.2v1.6h-.2zM25.5 16.5l.2.1c0 .2-.1.4-.2.5-.1.1-.2.2-.3.2-.2 0-.3-.1-.4-.3-.1-.2-.2-.5-.2-.9s.1-.7.2-.9c.1-.2.2-.3.4-.3s.3.1.4.3c.1.2.2.5.2.9v.1h-.9c0 .2 0 .4.1.6s.1.2.3.2c.1 0 .1 0 .2-.1-.1-.1-.1-.2 0-.4zm-.7-.6h.7c0-.2 0-.3-.1-.4-.1-.1-.1-.2-.2-.2s-.2.1-.2.2c-.2.1-.2.2-.2.4zM26.7 17c-.1.1-.1.2-.2.3-.1 0-.1.1-.2.1s-.2-.1-.3-.2c-.1-.1-.1-.3-.1-.5v-.3c0-.1.1-.2.1-.2 0-.1.1-.1.1-.1s.1 0 .2-.1c.2 0 .3-.1.4-.1v-.1c0-.2 0-.3-.1-.3-.1-.1-.1-.1-.2-.1s-.2 0-.2.1-.1.2-.1.3l-.2-.1c0-.2 0-.3.1-.4 0-.1.1-.2.2-.2.1-.1.2-.1.3-.1.1 0 .2 0 .2.1.1 0 .1.1.1.2s.1.2.1.3v1.6c0 .1 0 .2.1.3h-.2c-.1-.3-.1-.4-.1-.5zm0-.9c-.1.1-.2.1-.3.1-.1 0-.1 0-.2.1l-.1.1v.2c0 .1 0 .2.1.3 0 .1.1.1.2.1s.1 0 .2-.1.1-.2.1-.3v-.5zM27.6 16.9v.3h-.2c-.1 0-.1 0-.2-.1 0 0-.1-.1-.1-.2v-1.8H27v-.3h.1v-.6l.2-.2v.8h.2v.3h-.2v1.6h.1l.2.2zM28.2 18.2v-.3h.1s.1 0 .1-.1V15h.2v2.4c0 .3 0 .5-.1.6 0 .1-.1.2-.2.2h-.1zm.3-3.6v-.4h.2v.4h-.2zM28.9 16.1c0-.4.1-.7.2-.9.1-.2.2-.3.4-.3s.3.1.4.3c.1.2.2.5.2.8 0 .3 0 .5-.1.7 0 .2-.1.3-.2.4-.1.1-.2.1-.3.1-.2 0-.3-.1-.4-.3-.1-.1-.2-.4-.2-.8zm.2 0c0 .3 0 .5.1.7.1.1.2.2.3.2.1 0 .2-.1.3-.2.1-.1.1-.4.1-.7 0-.3 0-.5-.1-.6-.1-.1-.1-.2-.2-.2s-.2.1-.2.2c-.2.1-.3.3-.3.6zM30.5 17.3h-.2v-3.1h.2v1.1c.1-.2.2-.3.3-.3.1 0 .1 0 .2.1l.2.2c0 .1.1.2.1.4v.5c0 .4 0 .7-.2.9-.1.2-.2.3-.4.3-.1 0-.2-.1-.3-.3v.2zm0-1.2c0 .3 0 .5.1.6.1.2.1.3.3.3.1 0 .2-.1.2-.2.1-.1.1-.4.1-.7 0-.3 0-.5-.1-.7-.1-.1-.1-.2-.2-.2s-.2.1-.2.2c-.2.2-.2.4-.2.7zM32.4 17.3L32 15h.2l.2 1.3.1.5s0-.2.1-.5l.2-1.3h.2l.2 1.3.1.4.1-.4.2-1.3h.2l-.4 2.3h-.2l-.2-1.4v-.4l-.2 1.7h-.4z"/><path fill="gray" d="M33.8 14.6v-.4h.2v.4h-.2zm0 2.7V15h.2v2.3h-.2zM34.8 16.9v.3h-.2c-.1 0-.1 0-.2-.1 0 0-.1-.1-.1-.2v-1.8h-.1v-.3h.1v-.6l.2-.2v.8h.2v.3h-.2v1.6h.1c.1.2.2.2.2.2zM35 17.3v-3.1h.2v1.1c.1-.2.2-.3.4-.3.1 0 .2 0 .2.1.1.1.1.2.1.3v1.9h-.2v-1.4c0-.2 0-.3-.1-.4 0-.1-.1-.1-.2-.1s-.1 0-.2.1-.1.1-.1.2v1.6H35zM37.7 17c-.1.1-.1.2-.2.3-.1 0-.1.1-.2.1s-.2-.1-.3-.2c-.1-.1-.1-.3-.1-.5v-.3c0-.1.1-.2.1-.2 0-.1.1-.1.1-.1s.1 0 .2-.1c.2 0 .3-.1.4-.1v-.1c0-.2 0-.3-.1-.3 0-.1-.1-.1-.2-.1s-.2 0-.2.1-.1.2-.1.3l-.2-.1c0-.2 0-.3.1-.4 0-.1.1-.2.2-.2.1-.1.2-.1.3-.1s.2 0 .3.1c.1 0 .1.1.1.2s.1.2.1.3v1.6c0 .1 0 .2.1.3h-.2c-.2-.3-.2-.4-.2-.5zm0-.9c-.1.1-.2.1-.3.1-.1 0-.1 0-.2.1l-.1.1v.2c0 .1 0 .2.1.3 0 .1.1.1.2.1s.1 0 .2-.1.1-.2.1-.3v-.5zM38.2 17.3v-3.1h.2v3.1h-.2zM38.7 17.3v-3.1h.2v3.1h-.2zM13.4 22.2c-.1.1-.1.2-.2.3-.1 0-.1.1-.2.1s-.2-.1-.3-.2c-.1-.1-.1-.3-.1-.5v-.3c0-.1.1-.2.1-.2 0-.1.1-.1.1-.1s.1 0 .2-.1c.2 0 .3-.1.4-.1V21c0-.2 0-.3-.1-.3-.1-.1-.1-.1-.2-.1s-.2 0-.2.1-.1.2-.1.3l-.2-.1c0-.2 0-.3.1-.4 0-.1.1-.2.2-.2.1-.1.2-.1.3-.1.1 0 .2 0 .2.1.1 0 .1.1.1.2s.1.2.1.3v1.6c0 .1 0 .2.1.3h-.2c-.1-.3-.1-.4-.1-.5zm0-.8c-.1.1-.2.1-.3.1-.1 0-.1 0-.2.1l-.1.1v.2c0 .1 0 .2.1.3 0 .1.1.1.2.1s.1 0 .2-.1.1-.2.1-.3v-.5zM13.9 23.4v-3.1h.2v.3c0-.1.1-.2.1-.3.1-.1.1-.1.2-.1s.2.1.3.2c.1.1.1.2.2.4 0 .2.1.4.1.6 0 .2 0 .4-.1.6 0 .2-.1.3-.2.4-.1.1-.2.1-.3.1-.1 0-.1 0-.2-.1s-.1-.1-.1-.2v1.1h-.2zm.2-2c0 .3 0 .5.1.6.1.1.1.2.2.2s.2-.1.2-.2c.1-.1.1-.4.1-.7 0-.3 0-.5-.1-.6-.1-.1-.1-.2-.2-.2s-.2.1-.2.2c-.1.2-.1.4-.1.7zM15.2 23.4v-3.1h.2v.3c0-.1.1-.2.1-.3.1-.1.1-.1.2-.1s.2.1.3.2c.1.1.1.2.2.4 0 .2.1.4.1.6 0 .2 0 .4-.1.6 0 .2-.1.3-.2.4-.1.1-.2.1-.3.1-.1 0-.1 0-.2-.1s-.1-.1-.1-.2v1.1h-.2zm.2-2c0 .3 0 .5.1.6.1.1.1.2.2.2s.2-.1.2-.2c.1-.1.1-.3.1-.6s0-.5-.1-.6c-.1-.1-.1-.2-.2-.2s-.2.1-.2.2c-.1.1-.1.3-.1.6zM16.4 22.5v-3.1h.2v3.1h-.2zM17 19.8v-.4h.2v.4H17zm0 2.7v-2.2h.2v2.3H17zM18.3 21.7h.2c0 .3-.1.5-.2.6-.1.1-.2.2-.3.2-.2 0-.3-.1-.4-.3-.1-.2-.1-.5-.1-.9 0-.2 0-.5.1-.6 0-.2.1-.3.2-.4.1-.1.2-.1.3-.1.1 0 .2.1.3.2.1.1.1.3.2.5l-.2.1c0-.2-.1-.3-.1-.3 0-.1-.1-.1-.2-.1s-.2.1-.2.2c-.1.1-.1.4-.1.7 0 .3 0 .5.1.7.1.1.1.2.2.2s.1 0 .2-.1c-.1-.3-.1-.4 0-.6z"/><path fill="gray" d="M19.4 22.2c-.1.1-.1.2-.2.3-.1 0-.1.1-.2.1s-.2-.1-.3-.2c-.1-.1-.1-.3-.1-.5v-.3c0-.1.1-.2.1-.2 0-.1.1-.1.1-.1s.1 0 .2-.1c.2 0 .3-.1.4-.1V21c0-.2 0-.3-.1-.3-.1-.1-.1-.1-.2-.1s-.2 0-.2.1-.1.2-.1.3l-.2-.1c0-.2 0-.3.1-.4 0-.1.1-.2.2-.2.1-.1.2-.1.3-.1.1 0 .2 0 .2.1.1 0 .1.1.1.2s.1.2.1.3v1.6c0 .1 0 .2.1.3h-.2c-.1-.3-.1-.4-.1-.5zm0-.8c-.1.1-.2.1-.3.1-.1 0-.1 0-.2.1l-.1.1v.2c0 .1 0 .2.1.3 0 .1.1.1.2.1s.1 0 .2-.1.1-.2.1-.3v-.5zM20.3 22.2v.3h-.2c-.1 0-.1 0-.2-.1 0 0-.1-.1-.1-.2v-1.8h-.1v-.1h.1v-.6l.2-.2v.8h.2v.3H20v1.6H20.3zM20.5 19.8v-.4h.2v.4h-.2zm0 2.7v-2.2h.2v2.3h-.2zM21 21.4c0-.4.1-.7.2-.9.1-.2.2-.3.4-.3s.3.1.4.3c.1.2.2.5.2.8 0 .3 0 .5-.1.7 0 .2-.1.3-.2.4-.1.1-.2.1-.3.1-.2 0-.3-.1-.4-.3-.2-.1-.2-.4-.2-.8zm.2 0c0 .3 0 .5.1.7.1.1.2.2.3.2.1 0 .2-.1.3-.2.1-.1.1-.4.1-.7 0-.3 0-.5-.1-.6-.1-.1-.1-.2-.2-.2s-.2.1-.2.2c-.3.1-.3.3-.3.6zM22.3 22.5v-2.2h.2v.3c.1-.2.2-.4.4-.4.1 0 .1 0 .2.1.1 0 .1.1.1.2s.1.2.1.3V22.6h-.2v-1.4-.4c0-.1 0-.1-.1-.2l-.1-.1c-.1 0-.2.1-.2.2-.1.1-.1.3-.1.6v1.2h-.3zM24.7 22.2v.3h-.2c-.1 0-.1 0-.2-.1 0 0-.1-.1-.1-.2v-1.8h-.1v-.1h.1v-.6l.2-.2v.8h.2v.3h-.2v1.6H24.7zM24.9 22.5v-3.1h.2v1.1c.1-.2.2-.3.4-.3.1 0 .2 0 .2.1.1.1.1.2.1.3v1.9h-.2v-1.4c0-.2 0-.3-.1-.4 0-.1-.1-.1-.2-.1s-.1 0-.2.1-.1.1-.1.2v1.6h-.1zM27 22.2c-.1.1-.1.2-.2.3-.1 0-.1.1-.2.1s-.2-.1-.3-.2c-.1-.1-.1-.3-.1-.5v-.3c0-.1.1-.2.1-.2 0-.1.1-.1.1-.1s.1 0 .2-.1c.2 0 .3-.1.4-.1V21c0-.2 0-.3-.1-.3-.1-.1-.1-.1-.2-.1s-.2 0-.2.1-.1.2-.1.3l-.2-.1c0-.2 0-.3.1-.4 0-.1.1-.2.2-.2.1-.1.2-.1.3-.1.1 0 .2 0 .2.1.1 0 .1.1.1.2s.1.2.1.3v1.6c0 .1 0 .2.1.3h-.2c-.1-.3-.1-.4-.1-.5zm-.1-.8c-.1.1-.2.1-.3.1-.1 0-.1 0-.2.1l-.1.1v.2c0 .1 0 .2.1.3 0 .1.1.1.2.1s.1 0 .2-.1.1-.2.1-.3v-.5zM27.9 22.2v.3h-.2c-.1 0-.1 0-.2-.1 0 0-.1-.1-.1-.2v-1.8h-.1v-.1h.1v-.6l.2-.2v.8h.2v.3h-.1v1.6h.2zM29 22.5l-.4-2.3h.2l.2 1.3.1.5s0-.2.1-.5l.2-1.3h.2l.2 1.3.1.4.1-.4.2-1.3h.2l-.4 2.3h-.2l-.2-1.4v-.4l-.2 1.7H29zM31.2 22.2c-.1.1-.1.2-.2.3-.1 0-.1.1-.2.1s-.2-.1-.3-.2c-.1-.1-.1-.3-.1-.5v-.3c0-.1.1-.2.1-.2 0-.1.1-.1.1-.1s.1 0 .2-.1c.2 0 .3-.1.4-.1V21c0-.2 0-.3-.1-.3-.1-.1-.1-.1-.2-.1s-.2 0-.2.1-.1.2-.1.3l-.2-.1c0-.2 0-.3.1-.4 0-.1.1-.2.2-.2.1-.1.2-.1.3-.1.1 0 .2 0 .2.1.1 0 .1.1.1.2s.1.2.1.3v1.6c0 .1 0 .2.1.3h-.2c-.1-.3-.1-.4-.1-.5zm0-.8c-.1.1-.2.1-.3.1-.1 0-.1 0-.2.1l-.1.1v.2c0 .1 0 .2.1.3 0 .1.1.1.2.1s.1 0 .2-.1.1-.2.1-.3v-.5zM31.6 21.8l.2-.1c0 .2 0 .3.1.4.1.1.1.1.2.1s.2 0 .2-.1.1-.2.1-.3c0-.1 0-.2-.1-.2 0 0-.1-.1-.2-.1-.1-.1-.2-.1-.3-.2-.1-.1-.1-.1-.1-.2v-.3-.3c0-.1.1-.2.1-.2l.1-.1h.2c.1 0 .2 0 .2.1l.2.2c0 .1.1.2.1.4l-.2.1c0-.1 0-.2-.1-.3 0-.1-.1-.1-.2-.1s-.2 0-.2.1-.1.1-.1.2v.1s0 .1.1.1c0 0 .1 0 .2.1s.2.1.3.2c.1 0 .1.1.1.2v.3c0 .1 0 .2-.1.4 0 .1-.1.2-.2.3-.1.1-.2.1-.3.1-.2 0-.3-.1-.4-.2.2-.2.1-.4.1-.7zM33.9 22.2v.3h-.2c-.1 0-.1 0-.2-.1 0 0-.1-.1-.1-.2v-1.8h-.1v-.1h.2v-.6l.2-.2v.8h.2v.3h-.2v1.6h.2zM34.1 22.5v-3.1h.2v1.1c.1-.2.2-.3.4-.3.1 0 .2 0 .2.1.1.1.1.2.1.3v1.9h-.2v-1.4c0-.2 0-.3-.1-.4 0-.1-.1-.1-.2-.1s-.1 0-.2.1-.1.1-.1.2v1.6h-.1zM35.4 22.5v-2.2h.2v.3c0-.2.1-.3.1-.3 0-.1.1-.1.1-.1.1 0 .1 0 .2.1l-.1.4c0-.1-.1-.1-.1-.1s-.1 0-.1.1-.1.1-.1.2v1.6h-.2zM36.1 21.4c0-.4.1-.7.2-.9.1-.2.2-.3.4-.3s.3.1.4.3.2.5.2.8c0 .3 0 .5-.1.7s-.1.3-.2.4c-.1.1-.2.1-.3.1-.2 0-.3-.1-.4-.3-.2-.1-.2-.4-.2-.8zm.2 0c0 .3 0 .5.1.7.1.1.1.2.2.2s.2-.1.3-.2c.1-.1.1-.4.1-.7 0-.3 0-.5-.1-.6-.1-.1-.1-.2-.3-.2-.1 0-.2.1-.2.2-.1.1-.1.3-.1.6zM37.6 22.5l-.4-2.3h.2l.2 1.3.1.5s0-.2.1-.5l.2-1.3h.2l.2 1.3.1.4.1-.4.2-1.3h.2l-.4 2.3h-.2l-.2-1.4-.1-.3-.2 1.7h-.3zM39.1 22.5v-2.2h.2v.3c.1-.2.2-.4.4-.4.1 0 .1 0 .2.1.1 0 .1.1.1.2s.1.2.1.3V22.6h-.2v-1.4-.4c0-.1 0-.1-.1-.2l-.1-.1c-.1 0-.2.1-.2.2-.1.1-.1.3-.1.6v1.2h-.3zM41.8 22.2c-.1.1-.1.2-.2.3-.1 0-.1.1-.2.1s-.2-.1-.3-.2c-.1-.1-.1-.3-.1-.5v-.3c0-.1.1-.2.1-.2 0-.1.1-.1.1-.1s.1 0 .2-.1c.2 0 .3-.1.4-.1V21c0-.2 0-.3-.1-.3-.1-.1-.1-.1-.2-.1s-.2 0-.2.1-.1.2-.1.3l-.2-.1c0-.2 0-.3.1-.4 0-.1.1-.2.2-.2.1-.1.2-.1.3-.1.1 0 .2 0 .2.1.1 0 .1.1.1.2s.1.2.1.3v1.6c0 .1 0 .2.1.3h-.2c-.1-.3-.1-.4-.1-.5zm0-.8c-.1.1-.2.1-.3.1-.1 0-.1 0-.2.1l-.1.1v.2c0 .1 0 .2.1.3 0 .1.1.1.2.1s.1 0 .2-.1.1-.2.1-.3v-.5zM42.7 22.2v.3h-.1c-.1 0-.1 0-.2-.1 0 0-.1-.1-.1-.2v-1.8h-.1v-.1h.2v-.6l.2-.2v.8h.2v.3h-.2v1.6h.1zM12.6 28.6v-.4h.2s0-.1.1-.1c0 0 0-.1.1-.3v-.1l-.5-2.3h.2l.2 1.3c0 .2.1.3.1.5 0-.2.1-.3.1-.5l.3-1.3h.2l-.5 2.3c0 .2-.1.4-.1.5 0 .1-.1.2-.1.3 0 .1-.1.1-.2.1 0 .1-.1.1-.1 0zM13.7 26.6c0-.4.1-.7.2-.9.1-.2.2-.3.4-.3s.3.1.4.3c.1.2.2.5.2.8 0 .3 0 .5-.1.7 0 .2-.1.3-.2.4-.1.1-.2.1-.3.1-.2 0-.3-.1-.4-.3-.2-.1-.2-.4-.2-.8zm.2 0c0 .3 0 .5.1.7.1.1.2.2.3.2.1 0 .2-.1.3-.2s.1-.4.1-.7c0-.3 0-.5-.1-.6-.1-.1-.1-.2-.2-.2s-.2.1-.3.2c-.2.1-.2.3-.2.6zM15.8 27.8v-.3c-.1.3-.2.4-.4.4-.1 0-.1 0-.2-.1-.1 0-.1-.1-.1-.2s0-.2-.1-.3V25.5h.2V27.2c0 .1 0 .2.1.2 0 .1.1.1.2.1s.1 0 .2-.1.1-.1.1-.2v-1.6h.2v2.3h-.2zM16.4 27.8v-.4h.2v.4h-.2zM13.1 33v-2.7h-.5v-.4h1.3v.4h-.5v2.8h-.3zM14 33v-3.1h.2V31c.1-.2.2-.3.4-.3.1 0 .2 0 .2.1.1.1.1.2.1.3V33h-.2v-1.4c0-.2 0-.3-.1-.4 0-.1-.1-.1-.2-.1s-.1 0-.2.1-.1.1-.1.2V33H14zM15.3 30.3v-.4h.2v.4h-.2zm0 2.7v-2.3h.2V33h-.2zM15.7 32.3l.2-.1c0 .2 0 .3.1.3.1.1.1.1.2.1s.2 0 .2-.1.1-.2.1-.3c0-.1 0-.2-.1-.2 0 0-.1-.1-.2-.1-.1-.1-.3-.1-.3-.2-.1-.1-.1-.1-.1-.2v-.3-.3c0-.1.1-.2.1-.2l.1-.1h.2c.1 0 .2 0 .2.1l.2.2c.1.1.1.2.1.4l-.2.1c0-.1 0-.2-.1-.3 0-.1-.1-.1-.2-.1s-.2 0-.2.1-.1.1-.1.2v.1s0 .1.1.1c0 0 .1 0 .2.1s.2.1.3.2c.1 0 .1.1.1.2v.3c0 .1 0 .3-.1.4 0 .1-.1.2-.2.3s-.2.1-.3.1c-.2 0-.3-.1-.4-.2s.1-.3.1-.6zM17.6 30.3v-.4h.2v.4h-.2zm0 2.7v-2.3h.2V33h-.2zM18 32.3l.2-.1c0 .2 0 .3.1.3.1.1.1.1.2.1s.2 0 .2-.1.1-.2.1-.3c0-.1 0-.2-.1-.2 0 0-.1-.1-.2-.1-.1-.1-.3-.1-.3-.2-.1-.1-.1-.1-.1-.2v-.3-.3c0-.1.1-.2.1-.2l.1-.1h.2c.1 0 .2 0 .2.1l.2.2c0 .1.1.2.1.4l-.2.1c0-.1 0-.2-.1-.3 0-.1-.1-.1-.2-.1s-.2 0-.2.1-.1.1-.1.2v.1s0 .1.1.1c0 0 .1 0 .2.1s.2.1.3.2c.1 0 .1.1.1.2v.3c0 .1 0 .3-.1.4 0 .1-.1.2-.2.3-.1.1-.2.1-.3.1-.2 0-.3-.1-.4-.2.2-.1.2-.3.1-.6zM20.3 32.7v.3h-.2c-.1 0-.1 0-.2-.1 0 0-.1-.1-.1-.2v-1.8h-.1v-.3h.1V30l.2-.2v.8h.2v.3H20v1.6h.1l.2.2zM20.5 33v-3.1h.2V31c.1-.2.2-.3.4-.3.1 0 .2 0 .2.1.1.1.1.2.1.3V33h-.2v-1.4c0-.2 0-.3-.1-.4 0-.1-.1-.1-.2-.1s-.1 0-.2.1-.1.1-.1.2V33h-.1zM22.6 32.3l.2.1c0 .2-.1.4-.2.5-.1.1-.2.2-.3.2-.2 0-.3-.1-.4-.3-.1-.2-.2-.5-.2-.9s.1-.7.2-.9c.1-.2.2-.3.4-.3s.3.1.4.3c.1.2.2.5.2.9v.1H22c0 .2 0 .4.1.6.1.1.1.2.3.2.1 0 .1 0 .2-.1v-.4zm-.6-.6h.7c0-.2 0-.3-.1-.4-.1-.1-.1-.2-.2-.2s-.2.1-.2.2c-.2 0-.2.2-.2.4zM23.8 33v-2h-.2v-.3h.2v-.2-.3c0-.1.1-.2.1-.2 0-.1.1-.1.2-.1h.2v.3h-.1c-.1 0-.1 0-.1.1v.5h.2v.3h-.2v2h-.3zM24.4 30.3v-.4h.2v.4h-.2zm0 2.7v-2.3h.2V33h-.2zM24.9 33v-2.3h.2v.3c.1-.2.2-.4.4-.4.1 0 .1 0 .2.1s.1.1.1.2.1.2.1.3V33h-.2v-1.4-.4c0-.1 0-.1-.1-.2l-.1-.1c-.1 0-.2.1-.2.2-.1.1-.1.3-.1.6v1.2h-.3zM26.9 32.7c-.1.1-.1.2-.2.3-.1.1-.1.1-.2.1s-.2-.1-.3-.2c-.1-.1-.1-.3-.1-.5v-.3c0-.1.1-.2.1-.2 0-.1.1-.1.1-.1s.1 0 .2-.1c.2 0 .3-.1.4-.1v-.1c0-.2 0-.3-.1-.3-.1-.1-.1-.1-.2-.1s-.2 0-.2.1-.1.2-.1.3l-.2-.1c0-.2 0-.3.1-.4 0-.1.1-.2.2-.2.1-.1.2-.1.3-.1.1 0 .2 0 .2.1.1 0 .1.1.1.2s.1.2.1.3v1.6c0 .1 0 .2.1.3H27c0-.3 0-.4-.1-.5zm0-.8c-.1.1-.2.1-.3.1-.1 0-.1 0-.2.1l-.1.1v.2c0 .1 0 .2.1.3 0 .1.1.1.2.1s.1 0 .2-.1.1-.2.1-.3v-.5zM27.4 33v-3.1h.2V33h-.2zM28.5 32.3l.2-.1c0 .2 0 .3.1.3.1.1.1.1.2.1s.2 0 .2-.1.1-.2.1-.3c0-.1 0-.2-.1-.2 0 0-.1-.1-.2-.1-.1-.1-.2-.1-.3-.2-.1-.1-.1-.1-.1-.2v-.3-.3c0-.1.1-.2.1-.2l.1-.1h.2c.1 0 .2 0 .2.1l.2.2c0 .1.1.2.1.4l-.2.1c0-.1 0-.2-.1-.3 0-.1-.1-.1-.2-.1s-.2 0-.2.1-.1.1-.1.2v.1s0 .1.1.1c0 0 .1 0 .2.1s.2.1.3.2c.1 0 .1.1.1.2s.1.2.1.3c0 .1 0 .3-.1.4 0 .1-.1.2-.2.3-.1.1-.2.1-.3.1-.2 0-.3-.1-.4-.2.1-.1 0-.3 0-.6zM30.2 32.7v.3H30c-.1 0-.1 0-.2-.1 0 0-.1-.1-.1-.2v-1.8h-.1v-.3h.1V30l.2-.2v.8h.2v.3h-.2v1.6h.1c.1.2.2.2.2.2zM31.2 32.7c-.1.1-.1.2-.2.3-.1.1-.1.1-.2.1s-.2-.1-.3-.2c-.1-.1-.1-.3-.1-.5v-.3c0-.1.1-.2.1-.2 0-.1.1-.1.1-.1s.1 0 .2-.1c.2 0 .3-.1.4-.1v-.1c0-.2 0-.3-.1-.3-.1-.1-.1-.1-.2-.1s-.2 0-.2.1-.1.2-.1.3l-.2-.1c0-.2 0-.3.1-.4 0-.1.1-.2.2-.2.1-.1.2-.1.3-.1.1 0 .2 0 .2.1.1 0 .1.1.1.2s.1.2.1.3v1.6c0 .1 0 .2.1.3h-.2c-.1-.3-.1-.4-.1-.5zm0-.8c-.1.1-.2.1-.3.1-.1 0-.1 0-.2.1l-.1.1v.2c0 .1 0 .2.1.3 0 .1.1.1.2.1s.1 0 .2-.1.1-.2.1-.3v-.5zM32.1 32.7v.3h-.2c-.1 0-.1 0-.2-.1 0 0-.1-.1-.1-.2v-1.8h-.1v-.3h.1V30l.2-.2v.8h.2v.3h-.2v1.6h.1c.1.2.2.2.2.2zM33.1 32.3l.2.1c0 .2-.1.4-.2.5s-.2.2-.3.2c-.2 0-.3-.1-.4-.3-.1-.2-.2-.5-.2-.9s.1-.7.2-.9c.1-.2.2-.3.4-.3s.3.1.4.3c.1.2.2.5.2.9v.1h-.9c0 .2 0 .4.1.6l.2.2c.1 0 .1 0 .2-.1s.1-.3.1-.4zm-.6-.6h.7c0-.2 0-.3-.1-.4-.1-.1-.1-.2-.2-.2s-.2.1-.2.2c-.2 0-.2.2-.2.4zM33.6 33v-2.3h.2v.3c0-.1.1-.2.1-.3.1-.1.1-.1.2-.1s.2 0 .2.1c.1.1.1.2.1.3.1-.3.2-.4.4-.4.1 0 .2.1.3.2.1.1.1.3.1.6V33H35v-1.4-.3c0-.1 0-.1-.1-.2l-.1-.1c-.1 0-.2.1-.2.2-.1.1-.1.3-.1.5V33h-.2v-1.5c0-.2 0-.3-.1-.4 0-.1-.1-.1-.2-.1s-.1 0-.2.1c0 .1-.1.1-.1.3v1.7h-.1zM36.3 32.3l.2.1c0 .2-.1.4-.2.5s-.2.2-.3.2c-.2 0-.3-.1-.4-.3-.1-.2-.2-.5-.2-.9s.1-.7.2-.9c.1-.2.2-.3.4-.3s.3.1.4.3c.1.2.2.5.2.9v.1h-.9c0 .2 0 .4.1.6l.2.2c.1 0 .1 0 .2-.1 0-.1.1-.3.1-.4zm-.6-.6h.7c0-.2 0-.3-.1-.4-.1-.1-.1-.2-.3-.2-.1 0-.2.1-.2.2-.1 0-.1.2-.1.4zM36.8 33v-2.3h.2v.3c.1-.2.2-.4.4-.4.1 0 .1 0 .2.1s.1.1.1.2.1.2.1.3V33h-.2v-1.4-.4c0-.1 0-.1-.1-.2l-.1-.1c-.1 0-.2.1-.2.2-.1.1-.1.3-.1.6v1.2h-.3zM38.5 32.7v.3h-.2c-.1 0-.1 0-.2-.1 0 0-.1-.1-.1-.2v-1.8h-.1v-.3h.2V30l.2-.2v.8h.2v.3h-.2v1.6h.1c0 .2.1.2.1.2zM39.8 32.7v.3h-.2c-.1 0-.1 0-.2-.1 0 0-.1-.1-.1-.2v-1.8h-.1v-.3h.2V30l.2-.2v.8h.2v.3h-.2v1.6h.1c0 .2 0 .2.1.2zM40 33v-3.1h.2V31c.1-.2.2-.3.4-.3.1 0 .2 0 .2.1.1.1.1.2.1.3V33h-.2v-1.4c0-.2 0-.3-.1-.4 0-.1-.1-.1-.2-.1s-.1 0-.2.1-.1.1-.1.2V33H40zM42 32.7c-.1.1-.1.2-.2.3-.1.1-.1.1-.2.1s-.2-.1-.3-.2c-.1-.1-.1-.3-.1-.5v-.3c0-.1.1-.2.1-.2 0-.1.1-.1.1-.1s.1 0 .2-.1c.2 0 .3-.1.4-.1v-.1c0-.2 0-.3-.1-.3-.1-.1-.1-.1-.2-.1s-.2 0-.2.1-.1.2-.1.3l-.2-.1c0-.2 0-.3.1-.4 0-.1.1-.2.2-.2.1-.1.2-.1.3-.1s.2 0 .2.1c.1 0 .1.1.1.2s.1.2.1.3v1.6c0 .1 0 .2.1.3h-.2c0-.3-.1-.4-.1-.5zm0-.8c-.1.1-.2.1-.3.1-.1 0-.1 0-.2.1l-.1.1v.2c0 .1 0 .2.1.3 0 .1.1.1.2.1s.1 0 .2-.1.1-.2.1-.3v-.5zM43 32.7v.3h-.2c-.1 0-.1 0-.2-.1 0 0-.1-.1-.1-.2v-1.8h-.1v-.3h.1V30l.2-.2v.8h.2v.3h-.2v1.6h.1c.1.2.1.2.2.2zM12.8 38.3l-.4-2.3h.2l.2 1.3.1.5s0-.2.1-.5l.2-1.3h.2l.2 1.3.1.4.1-.4.2-1.3h.2l-.4 2.3h-.2l-.3-1.4v-.4l-.2 1.7h-.3zM14.3 35.6v-.4h.2v.4h-.2zm0 2.7V36h.2v2.3h-.2zM14.8 38.3v-3.1h.2v3.1h-.2zM15.3 38.3v-3.1h.2v3.1h-.2zM16.6 38.3h-.2v-3.1h.2v1.1c.1-.2.2-.3.3-.3.1 0 .1 0 .2.1l.2.2c0 .1.1.2.1.4v.5c0 .4-.1.7-.2.9-.1.2-.2.3-.4.3-.1 0-.2-.1-.3-.3v.2zm0-1.2c0 .3 0 .5.1.6.1.2.1.3.3.3.1 0 .2-.1.2-.2.1-.1.1-.4.1-.7 0-.3 0-.5-.1-.7-.1-.1-.1-.2-.2-.2s-.2.1-.2.2c-.1.2-.2.4-.2.7zM18.5 37.5h.2c0 .2-.1.4-.2.5-.1.1-.2.2-.3.2-.2 0-.3-.1-.4-.3-.1-.2-.2-.5-.2-.9s.1-.7.2-.9c.1-.2.2-.3.4-.3s.3.1.4.3c.1.2.2.5.2.9v.1h-.9c0 .3 0 .4.1.6.1.1.1.2.2.2s.1 0 .2-.1c.1 0 .1-.1.1-.3zm-.6-.6h.7c0-.2 0-.3-.1-.4-.1-.1-.1-.2-.2-.2s-.2.1-.2.2c-.2.1-.2.2-.2.4zM19.6 38.4l.2.1c0 .1 0 .2.1.3 0 .1.1.1.2.1s.2 0 .2-.1c.1-.1.1-.2.1-.3V38c-.1.2-.2.3-.3.3-.2 0-.3-.1-.4-.3-.1-.2-.1-.5-.1-.8 0-.2 0-.4.1-.6 0-.2.1-.3.2-.4.1-.1.2-.1.3-.1.1 0 .3.1.3.3v-.3h.2v2c0 .4 0 .6-.1.8 0 .1-.1.3-.2.4-.1.1-.2.1-.3.1-.1 0-.3-.1-.3-.2-.2-.3-.2-.5-.2-.8zm.2-1.3c0 .3 0 .5.1.6.1.1.1.2.2.2s.2-.1.2-.2c.1-.1.1-.3.1-.6s0-.5-.1-.6c-.1-.1-.1-.2-.2-.2s-.2.1-.2.2c-.1.1-.1.3-.1.6zM20.8 37.1c0-.4.1-.7.2-.9.1-.2.2-.3.4-.3s.3.1.4.3c.1.2.2.5.2.8 0 .3 0 .5-.1.7 0 .2-.1.3-.2.4-.1.1-.2.1-.3.1-.2 0-.3-.1-.4-.3-.1-.1-.2-.4-.2-.8zm.3 0c0 .3 0 .5.1.7.1.1.2.2.3.2.1 0 .2-.1.3-.2.1-.1.1-.4.1-.7 0-.3 0-.5-.1-.6l-.2-.2c-.1 0-.2.1-.3.2-.2.1-.2.3-.2.6zM22.2 35.6v-.4h.2v.4h-.2zm0 2.7V36h.2v2.3h-.2zM22.7 38.3V36h.2v.3c.1-.2.2-.4.4-.4.1 0 .1 0 .2.1.1 0 .1.1.1.2s.1.2.1.3V38.3h-.2v-1.4-.4c0-.1 0-.1-.1-.2l-.1-.1c-.1 0-.2.1-.2.2-.1.1-.1.3-.1.6v1.2h-.3zM24 38.4l.2.1c0 .1 0 .2.1.3.1.1.1.1.2.1s.2 0 .2-.1c.1-.1.1-.2.1-.3V38c-.1.2-.2.3-.3.3-.2 0-.3-.1-.4-.3-.1-.2-.1-.5-.1-.8 0-.2 0-.4.1-.6 0-.2.1-.3.2-.4.1-.1.2-.1.3-.1.1 0 .3.1.3.3v-.3h.2v2c0 .4 0 .6-.1.8 0 .1-.1.3-.2.4-.1.1-.2.1-.3.1-.1 0-.3-.1-.3-.2-.2-.3-.2-.5-.2-.8zm.1-1.3c0 .3 0 .5.1.6.1.1.1.2.2.2s.2-.1.2-.2c.1-.1.1-.3.1-.6s0-.5-.1-.6c-.1-.1-.1-.2-.2-.2s-.2.1-.2.2-.1.3-.1.6zM25.8 37.1c0-.4.1-.7.2-.9.1-.2.2-.3.4-.3s.3.1.4.3c.1.2.2.5.2.8 0 .3 0 .5-.1.7 0 .2-.1.3-.2.4-.1.1-.2.1-.3.1-.2 0-.3-.1-.4-.3-.1-.1-.2-.4-.2-.8zm.2 0c0 .3 0 .5.1.7.1.1.2.2.3.2.1 0 .2-.1.3-.2.1-.1.1-.4.1-.7 0-.3 0-.5-.1-.6-.1-.1-.1-.2-.2-.2s-.2.1-.3.2c-.1.1-.2.3-.2.6zM27.2 38.3V36h.2v.3c.1-.2.2-.4.4-.4.1 0 .1 0 .2.1.1 0 .1.1.1.2s.1.2.1.3V38.3H28v-1.4-.4c0-.1 0-.1-.1-.2l-.1-.1c-.1 0-.2.1-.2.2-.1.1-.1.3-.1.6v1.2h-.3zM29.6 37.9v.3h-.2c-.1 0-.1 0-.2-.1 0 0-.1-.1-.1-.2v-1.8H29v-.3h.1v-.6l.2-.2v.8h.2v.3h-.2v1.6h.1c.1.2.1.2.2.2zM29.8 38.3v-3.1h.2v1.1c.1-.2.2-.3.4-.3.1 0 .2 0 .2.1.1.1.1.2.1.3v1.9h-.2v-1.4c0-.2 0-.3-.1-.4 0-.1-.1-.1-.2-.1s-.1 0-.2.1-.1.1-.1.2v1.6h-.1zM31 35.6v-.4h.2v.4H31zm0 2.7V36h.2v2.3H31zM31.5 37.6l.2-.1c0 .2 0 .3.1.4.1.1.1.1.2.1s.2 0 .2-.1.1-.2.1-.3c0-.1 0-.2-.1-.2 0 0-.1-.1-.2-.1-.1-.1-.2-.1-.3-.2-.1-.1-.1-.1-.1-.2v-.3-.3c0-.1.1-.2.1-.2l.1-.1h.2c.1 0 .2 0 .2.1l.2.2c0 .1.1.2.1.4l-.2.1c0-.1 0-.2-.1-.3 0-.1-.1-.1-.2-.1s-.2 0-.2.1-.1.1-.1.2v.1s0 .1.1.1c0 0 .1 0 .2.1s.2.1.3.2c.1 0 .1.1.1.2v.3c0 .1 0 .2-.1.4 0 .1-.1.2-.2.3-.1.1-.2.1-.3.1-.2 0-.3-.1-.4-.2.1-.3.1-.5.1-.7zM33.3 35.6v-.4h.2v.4h-.2zm0 2.7V36h.2v2.3h-.2zM33.8 38.3V36h.2v.3c0-.1.1-.2.1-.3.1-.1.1-.1.2-.1s.2 0 .2.1c.1.1.1.2.1.3.1-.3.2-.4.4-.4.1 0 .2.1.3.2.1.1.1.3.1.6v1.6h-.2v-1.4-.3c0-.1 0-.1-.1-.2l-.1-.1c-.1 0-.2.1-.2.2-.1.1-.1.3-.1.5v1.3h-.2v-1.5-.4c0-.1-.1-.1-.2-.1s-.1 0-.2.1c0 .1-.1.1-.1.2v1.7h-.2zM36.5 38c-.1.1-.1.2-.2.3-.1.1-.1.1-.2.1s-.2-.1-.3-.2c-.1-.1-.1-.3-.1-.5v-.3c0-.1.1-.2.1-.2 0-.1.1-.1.1-.1s.1 0 .2-.1c.2 0 .3-.1.4-.1v-.1c0-.2 0-.3-.1-.3-.1-.1-.1-.1-.2-.1s-.2 0-.2.1-.1.2-.1.3l-.2-.1c0-.2 0-.3.1-.4 0-.1.1-.2.2-.2.1-.1.2-.1.3-.1.1 0 .2 0 .2.1.1 0 .1.1.1.2s.1.2.1.3v1.6c0 .1 0 .2.1.3h-.2c0-.3-.1-.4-.1-.5zm0-.9c-.1.1-.2.1-.3.1-.1 0-.1 0-.2.1l-.1.1v.2c0 .1 0 .2.1.3 0 .1.1.1.2.1s.1 0 .2-.1.1-.2.1-.3v-.5zM37 38.4l.2.1c0 .1 0 .2.1.3.1.1.1.1.2.1s.2 0 .2-.1.1-.2.1-.3V38c-.1.2-.2.3-.3.3-.2 0-.3-.1-.4-.3-.1-.2-.1-.5-.1-.8 0-.2 0-.4.1-.6 0-.2.1-.3.2-.4.1-.1.2-.1.3-.1.1 0 .3.1.3.3v-.3h.2v2c0 .4 0 .6-.1.8 0 .1-.1.3-.2.4-.1.1-.2.1-.3.1-.1 0-.3-.1-.3-.2-.2-.3-.2-.5-.2-.8zm.2-1.3c0 .3 0 .5.1.6.1.1.1.2.2.2s.2-.1.2-.2c.1-.1.1-.3.1-.6s0-.5-.1-.6c-.1-.1-.1-.2-.2-.2s-.2.1-.2.2c-.1.1-.1.3-.1.6zM39.1 37.5h.2c0 .2-.1.4-.2.5-.1.1-.2.2-.3.2-.2 0-.3-.1-.4-.3-.1-.2-.2-.5-.2-.9s.1-.7.2-.9c.1-.2.2-.3.4-.3s.3.1.4.3c.1.2.2.5.2.9v.1h-.9c0 .3 0 .4.1.6.1.1.2.2.3.2.1 0 .1 0 .2-.1v-.3zm-.6-.6h.7c0-.2 0-.3-.1-.4-.1-.1-.1-.2-.3-.2-.1 0-.2.1-.2.2-.1.1-.1.2-.1.4zM40.7 37.9v.3h-.2c-.1 0-.1 0-.2-.1 0 0-.1-.1-.1-.2v-1.8h-.1v-.3h.1v-.6l.2-.2v.8h.2v.3h-.2v1.6h.1c.1.2.1.2.2.2zM40.8 37.1c0-.4.1-.7.2-.9.1-.2.2-.3.4-.3s.3.1.4.3c.1.2.2.5.2.8 0 .3 0 .5-.1.7 0 .2-.1.3-.2.4-.1.1-.2.1-.3.1-.2 0-.3-.1-.4-.3-.1-.1-.2-.4-.2-.8zm.2 0c0 .3 0 .5.1.7.1.1.2.2.3.2.1 0 .2-.1.3-.2.1-.1.1-.4.1-.7 0-.3 0-.5-.1-.6l-.2-.2c-.1 0-.2.1-.3.2-.2.1-.2.3-.2.6zM12.6 43.5v-2.3h.2v.3c0-.1.1-.2.1-.3.1-.1.1-.1.2-.1s.2 0 .2.1c.1.1.1.2.1.3.1-.3.2-.4.4-.4.1 0 .2.1.3.2.1.1.1.3.1.6v1.6H14v-1.4-.3c0-.1 0-.1-.1-.2l-.1-.1c-.1 0-.2.1-.2.2-.1.1-.1.3-.1.5v1.3h-.2V42v-.4c0-.1-.1-.1-.2-.1s-.1 0-.2.1c0 .1-.1.1-.1.3v1.7h-.2zM15.3 43.2c-.1.1-.1.2-.2.3-.1.1-.1.1-.2.1s-.2-.1-.3-.2c-.1-.1-.1-.3-.1-.5v-.3c0-.1.1-.2.1-.2 0-.1.1-.1.1-.1s.1 0 .2-.1c.2 0 .3-.1.4-.1V42c0-.2 0-.3-.1-.3-.1-.1-.1-.1-.2-.1s-.2 0-.2.1-.1.2-.1.3l-.2-.1c0-.2 0-.3.1-.4 0-.1.1-.2.2-.2.1-.1.2-.1.3-.1.1 0 .2 0 .2.1.1 0 .1.1.1.2s.1.2.1.3v1.6c0 .1 0 .2.1.3h-.2c-.1-.3-.1-.4-.1-.5zm0-.8c-.1.1-.2.1-.3.1-.1 0-.1 0-.2.1l-.1.1v.2c0 .1 0 .2.1.3 0 .1.1.1.2.1s.1 0 .2-.1.1-.2.1-.3v-.5zM15.8 43.5v-3.1h.2v1.8l.5-.9h.3l-.5.8.5 1.4h-.2l-.4-1.2-.1.3v.9h-.3zM17.8 42.8h.2c0 .2-.1.4-.2.5-.1.1-.2.2-.3.2-.2 0-.3-.1-.4-.3-.1-.2-.2-.5-.2-.9s.1-.7.2-.9c.1-.2.2-.3.4-.3s.3.1.4.3c.1.2.2.5.2.9v.1h-.9c0 .2 0 .4.1.6.1.1.2.2.3.2.1 0 .1 0 .2-.1-.1 0-.1-.2 0-.3zm-.7-.6h.7c0-.2 0-.3-.1-.4-.1-.1-.1-.2-.3-.2-.1 0-.2.1-.2.2 0 0-.1.2-.1.4zM18.9 40.8v-.4h.2v.4h-.2zm0 2.7v-2.3h.2v2.3h-.2zM19.8 43.2v.3h-.2c-.1 0-.1 0-.2-.1 0 0-.1-.1-.1-.2v-1.8h-.1v-.3h.1v-.6l.2-.2v.8h.2v.3h-.2V43h.1l.2.2zM20.7 43.5v-3.1h.2v3.1h-.2zM21.1 42.4c0-.4.1-.7.2-.9.1-.2.2-.2.4-.2s.3.1.4.3c.1.2.2.5.2.8 0 .3 0 .5-.1.7 0 .2-.1.3-.2.4-.1.1-.2.1-.3.1-.2 0-.3-.1-.4-.3-.1-.3-.2-.5-.2-.9zm.2 0c0 .3 0 .5.1.7.1.1.2.2.3.2.1 0 .2-.1.3-.2.1-.1.1-.4.1-.7 0-.3 0-.5-.1-.6-.1-.1-.1-.2-.2-.2s-.2.1-.3.2c-.2.1-.2.3-.2.6zM22.4 42.4c0-.4.1-.7.2-.9.1-.2.2-.2.4-.2s.3.1.4.3c.1.2.2.5.2.8 0 .3 0 .5-.1.7 0 .2-.1.3-.2.4-.1.1-.2.1-.3.1-.2 0-.3-.1-.4-.3-.2-.3-.2-.5-.2-.9zm.2 0c0 .3 0 .5.1.7.1.1.2.2.3.2.1 0 .2-.1.3-.2.1-.1.1-.4.1-.7 0-.3 0-.5-.1-.6-.1-.1-.1-.2-.2-.2s-.2.1-.3.2c-.2.1-.2.3-.2.6zM23.7 43.5v-3.1h.2v1.8l.5-.9h.3l-.5.8.5 1.4h-.2l-.4-1.2-.1.3v.9h-.3zM25.5 43.5v-3.1h.2v3.1h-.2zM26 40.8v-.4h.2v.4H26zm0 2.7v-2.3h.2v2.3H26zM26.6 43.5v-3.1h.2v1.8l.5-.9h.3l-.5.8.5 1.4h-.2l-.4-1.2-.1.3v.9h-.3zM28.5 42.8h.2c0 .2-.1.4-.2.5-.1.1-.2.2-.3.2-.2 0-.3-.1-.4-.3-.1-.2-.2-.5-.2-.9s.1-.7.2-.9c.1-.2.2-.3.4-.3s.3.1.4.3c.1.2.2.5.2.9v.1h-.9c0 .2 0 .4.1.6.1.1.2.2.3.2.1 0 .1 0 .2-.1-.1 0 0-.2 0-.3zm-.6-.6h.7c0-.2 0-.3-.1-.4-.1-.1-.1-.2-.3-.2-.1 0-.2.1-.2.2-.1 0-.1.2-.1.4zM30.4 43.2c-.1.1-.1.2-.2.3-.1.1-.1.1-.2.1s-.2-.1-.3-.2c-.1-.1-.1-.3-.1-.5v-.3c0-.1.1-.2.1-.2 0-.1.1-.1.1-.1s.1 0 .2-.1c.2 0 .3-.1.4-.1V42c0-.2 0-.3-.1-.3 0-.1-.1-.1-.2-.1s-.2 0-.2.1-.1.2-.1.3l-.2-.1c0-.2 0-.3.1-.4 0-.1.1-.2.2-.2.1-.1.2-.1.3-.1s.2 0 .2.1c.1 0 .1.1.1.2s.1.2.1.3v1.6c0 .1 0 .2.1.3h-.2c-.1-.3-.1-.4-.1-.5zm0-.8c-.1.1-.2.1-.3.1-.1 0-.1 0-.2.1l-.1.1v.2c0 .1 0 .2.1.3 0 .1.1.1.2.1s.1 0 .2-.1.1-.2.1-.3v-.5zM32 43.2v.3h-.2c-.1 0-.1 0-.2-.1 0 0-.1-.1-.1-.2v-1.8h-.1v-.3h.2v-.6l.2-.2v.8h.2v.3h-.2V43h.1c0 .2 0 .2.1.2zM32.2 43.5v-2.3h.2v.3c0-.2.1-.3.1-.3l.1-.1c.1 0 .1 0 .2.1l-.1.4-.1-.1s-.1 0-.1.1-.1.1-.1.2v1.6h-.2zM33.8 42.8h.2c0 .2-.1.4-.2.5-.1.1-.2.2-.3.2-.2 0-.3-.1-.4-.3-.1-.2-.2-.5-.2-.9s.1-.7.2-.9c.1-.2.2-.3.4-.3s.3.1.4.3c.1.2.2.5.2.9v.1h-.9c0 .2 0 .4.1.6.1.1.1.2.3.2.1 0 .1 0 .2-.1-.1 0-.1-.2 0-.3zm-.7-.6h.7c0-.2 0-.3-.1-.4-.1-.1-.1-.2-.3-.2-.1 0-.2.1-.2.2-.1 0-.1.2-.1.4zM35 42.8h.2c0 .2-.1.4-.2.5-.1.1-.2.2-.3.2-.2 0-.3-.1-.4-.3-.1-.2-.2-.5-.2-.9s.1-.7.2-.9c.1-.2.2-.3.4-.3s.3.1.4.3c.1.2.2.5.2.9v.1h-.9c0 .2 0 .4.1.6l.2.2c.1 0 .1 0 .2-.1.1 0 .1-.2.1-.3zm-.6-.6h.7c0-.2 0-.3-.1-.4-.1-.1-.1-.2-.2-.2s-.2.1-.2.2c-.2 0-.2.2-.2.4zM36.9 43.5v-.3c-.1.2-.2.3-.3.3-.1 0-.2 0-.3-.1-.1-.1-.1-.2-.2-.4 0-.2-.1-.4-.1-.6 0-.2 0-.4.1-.6 0-.2.1-.3.2-.4.1-.1.2-.1.3-.1.1 0 .1 0 .2.1s.1.1.1.2v-1.1h.2v3.1h-.2zm-.6-1.1c0 .3 0 .5.1.6.1.1.1.2.2.2s.2-.1.2-.2c.1-.1.1-.3.1-.6s0-.5-.1-.7c-.1-.1-.1-.2-.2-.2s-.2.1-.2.2c-.1.2-.1.4-.1.7zM37.3 42.4c0-.4.1-.7.2-.9.1-.2.2-.2.4-.2s.3.1.4.3c.1.2.2.5.2.8 0 .3 0 .5-.1.7 0 .2-.1.3-.2.4-.1.1-.2.1-.3.1-.2 0-.3-.1-.4-.3-.1-.3-.2-.5-.2-.9zm.3 0c0 .3 0 .5.1.7s.2.2.3.2c.1 0 .2-.1.3-.2.1-.1.1-.4.1-.7 0-.3 0-.5-.1-.6-.1-.1-.1-.2-.2-.2s-.2.1-.3.2c-.2.1-.2.3-.2.6zM39.5 42.7l.2.1c0 .3-.1.5-.2.6-.1.1-.2.2-.3.2-.2 0-.3-.1-.4-.3-.1-.2-.1-.5-.1-.9 0-.2 0-.5.1-.6 0-.2.1-.3.2-.4.1-.1.2-.1.3-.1.1 0 .2.1.3.2.1.1.1.3.2.5l-.2.1c0-.2-.1-.3-.1-.3 0-.1-.1-.1-.2-.1s-.2.1-.2.2c-.1.1-.1.4-.1.7 0 .3 0 .5.1.7.1.1.1.2.2.2s.1 0 .2-.1c-.1-.4 0-.5 0-.7z"/><path fill="gray" d="M40.6 43.5v-.3c-.1.3-.2.4-.4.4-.1 0-.1 0-.2-.1s-.1-.1-.1-.2-.1-.2-.1-.3V41.2h.2V42.9c0 .1 0 .2.1.2 0 .1.1.1.2.1s.1 0 .2-.1.1-.1.1-.2v-1.6h.2v2.3h-.2zM41.1 43.5v-2.3h.2v.3c0-.1.1-.2.1-.3.1-.1.1-.1.2-.1s.2 0 .2.1c.1.1.1.2.1.3.1-.3.2-.4.4-.4.1 0 .2.1.3.2.1.1.1.3.1.6v1.6h-.2v-1.4-.3c0-.1 0-.1-.1-.2l-.1-.1c-.1 0-.2.1-.2.2-.1.1-.1.3-.1.5v1.3h-.2V42c0-.2 0-.3-.1-.4 0-.1-.1-.1-.2-.1s-.1 0-.2.1c0 .1-.1.1-.1.3v1.7h-.1zM43.8 43.5v-.3c-.1.3-.2.4-.4.4-.1 0-.1 0-.2-.1s-.1-.1-.1-.2-.1-.2-.1-.3V41.2h.2V42.9c0 .1 0 .2.1.2 0 .1.1.1.2.1s.1 0 .2-.1.1-.1.1-.2v-1.6h.2v2.3h-.2zM44.3 43.5v-2.3h.2v.3c.1-.2.2-.4.4-.4.1 0 .1 0 .2.1s.1.1.1.2.1.2.1.3V43.5h-.2v-1.4-.4c0-.1 0-.1-.1-.2l-.1-.1c-.1 0-.2.1-.2.2s-.1.3-.1.6v1.2h-.3zM46.4 42.8h.2c0 .2-.1.4-.2.5-.1.1-.2.2-.3.2-.2 0-.3-.1-.4-.3-.1-.2-.2-.5-.2-.9s.1-.7.2-.9c.1-.2.2-.3.4-.3s.3.1.4.3c.1.2.2.5.2.9v.1h-.9c0 .2 0 .4.1.6.1.1.1.2.2.2s.1 0 .2-.1c.1 0 .1-.2.1-.3zm-.6-.6h.7c0-.2 0-.3-.1-.4-.1-.1-.1-.2-.2-.2s-.2.1-.2.2c-.2 0-.2.2-.2.4zM47.3 43.2v.3h-.2c-.1 0-.1 0-.2-.1 0 0-.1-.1-.1-.2v-1.8h-.1v-.3h.1v-.6l.2-.2v.8h.2v.3H47V43h.1l.2.2zM13.1 48.4v.3h-.2c-.1 0-.1 0-.2-.1 0 0-.1-.1-.1-.2v-1.8h-.1v-.3h.1v-.6l.2-.2v.8h.2v.3h-.2v1.6h.1c.1.2.1.2.2.2zM13.3 48.8v-3.1h.2v1.1c.1-.2.2-.3.4-.3.1 0 .2 0 .2.1.1.1.1.2.1.3v1.9H14v-1.4c0-.2 0-.3-.1-.4 0-.1-.1-.1-.2-.1s-.1 0-.2.1-.1.1-.1.2v1.6h-.1zM15.3 48.5c-.1.1-.1.2-.2.3-.1.1-.1.1-.2.1s-.2-.1-.3-.2c-.1-.1-.1-.3-.1-.5v-.3c0-.1.1-.2.1-.2 0-.1.1-.1.1-.1s.1 0 .2-.1c.2 0 .3-.1.4-.1v-.1c0-.2 0-.3-.1-.3-.1-.1-.1-.1-.2-.1s-.2 0-.2.1-.1.2-.1.3l-.2-.1c0-.2 0-.3.1-.4 0-.1.1-.2.2-.2.1-.1.2-.1.3-.1.1 0 .2 0 .2.1.1 0 .1.1.1.2s.1.2.1.3v1.6c0 .1 0 .2.1.3h-.2c-.1-.3-.1-.4-.1-.5zm0-.9c-.1.1-.2.1-.3.1-.1 0-.1 0-.2.1l-.1.1v.2c0 .1 0 .2.1.3 0 .1.1.1.2.1s.1 0 .2-.1.1-.2.1-.3v-.5zM16.3 48.4v.3h-.2c-.1 0-.1 0-.2-.1 0 0-.1-.1-.1-.2v-1.8h-.1v-.3h.1v-.6l.2-.2v.8h.2v.3H16v1.6h.1c.1.2.1.2.2.2zM17.1 48.8v-3.1h.2v1.1c.1-.2.2-.3.4-.3.1 0 .2 0 .2.1.1.1.1.2.1.3v1.9h-.2v-1.4c0-.2 0-.3-.1-.4 0-.1-.1-.1-.2-.1s-.1 0-.2.1-.1.1-.1.2v1.6h-.1zM19.1 48.5c-.1.1-.1.2-.2.3-.1.1-.1.1-.2.1s-.2-.1-.3-.2c-.1-.1-.1-.3-.1-.5v-.3c0-.1.1-.2.1-.2 0-.1.1-.1.1-.1s.1 0 .2-.1c.2 0 .3-.1.4-.1v-.1c0-.2 0-.3-.1-.3-.1-.1-.1-.1-.2-.1s-.2 0-.2.1-.1.2-.1.3l-.2-.1c0-.2 0-.3.1-.4 0-.1.1-.2.2-.2.1-.1.2-.1.3-.1s.2 0 .2.1c.1 0 .1.1.1.2s.1.2.1.3v1.6c0 .1 0 .2.1.3h-.2c0-.3 0-.4-.1-.5zm0-.9c-.1.1-.2.1-.3.1-.1 0-.1 0-.2.1l-.1.1v.2c0 .1 0 .2.1.3 0 .1.1.1.2.1s.1 0 .2-.1.1-.2.1-.3v-.5zM19.6 48.1l.2-.1c0 .2 0 .3.1.4.1.1.1.1.2.1s.2 0 .2-.1.1-.2.1-.3c0-.1 0-.2-.1-.2 0 0-.1-.1-.2-.1-.1-.1-.3-.1-.3-.2-.1-.1-.1-.1-.1-.2v-.3-.3c0-.1.1-.2.1-.2l.1-.1h.2c.1 0 .2 0 .2.1l.2.2c0 .1.1.2.1.4l-.2.1c0-.1 0-.2-.1-.3 0-.1-.1-.1-.2-.1s-.2 0-.2.1-.1.1-.1.2v.1s0 .1.1.1c0 0 .1 0 .2.1s.2.1.3.2c.1 0 .1.1.1.2v.3c0 .1 0 .2-.1.4 0 .1-.1.2-.2.3-.1.1-.2.1-.3.1-.2 0-.3-.1-.4-.2.1-.3.1-.5.1-.7zM21.6 48.8h-.2v-3.1h.2v1.1c.1-.2.2-.3.3-.3.1 0 .1 0 .2.1l.2.2c0 .1.1.2.1.4v.5c0 .4 0 .7-.2.9-.1.2-.2.3-.4.3-.1 0-.3-.1-.3-.3v.2zm0-1.2c0 .3 0 .5.1.6.1.2.1.3.3.3.1 0 .2-.1.2-.2.1-.1.1-.4.1-.6 0-.3 0-.5-.1-.7-.1-.1-.1-.2-.2-.2s-.2.1-.2.2c-.1.1-.2.3-.2.6zM23.5 48h.2c0 .2-.1.4-.2.5-.1.1-.2.2-.3.2-.2 0-.3-.1-.4-.3-.1-.2-.2-.5-.2-.9s.1-.7.2-.9c.1-.2.2-.3.4-.3s.3.1.4.3c.1.2.2.5.2.9v.1h-.9c0 .3 0 .4.1.6.1.1.1.2.3.2.1 0 .1 0 .2-.1V48zm-.6-.6h.7c0-.2 0-.3-.1-.4-.1-.1-.1-.2-.3-.2-.1 0-.2.1-.2.2-.1 0-.1.2-.1.4zM24.8 48h.2c0 .2-.1.4-.2.5-.1.1-.2.2-.3.2-.2 0-.3-.1-.4-.3-.1-.2-.2-.5-.2-.9s.1-.7.2-.9c.1-.2.2-.3.4-.3s.3.1.4.3c.1.2.2.5.2.9v.1h-.9c0 .3 0 .4.1.6.1.1.2.2.3.2.1 0 .1 0 .2-.1-.1 0 0-.1 0-.3zm-.6-.6h.7c0-.2 0-.3-.1-.4-.1-.1-.1-.2-.3-.2-.1 0-.2.1-.2.2-.1 0-.1.2-.1.4zM25.3 48.8v-2.3h.2v.3c.1-.2.2-.4.4-.4.1 0 .1 0 .2.1s.1.1.1.2.1.2.1.3V48.8h-.2v-1.4-.4c0-.1 0-.1-.1-.2l-.1-.1c-.1 0-.2.1-.2.2-.1.1-.1.3-.1.6v1.2h-.3zM27.1 48.1l.2-.1c0 .2 0 .3.1.4.1.1.1.1.2.1s.2 0 .2-.1.1-.2.1-.3c0-.1 0-.2-.1-.2 0 0-.1-.1-.2-.1-.1-.1-.3-.1-.3-.2-.1-.1-.1-.1-.1-.2v-.3-.3c0-.1.1-.2.1-.2l.1-.1h.2c.1 0 .2 0 .2.1l.2.2c0 .1.1.2.1.4l-.2.1c0-.1 0-.2-.1-.3 0-.1-.1-.1-.2-.1s-.2 0-.2.1-.1.1-.1.2v.1s0 .1.1.1c0 0 .1 0 .2.1s.2.1.3.2c.1 0 .1.1.1.2v.3c0 .1 0 .2-.1.4 0 .1-.1.2-.2.3-.1.1-.2.1-.3.1-.2 0-.3-.1-.4-.2.2-.3.1-.5.1-.7zM28.3 48.8v-3.1h.2v1.1c.1-.2.2-.3.4-.3.1 0 .2 0 .2.1.1.1.1.2.1.3v1.9H29v-1.4c0-.2 0-.3-.1-.4 0-.1-.1-.1-.2-.1s-.1 0-.2.1-.1.1-.1.2v1.6h-.1zM29.6 48.8v-2.3h.2v.3c0-.2.1-.3.1-.3l.1-.1c.1 0 .1 0 .2.1l-.1.4c0-.1-.1-.1-.1-.1s-.1 0-.1.1-.1.1-.1.2v1.6h-.2zM31.2 48.8v-.3c-.1.3-.2.4-.4.4-.1 0-.1 0-.2-.1s-.1-.1-.1-.2 0-.2-.1-.3V46.5h.2V48.2c0 .1 0 .2.1.2 0 .1.1.1.2.1s.1 0 .2-.1.1-.1.1-.2v-1.6h.2v2.3h-.2zM31.7 48.8v-2.3h.2v.3c.1-.2.2-.4.4-.4.1 0 .1 0 .2.1s.1.1.1.2.1.2.1.3V48.8h-.2v-1.4-.4c0-.1 0-.1-.1-.2l-.1-.1c-.1 0-.2.1-.2.2-.1.1-.1.3-.1.6v1.2h-.3zM33 48.8v-3.1h.2v1.8l.5-.9h.3l-.5.8.5 1.4h-.2l-.4-1.2-.1.3v.9H33zM34.9 48h.2c0 .2-.1.4-.2.5s-.2.2-.3.2c-.2 0-.3-.1-.4-.3-.1-.2-.2-.5-.2-.9s.1-.7.2-.9c.1-.2.2-.3.4-.3s.3.1.4.3c.1.2.2.5.2.9v.1h-.9c0 .3 0 .4.1.6.1.1.2.2.3.2.1 0 .1 0 .2-.1V48zm-.6-.6h.7c0-.2 0-.3-.1-.4-.1-.1-.1-.2-.3-.2-.1 0-.2.1-.2.2-.1 0-.1.2-.1.4zM36.2 48.8v-.3c-.1.2-.2.3-.3.3-.1 0-.2 0-.3-.1-.1-.1-.1-.2-.2-.4 0-.2-.1-.4-.1-.6 0-.2 0-.4.1-.6 0-.2.1-.3.2-.4.1-.1.2-.1.3-.1.1 0 .1 0 .2.1s.1.1.1.2v-1.1h.2v3.1h-.2zm-.7-1.2c0 .3 0 .5.1.7.1.1.1.2.2.2s.2-.1.2-.2c.1-.1.1-.3.1-.6s0-.5-.1-.7c-.1-.1-.1-.2-.2-.2s-.2.1-.2.2-.1.3-.1.6zM36.7 48.8v-.4h.2v.4h-.2zM13.1 55.9v-2.8h-.5v-.4h1.3v.4h-.5v2.8h-.3zM14 55.9v-3.1h.2v1.1c.1-.2.2-.3.4-.3.1 0 .2 0 .2.1.1.1.1.2.1.3v1.9h-.2v-1.4c0-.2 0-.3-.1-.4 0-.1-.1-.1-.2-.1s-.1 0-.2.1-.1.1-.1.2v1.6H14zM16.1 55.7c-.1.1-.1.2-.2.3-.1.1-.1.1-.2.1s-.2-.1-.3-.2c-.1-.1-.1-.3-.1-.5v-.3c0-.1.1-.2.1-.2 0-.1.1-.1.1-.1s.1 0 .2-.1c.2 0 .3-.1.4-.1v-.1c0-.2 0-.3-.1-.3-.1-.1-.1-.1-.2-.1s-.2 0-.2.1-.1.2-.1.3h-.2c0-.2 0-.3.1-.4 0-.1.1-.2.2-.2.1-.1.2-.1.3-.1.1 0 .2 0 .2.1.1 0 .1.1.1.2s.1.2.1.3V56c0 .1 0 .2.1.3h-.2c-.1-.4-.1-.5-.1-.6zm0-.9c-.1.1-.2.1-.3.1-.1 0-.1 0-.2.1l-.1.1v.2c0 .1 0 .2.1.3 0 .1.1.1.2.1s.1 0 .2-.1.1-.2.1-.3v-.5zM16.6 55.9v-2.3h.2v.3c.1-.2.2-.4.4-.4.1 0 .1 0 .2.1s.1.1.1.2.1.2.1.3V55.9h-.2v-1.4-.4c0-.1 0-.1-.1-.2l-.1-.1c-.1 0-.2.1-.2.2-.1.1-.1.3-.1.6v1.2h-.3zM17.9 55.9v-3.1h.2v1.8l.5-.9h.3l-.5.8.5 1.4h-.2l-.4-1.2-.1.3v.9h-.3zM19.6 56.8v-.4h.2s0-.1.1-.1c0 0 0-.1.1-.3v-.1l-.5-2.3h.2l.2 1.3c0 .2.1.3.1.5 0-.2.1-.3.1-.5l.3-1.3h.2l-.5 2.3c0 .2-.1.4-.1.5 0 .1-.1.2-.1.3 0 .1-.1.1-.2.1 0 .1 0 .1-.1 0zM20.7 54.8c0-.4.1-.7.2-.9.1-.2.2-.3.4-.3s.3.1.4.3c.1.2.2.5.2.8 0 .3 0 .5-.1.7 0 .2-.1.3-.2.4-.1.1-.2.1-.3.1-.2 0-.3-.1-.4-.3-.1-.1-.2-.4-.2-.8zm.2 0c0 .3 0 .5.1.7.1.1.2.2.3.2s.2-.1.3-.2c.1-.1.1-.4.1-.7 0-.3 0-.5-.1-.6l-.2-.2c-.1 0-.2.1-.3.2-.1.1-.2.3-.2.6zM22.9 55.9v-.3c-.1.3-.2.4-.4.4-.1 0-.1 0-.2-.1s-.1-.1-.1-.2-.1-.2-.1-.3V53.6h.2V55.3c0 .1 0 .2.1.2 0 .1.1.1.2.1s.1 0 .2-.1.1-.1.1-.2v-1.6h.2V56h-.2z"/></svg>