<svg xmlns="http://www.w3.org/2000/svg" width="62" height="62"><linearGradient id="a" gradientUnits="userSpaceOnUse" x1="30.624" y1="21.649" x2="30.624" y2="42.741"><stop offset=".091" stop-color="#b3b4b4" stop-opacity=".88"/><stop offset=".15" stop-color="#cbcccc" stop-opacity=".907"/><stop offset=".22" stop-color="#e1e1e1" stop-opacity=".94"/><stop offset=".288" stop-color="#eee" stop-opacity=".971"/><stop offset=".351" stop-color="#F2F2F2"/><stop offset=".488" stop-color="#F0F0F0"/><stop offset=".554" stop-color="#E8E8E8"/><stop offset=".606" stop-color="#DBDBDB"/><stop offset=".649" stop-color="#C9C9C9"/><stop offset=".685" stop-color="#B3B4B4"/><stop offset=".735" stop-color="#b0b1b1" stop-opacity=".956"/><stop offset=".777" stop-color="#a5a6a6" stop-opacity=".919"/><stop offset=".818" stop-color="#949494" stop-opacity=".883"/><stop offset=".856" stop-color="#7b7b7b" stop-opacity=".85"/><stop offset=".894" stop-color="#5b5b5b" stop-opacity=".817"/><stop offset=".93" stop-color="#343434" stop-opacity=".785"/><stop offset=".966" stop-color="#060606" stop-opacity=".754"/><stop offset=".97" stop-opacity=".75"/></linearGradient><path fill="url(#a)" d="M1.631 20.266l57.931.154.054 22.989s.221 2.085-.464 2.855c-.705.794-2.316.736-2.316.736H4.622s-1.612-.306-2.363-.891c-.758-.593-.655-1.814-.655-1.814l.027-24.029z"/><path fill="#CCC" d="M43.892 12.057L52.915 20H8.244z"/><linearGradient id="b" gradientUnits="userSpaceOnUse" x1="30.577" y1="20.262" x2="30.679" y2="11.558"><stop offset=".091" stop-color="#b3b4b4" stop-opacity=".88"/><stop offset=".15" stop-color="#cbcccc" stop-opacity=".907"/><stop offset=".22" stop-color="#e1e1e1" stop-opacity=".94"/><stop offset=".288" stop-color="#eee" stop-opacity=".971"/><stop offset=".351" stop-color="#F2F2F2"/><stop offset=".488" stop-color="#F0F0F0"/><stop offset=".554" stop-color="#E8E8E8"/><stop offset=".606" stop-color="#DBDBDB"/><stop offset=".649" stop-color="#C9C9C9"/><stop offset=".685" stop-color="#B3B4B4"/><stop offset=".735" stop-color="#b0b1b1" stop-opacity=".956"/><stop offset=".777" stop-color="#a5a6a6" stop-opacity=".919"/><stop offset=".818" stop-color="#949494" stop-opacity=".883"/><stop offset=".856" stop-color="#7b7b7b" stop-opacity=".85"/><stop offset=".894" stop-color="#5b5b5b" stop-opacity=".817"/><stop offset=".93" stop-color="#343434" stop-opacity=".785"/><stop offset=".966" stop-color="#060606" stop-opacity=".754"/><stop offset=".97" stop-opacity=".75"/></linearGradient><path fill="url(#b)" d="M48.28 14.074c-1.094-.401-4.175-1.712-4.175-1.712s-.105-.072-.213-.167c-.113-.102-24.645-1.545-27.196.233-.618.43-3.631 1.001-4.415 1.213C6.565 15.188 2.244 20 2.244 20h56.671s-6.824-4.528-10.635-5.926z"/><path fill="#605E5E" d="M59.757 20H1.403c-.222 0-.403.35-.403.586v.429c0 .237.181-.015.403-.015h58.354c.222 0 .243.252.243.015v-.429c0-.236-.021-.586-.243-.586z"/><path fill="#CCC" d="M44.866 13.831l-1.233-1.501-.633-.003V2H17v10.303l-1.359 1.206z"/><path fill="none" stroke="#000" stroke-miterlimit="10" d="M43.866 13.82c.55.006.692-.317.316-.718l-.04-.042c-.376-.401-.941-.73-1.163-.731-.222 0-.479-.452-.479-1.001V2.5c0-.55-.298-1-.848-1H18.299c-.55 0-.799.45-.799 1v8.803c0 .55-.44 1.271-.855 1.603s-.354.608.195.614l27.026.3z"/><path fill="#514F4F" stroke="#5B5959" stroke-miterlimit="10" d="M37.5 3.751c0 .178-1.02-.251-1.186-.251h-11.47c-.167 0-.345.43-.345.251v-.643c0-.178.178-.608.345-.608h11.47c.166 0 1.186.431 1.186.608v.643z"/><path d="M45.584 37.213c1.1-.003 2.113.769 2.252 1.715.138.947.251 1.231.251.633v-8.396c0-1.1-.9-2-2-2H13.866c-1.1 0-2 .9-2 2V39.083c0 .082.045-.282.101-.81s1.001-.961 2.101-.964l31.516-.096zm-32.51-5.456v-.082-.146-.107c0-.046.102-.284.226-.527.125-.244 1.686-.443 2.786-.443h27.779c1.1 0 2.229.089 2.507.199s.507.726.507.772v1.571c0 .726-.9 1.318-2 1.318H15.074c-1.1 0-2-.771-2-1.715v-.84z"/><path fill="#CCC" stroke="#000" stroke-miterlimit="10" d="M51.077 14.689c-3.348-1.635-8.308-2.475-8.308-2.475s4.84 1.449 8.052 3.257c3.793 2.136 7.204 4.866 7.204 4.866l.031 26.525-.638.638h-8.379l-.952-6.69-.503-3.522-35.516.068-.202 2.057-.836 8.087H3.15c1.009 0-.321-.406-.65-1V20.157s1.463-1.763 3.388-3.431c2.561-2.22 11.576-4.504 11.576-4.504s-5.622.63-9.639 2.574C3.645 16.819.5 20.157.5 20.157v24.184s.369 1.844 2.104 2.838c.232.133.54.229.728.296.102.037.168.066.168.088v.937h7.395l-1.342 12h41.366l-1.692-12H57.5v-1.321c1-.068 2-2.838 2-2.838V20.157s-3.836-3.228-8.423-5.468z"/><path d="M51.104 61.334v-.001h-.483z"/><path fill="#514F4F" d="M9.706 61h-.004H51.206l-.253-1H9.754zM45.865 31H42v3h5V31.338c0-.489-.574-.338-1.135-.338zM14.086 31c-.56 0-1.086-.151-1.086.337V34h4v-3h-2.914z"/><path fill="#F4EDED" stroke="#605E5E" stroke-miterlimit="10" d="M16.5 31.5v20h25v-20z"/></svg>