<svg xmlns="http://www.w3.org/2000/svg" width="24" height="24"><path fill="#FFF" d="M15.625 11.606V7.849h-3.97V5.255h3.97V1.499h2.648v3.757h3.979V7.85h-3.979v3.757h-2.648z"/><path fill="none" stroke="#000" stroke-miterlimit="10" d="M15.625 11.606V7.849h-3.97V5.255h3.97V1.499h2.648v3.757h3.979V7.85h-3.979v3.757h-2.648z" opacity=".86"/><path fill="#FFF" d="M10.389 17.004v-3.759h-3.97v-2.592h3.97V6.896h2.647v3.757h3.98v2.592h-3.98v3.759h-2.647z"/><path fill="none" stroke="#000" stroke-miterlimit="10" d="M10.389 17.004v-3.759h-3.97v-2.592h3.97V6.896h2.647v3.757h3.98v2.592h-3.98v3.759h-2.647z" opacity=".96"/><path fill="#FFF" stroke="#000" stroke-miterlimit="10" d="M5.448 22.297V18.54h-3.97v-2.593h3.97v-3.758h2.647v3.758h3.981v2.593H8.095v3.757H5.448z"/></svg>