<svg width="24" height="24" xmlns="http://www.w3.org/2000/svg"><style>.a{fill:#fff}</style><path d="M13.1 14.9c3.9 0 7.1-3.1 7.1-7s-3.2-7-7.1-7S6 4.1 6 7.9c0 3.9 3.2 7 7.1 7z" class="a"/><path d="M13.1 1.4c3.6 0 6.6 2.9 6.6 6.5s-3 6.5-6.6 6.5c-3.6 0-6.6-2.9-6.6-6.5s3-6.5 6.6-6.5m1.2 11c-1.2 0-2.5-.4-3.6-1.1-2.6-1.8-3.5-5.1-2.1-7.6-.1.1-.2.2-.3.4-1.7 2.5-.9 6.1 1.8 8 1.1.8 2.4 1.1 3.6 1.1 1.8 0 3.5-.8 4.5-2.3.1-.1.2-.3.2-.4-.9 1.2-2.5 1.9-4.1 1.9M13.1.4C8.9.4 5.5 3.8 5.5 7.9s3.4 7.5 7.6 7.5c4.2 0 7.6-3.4 7.6-7.5S17.3.4 13.1.4z"/><path d="M8.3 4c.1-.1.2-.3.3-.4-1.4 2.5-.5 5.8 2.1 7.6 2.6 1.8 6 1.4 7.8-.8-.1.1-.2.3-.2.4-1.7 2.5-5.3 3-8.1 1.2-2.8-1.9-3.6-5.4-1.9-8z" fill="#b3b3b3"/><path d="M1.4 18.8l.4-.4s.1.9.6 1.3c.5.5 1.5.5 1.5.5l-.4.5s-.9-.1-1.5-.5c-.5-.5-.6-1.4-.6-1.4z" class="a"/><path d="M1.4 18.8s.1.9.6 1.3c.5.5 1.5.5 1.5.5l-.7.8s-.9-.2-1.4-.7c-.5-.5-.7-1.2-.7-1.2l.7-.7zM1.8 18.3l5.5-6.4s.3.7.9 1.2c.5.4 1.2.6 1.2.6l-5.5 6.4s-.9-.1-1.5-.5c-.5-.4-.6-1.3-.6-1.3z"/></svg>