<svg width="24" height="24" xmlns="http://www.w3.org/2000/svg"><path fill="#fff" stroke="#000" stroke-miterlimit="10" d="M22.31 14.137l-6.186 7.82-1.492-3.757a16.523 16.523 0 01-3.216.342c-4.794 0-9.514-3.481-9.713-3.629l1.196-1.604c.043.032 4.379 3.232 8.517 3.232.776 0 1.603-.086 2.463-.239l-1.434-3.614 9.865 1.449zM1.703 9.509l6.186-7.82L9.38 5.446a16.533 16.533 0 013.217-.342c4.794 0 9.514 3.481 9.712 3.629l-1.196 1.604c-.043-.032-4.379-3.232-8.516-3.232-.776 0-1.604.086-2.464.239l1.435 3.613-9.865-1.448z"/></svg>