<svg xmlns="http://www.w3.org/2000/svg" width="24" height="24"><path stroke-miterlimit="10" fill="#35a0a0" stroke="#216372" stroke-width=".938" d="M1.934 1.883h11.203v3.772H1.934z"/><path stroke-miterlimit="10" transform="matrix(.71458 0 0 1.25679 -3.547 -3.569)" fill="#fff" stroke="#216372" d="M7.5 20.5h16v-13h-16v-.044z"/><path stroke-miterlimit="10" fill="none" stroke="#dae9ed" stroke-width=".928" d="M2.386 2.81h10.276"/><path d="M1.881 8.797H13.12M1.932 11.466H13.17M2.06 14.1h11.237M2.11 16.769h11.237M1.78 16.742h11.237M1.83 19.411h11.238M5.539 6.254v15.763M9.457 6.163v15.763" fill="none" stroke="#216372"/><path d="M23.695 14.034l-2.822 1.63-2.822 1.629v-6.518l2.822 1.63z" transform="matrix(1.21221 0 0 1.68658 -6.62 -10.271)" fill="#fff" stroke="#000"/></svg>