<svg xmlns="http://www.w3.org/2000/svg" width="20" height="20"><path fill="#FFF" stroke="#000" stroke-miterlimit="10" d="M13.5 17.5s-1.888.581-4.089.581c-1.745 0-3.911-.581-3.911-.581l-1-12h10l-1 12zM3.5 3.5h12v2h-12z"/><path fill="none" stroke="#000" stroke-width=".25" stroke-linecap="round" stroke-linejoin="bevel" stroke-miterlimit="10" d="M5.401 4.318l-.014.353M6.901 4.318l-.014.353M8.401 4.318l-.014.353M9.901 4.318l-.014.353M11.4 4.318l-.013.353M13.4 4.318l-.013.353"/><path fill="none" stroke="#000" stroke-miterlimit="10" d="M11.5 3.225a.275.275 0 01-.274.275H7.774a.275.275 0 01-.274-.275v-.45c0-.152.123-.275.274-.275 0 0 .853-.553 1.711-.553.868 0 1.74.553 1.74.553.151 0 .274.123.274.275v.45z"/><path fill="none" stroke="#000" stroke-width=".5" stroke-linecap="round" stroke-linejoin="bevel" stroke-miterlimit="10" d="M9.447 7.518l.094 9.545M11.447 7.518l.094 9.545M13.447 7.518l.094 9.545M7.447 7.518l.094 9.545M5.447 7.518l.094 9.545"/></svg>