<svg width="92" height="92" xmlns="http://www.w3.org/2000/svg"><path fill="none" stroke-miterlimit="10" stroke="#b3b3b3" d="M44.942 25.5l-2.171-2H14.5v43h4v2h34V33.114z"/><path fill="none" stroke-miterlimit="10" stroke="#b3b3b3" d="M44.5 25v7.5H52"/><path d="M20.622 29.147c2.155.963 2.434.929 4.686.138-.114.04 1.637.781 2.229 1.047.655.295 1.451-.327 2.015-.593 1.454-.686 2.858.415 4.906-.153 1.292-.358 1.706-.041 2.973.479.684.28 2.137-.618 2.77-.843.905-.321.515-1.771-.398-1.446-.913.324-1.771.925-2.697.546-.631-.258-1.238-.683-1.927-.492-.891.247-1.829.734-2.686.486-.598-.173-1.612-.718-2.261-.54-.858.236-1.706.795-2.508 1.173.578-.272-.149-.237-.743-.505l-1.314-.593c-.574-.259-1.239.156-1.778.346-1.263.443-1.049.306-2.508-.346-.878-.39-1.641.902-.759 1.296zM35.372 33.223l1.11.455c.349.143.945.531 1.346.388l2.372-.843c.905-.321.515-1.771-.398-1.446l-2.316.823c.066-.024.526.094.108-.077l-.712-.292-1.11-.455c-.897-.366-1.283 1.086-.4 1.447z" fill="#b3b3b3"/><path d="M30.23 33.223c.827.24 1.848.755 2.713.755.902 0 1.96-.515 2.827-.755.931-.258.535-1.705-.398-1.446l-2.609.723c.44-.122.384.007-.013-.108l-.864-.25-1.257-.364c-.932-.271-1.326 1.177-.399 1.445z" fill="#b3b3b3"/><path d="M24.907 33.147c.905.408 1.85.998 2.808 1.261.476.131 1.161-.35 1.568-.542l1.525-.719c.875-.412.113-1.705-.757-1.295l-2.515 1.186h.757l-2.628-1.186c-.875-.394-1.639.898-.758 1.295z" fill="#b3b3b3"/><path d="M20.622 33.147l1.164.521c.337.15.919.532 1.299.398l2.4-.843c.907-.318.517-1.768-.398-1.446l-2.4.843.578.076-1.886-.843c-.876-.392-1.639.9-.757 1.294zM20.801 37.523c2.782.815 4.803-.023 7.6.686.921.234 1.606-.789 2.639-.534 1.732.427 2.134.409 3.837-.159.96-.32 1.992.835 3.043.466 1.733-.608 2.151.14 3.822.14 1.606 0 1.985-.718 3.768-.241 1.185.317 2.571-.338 3.746-.586.946-.2.545-1.646-.398-1.446-2.546.537-4.639-.242-7.011.682-.869.338-1.904-.844-2.91-.491-1.732.607-2.245-.104-3.938-.104-1.475 0-1.989.681-3.561.293-1.277-.315-1.524-.143-2.772.412-.891.396-2.159-.894-3.122-.603-1.832.553-2.511.575-4.345.039-.93-.273-1.324 1.175-.398 1.446z" fill="#b3b3b3"/><path d="M20.801 37.523c2.782.815 4.803-.023 7.6.686.921.234 1.606-.789 2.639-.534 1.732.427 2.134.409 3.837-.159.96-.32 1.992.835 3.043.466 1.733-.608 2.151.14 3.822.14 1.606 0 1.985-.718 3.768-.241 1.185.317 2.571-.338 3.746-.586.946-.2.545-1.646-.398-1.446-2.546.537-4.639-.242-7.011.682-.869.338-1.904-.844-2.91-.491-1.732.607-2.245-.104-3.938-.104-1.475 0-1.989.681-3.561.293-1.277-.315-1.524-.143-2.772.412-.891.396-2.159-.894-3.122-.603-1.832.553-2.511.575-4.345.039-.93-.273-1.324 1.175-.398 1.446zM20.801 41.523c2.782.815 4.803-.023 7.6.686.921.234 1.606-.789 2.639-.534 1.732.427 2.134.409 3.837-.159.96-.32 1.992.835 3.043.466 1.733-.608 2.151.14 3.822.14 1.606 0 1.985-.718 3.768-.241 1.185.317 2.571-.338 3.746-.586.946-.2.545-1.646-.398-1.446-2.546.537-4.639-.242-7.011.682-.869.338-1.904-.844-2.91-.491-1.732.607-2.245-.104-3.938-.104-1.475 0-1.989.681-3.561.293-1.277-.315-1.524-.143-2.772.412-.891.396-2.159-.894-3.122-.603-1.832.553-2.511.575-4.345.039-.93-.273-1.324 1.175-.398 1.446zM20.801 45.523c2.782.815 4.802-.023 7.6.687.921.234 1.606-.789 2.639-.535 1.731.426 2.135.409 3.837-.159.96-.32 1.992.834 3.043.465 1.732-.607 2.151.14 3.822.14 1.607 0 1.985-.718 3.768-.24 1.185.317 2.571-.339 3.746-.586.946-.199.545-1.645-.398-1.446-2.546.536-4.64-.242-7.011.682-.869.338-1.904-.843-2.91-.491-1.731.607-2.246-.104-3.938-.104-1.475 0-1.989.68-3.561.293-1.277-.315-1.524-.143-2.772.413-.891.396-2.159-.894-3.122-.603-1.832.553-2.511.575-4.345.038-.93-.273-1.324 1.174-.398 1.446zM20.801 49.523c2.782.814 4.802-.023 7.6.687.921.233 1.606-.79 2.639-.535 1.731.427 2.135.408 3.837-.159.96-.319 1.992.835 3.043.466 1.732-.607 2.151.14 3.822.14 1.607 0 1.985-.718 3.768-.24 1.185.316 2.571-.339 3.746-.586.946-.199.545-1.646-.398-1.447-2.546.536-4.64-.241-7.011.682-.869.339-1.904-.843-2.91-.49-1.731.607-2.246-.104-3.938-.104-1.475 0-1.989.68-3.561.293-1.277-.314-1.524-.143-2.772.412-.891.396-2.159-.893-3.122-.603-1.832.554-2.511.576-4.345.038-.93-.273-1.324 1.175-.398 1.446zM20.801 53.523c2.782.814 4.802-.023 7.6.687.921.233 1.606-.79 2.639-.535 1.731.427 2.135.408 3.837-.159.96-.319 1.992.835 3.043.466 1.732-.607 2.151.14 3.822.14 1.607 0 1.985-.718 3.768-.24 1.185.316 2.571-.339 3.746-.586.946-.199.545-1.646-.398-1.447-2.546.536-4.64-.241-7.011.682-.869.339-1.904-.843-2.91-.49-1.731.607-2.246-.104-3.938-.104-1.475 0-1.989.68-3.561.293-1.277-.314-1.524-.143-2.772.412-.891.396-2.159-.893-3.122-.603-1.832.554-2.511.576-4.345.038-.93-.273-1.324 1.175-.398 1.446zM20.801 57.523c2.782.814 4.802-.023 7.6.687.921.233 1.606-.79 2.639-.535 1.731.427 2.135.408 3.837-.159.96-.319 1.992.835 3.043.466 1.732-.607 2.151.14 3.822.14 1.607 0 1.985-.718 3.768-.24 1.185.316 2.571-.339 3.746-.586.946-.199.545-1.646-.398-1.447-2.546.536-4.64-.241-7.011.682-.869.339-1.904-.843-2.91-.49-1.731.607-2.246-.104-3.938-.104-1.475 0-1.989.68-3.561.293-1.277-.314-1.524-.143-2.772.412-.891.396-2.159-.893-3.122-.603-1.832.554-2.511.576-4.345.038-.93-.273-1.324 1.175-.398 1.446zM20.801 61.523c2.782.814 4.802-.023 7.6.687.921.233 1.606-.79 2.639-.535 1.731.427 2.135.408 3.837-.159.96-.319 1.992.835 3.043.466 1.732-.607 2.151.14 3.822.14 1.607 0 1.985-.718 3.768-.24 1.185.316 2.571-.339 3.746-.586.946-.199.545-1.646-.398-1.447-2.546.536-4.64-.241-7.011.682-.869.339-1.904-.843-2.91-.49-1.731.607-2.246-.104-3.938-.104-1.475 0-1.989.68-3.561.293-1.277-.314-1.524-.143-2.772.412-.891.396-2.159-.893-3.122-.603-1.832.554-2.511.576-4.345.038-.93-.273-1.324 1.175-.398 1.446zM20.801 65.523c2.782.814 4.802-.023 7.6.687.921.233 1.606-.79 2.639-.535 1.731.427 2.135.408 3.837-.159.96-.319 1.992.835 3.043.466 1.732-.607 2.151.14 3.822.14 1.607 0 1.985-.718 3.768-.24 1.185.316 2.571-.339 3.746-.586.946-.199.545-1.646-.398-1.447-2.546.536-4.64-.241-7.011.682-.869.339-1.904-.843-2.91-.49-1.731.607-2.246-.104-3.938-.104-1.475 0-1.989.68-3.561.293-1.277-.314-1.524-.143-2.772.412-.891.396-2.159-.893-3.122-.603-1.832.554-2.511.576-4.345.038-.93-.273-1.324 1.175-.398 1.446z" fill="#b3b3b3"/><path fill="none" stroke-miterlimit="10" stroke="#b3b3b3" d="M44.942 25.5l-26.628.578.207 40.422"/><g><path d="M63.435 43.671c-.536-.536-4.708 3.756-4.231 4.231L74.76 63.459c.534.535 1.947-.008 3.085-1.146 1.139-1.137 1.653-2.521 1.119-3.057L63.435 43.671z"/><ellipse cx="49.671" cy="36.171" rx="15.529" ry="14.4" fill="none" stroke-miterlimit="10" stroke="#000"/><path d="M59.203 47.902l4.231-4.231-4.231 4.231z" fill="none"/><path d="M78.964 59.256s-1.509.707-2.547 1.744c-1.063 1.064-1.657 2.459-1.657 2.459" fill="none" stroke-miterlimit="10" stroke-width=".25" stroke="#fff"/><ellipse cx="49.431" cy="36.303" rx="14.403" ry="13.531" fill="none" stroke-miterlimit="10" stroke="#e6e6e6"/></g></svg>