<svg xmlns="http://www.w3.org/2000/svg" viewBox="0 0 100 125"><path d="M50.3 99h-2.6V69c0-1.3 1-2.3 2.3-2.3 1.3 0 2.3 1 2.3 2.3v30h-2zm37.6-80.5l-3.2-3.2-3.3-3.3c-1.2-1.1-3.1-1.3-4.5-.3l-7.5 5.4c-3.1-1.8-6.4-3.2-9.9-4.1L58 3.9C57.7 2.2 56.2 1 54.6 1h-9.2c-1.7 0-3.2 1.2-3.4 2.9L40.4 13c-3.5.9-6.9 2.3-10.1 4.2L22.9 12c-1.4-1-3.3-.8-4.5.4l-3.2 3.2-3.2 3.2c-1.2 1.2-1.4 3.1-.4 4.5l5.4 7.6c-1.8 3.1-3.1 6.5-4 9.9l-9.1 1.4C2.2 42.5 1 44 1 45.6v9.2c0 1.7 1.2 3.2 2.9 3.4l9.2 1.5c.9 3.4 2.3 6.7 4.2 9.8L12 77c-1 1.4-.8 3.3.4 4.5l3.2 3.2 3.2 3.2c1.2 1.2 3.1 1.4 4.5.4l7.6-5.4c.7.4 1.4.8 2.2 1.2l.6.3c.6.3 1.2.6 1.8.8.1.1.3.1.4.2.8.3 1.5.6 2.3.8h.1c.8.3 1.6.5 2.3.7l1.5.3V70.7c0-3-1.3-5.8-3.6-7.7-3.8-3.3-6.2-8.2-6.2-13.7 0-6.6 3.5-12.4 8.8-15.6.4-.2.9.1.9.5v10.4c0 3.1 2.5 5.6 5.6 5.6h4.7c3.1 0 5.6-2.5 5.6-5.6V33.7c0-.4.5-.7.8-.5 5.9 3 9.9 9.1 9.9 16.1 0 5.7-2.7 10.8-6.8 14.2-2.5 2-4 4.9-4 8.1v15.8c.6-.1 1.3-.3 1.9-.5.7-.2 1.5-.4 2.2-.7.2-.1.4-.1.6-.2.5-.2 1-.4 1.4-.5.4-.1.7-.3 1.1-.5.2-.1.5-.2.7-.3.5-.2 1-.5 1.5-.7.7-.3 1.3-.7 2-1.1l7.5 5.4c1.4 1 3.3.8 4.5-.4l3.2-3.2 3.2-3.2c1.2-1.2 1.4-3.1.4-4.5l-5-7.6c1.8-3.1 3.2-6.4 4.1-9.9l9.1-1.6c1.7-.3 2.9-1.8 2.9-3.4v-9.2c0-1.7-1.2-3.2-2.9-3.4L87 40.4c-.9-3.4-2.3-6.7-4.1-9.9l5.4-7.5c1-1.4.8-3.3-.4-4.5z"/><text y="115" font-size="5" font-weight="bold" font-family="'Helvetica Neue', Helvetica, Arial-Unicode, Arial, Sans-serif">Created by Gregor Črešnar</text><text y="120" font-size="5" font-weight="bold" font-family="'Helvetica Neue', Helvetica, Arial-Unicode, Arial, Sans-serif">from the Noun Project</text></svg>